<?xml version="1.0" encoding="UTF-8"?>
<svg xmlns="http://www.w3.org/2000/svg" width="605.339mm" height="150.453mm" viewBox="-635.715088 23.151672 605.338745 150.453369">
    <path transform="matrix(-1.019700 0.000000 0.000000 1.019700 -282.718964 -415.444824)" style="stroke:#ff0000;stroke-width:0.05mm;fill:none" d="M337.708069,569.823853L336.409027,572.073853L333.810944,572.073853L332.511932,569.823853L333.810944,567.573853L336.409027,567.573853L337.708069,569.823853z"/>
    <path transform="matrix(-1.019700 0.000000 0.000000 1.019700 -286.544983 -415.444824)" style="stroke:#ff0000;stroke-width:0.05mm;fill:none" d="M143.451904,569.823853L142.152893,572.073853L139.55481,572.073853L138.255737,569.823853L139.55481,567.573853L142.152893,567.573853L143.451904,569.823853z"/>
    <path transform="matrix(-1.019700 0.000000 0.000000 1.019700 -290.371979 -415.444824)" style="stroke:#ff0000;stroke-width:0.05mm;fill:none" d="M-50.804199,569.823853L-52.103271,572.073853L-54.701294,572.073853L-56.000427,569.823853L-54.701294,567.573853L-52.103271,567.573853L-50.804199,569.823853z"/>
    <path transform="matrix(-1.019700 0.000000 0.000000 1.019700 -294.198975 -415.444824)" style="stroke:#ff0000;stroke-width:0.05mm;fill:none" d="M-245.060425,569.823853L-246.359436,572.073853L-248.95752,572.073853L-250.256531,569.823853L-248.95752,567.573853L-246.359436,567.573853L-245.060425,569.823853z"/>
    <path transform="matrix(-1.019700 0.000000 0.000000 1.019700 -293.811981 -414.239807)" style="stroke:#ff0000;stroke-width:0.05mm;fill:none" d="M-225.400452,508.655884L-226.699402,510.905884L-229.297546,510.905884L-230.596619,508.655884L-229.297546,506.405884L-226.699402,506.405884L-225.400452,508.655884z"/>
    <path transform="matrix(-1.019700 0.000000 0.000000 1.019700 -293.326965 -412.731812)" style="stroke:#ff0000;stroke-width:0.05mm;fill:none" d="M-200.803101,432.126434L-202.102112,434.376465L-204.700195,434.376465L-205.999207,432.126434L-204.700195,429.876465L-202.102112,429.876465L-200.803101,432.126434z"/>
    <path transform="matrix(-1.019700 0.000000 0.000000 1.019700 -290.080963 -412.731812)" style="stroke:#ff0000;stroke-width:0.05mm;fill:none" d="M-36.051819,432.126434L-37.350891,434.376465L-39.948914,434.376465L-41.247925,432.126434L-39.948914,429.876465L-37.350891,429.876465L-36.051819,432.126434z"/>
    <path transform="matrix(-1.019700 0.000000 0.000000 1.019700 -286.835968 -412.731812)" style="stroke:#ff0000;stroke-width:0.05mm;fill:none" d="M128.699463,432.126434L127.400391,434.376465L124.802368,434.376465L123.503304,432.126434L124.802368,429.876465L127.400391,429.876465L128.699463,432.126434z"/>
    <path transform="matrix(-1.000000 0.000000 0.000000 1.000000 -289.319977 -404.218811)" style="stroke:#ff0000;stroke-width:0.05mm;fill:none" d="M267.975708,544.481018L267.975708,554.481018L286.124969,554.481018L286.124969,544.481018L267.975708,544.481018z"/>
    <path transform="matrix(-1.000000 0.000000 0.000000 1.000000 -289.319977 -404.218811)" style="stroke:#ff0000;stroke-width:0.05mm;fill:none" d="M208.975739,544.481018L208.975739,554.481018L232.475739,554.481018L232.475739,544.481018L208.975739,544.481018z"/>
    <path transform="matrix(-1.000000 0.000000 0.000000 1.000000 -289.319977 -404.218811)" style="stroke:#ff0000;stroke-width:0.05mm;fill:none" d="M238.475769,544.481018L238.475769,554.481018L261.975739,554.481018L261.975739,544.481018L238.475769,544.481018z"/>
    <path transform="matrix(-1.000000 0.000000 0.000000 1.000000 -289.319977 -404.218811)" style="stroke:#ff0000;stroke-width:0.05mm;fill:none" d="M179.475769,544.481018L179.475769,554.481018L202.975769,554.481018L202.975769,544.481018L179.475769,544.481018z"/>
    <path transform="matrix(-1.000000 0.000000 0.000000 1.000000 -289.319977 -404.218811)" style="stroke:#ff0000;stroke-width:0.05mm;fill:none" d="M-92.024292,544.481018L-92.024292,554.481018L-115.524292,554.481018L-115.524292,544.481018L-92.024292,544.481018z"/>
    <path transform="matrix(-1.000000 0.000000 0.000000 1.000000 -289.319977 -404.218811)" style="stroke:#ff0000;stroke-width:0.05mm;fill:none" d="M-151.024292,544.481018L-151.024292,554.481018L-174.524231,554.481018L-174.524231,544.481018L-151.024292,544.481018z"/>
    <path transform="matrix(-1.000000 0.000000 0.000000 1.000000 -289.319977 -404.218811)" style="stroke:#ff0000;stroke-width:0.05mm;fill:none" d="M-121.52417,544.481018L-121.52417,554.481018L-145.024231,554.481018L-145.024231,544.481018L-121.52417,544.481018z"/>
    <path transform="matrix(-1.000000 0.000000 0.000000 1.000000 -289.319977 -404.218811)" style="stroke:#ff0000;stroke-width:0.05mm;fill:none" d="M343.396606,577.823853C345.436127,577.823853,346.881165,575.83252,346.248718,573.893555L335.014618,539.450867L307.695007,539.450867L299.847504,515.541382L327.216064,515.541382L318.618408,489.181702L315.379852,479.252777L287.936981,479.252777L287.936981,455.343231L307.581329,455.343231L299.132599,429.440247C298.72995,428.205811,297.578918,427.370483,296.280457,427.370483L50.725769,427.370483C50.173462,427.370483,49.725708,427.818237,49.725708,428.370514L49.725708,428.376434C49.725708,428.928741,50.173462,429.376465,50.725769,429.376465L53.225708,429.376465C53.778015,429.376465,54.225708,429.824158,54.225708,430.376465L54.225708,442.376465C54.225708,442.928741,53.778015,443.376465,53.225708,443.376465L52.172791,443.376465C51.620483,443.376465,51.172791,443.824158,51.172791,444.376465L51.172791,450.481018C51.172791,451.033325,51.620483,451.481018,52.172791,451.481018L277.975769,451.481018L277.975769,541.481018L173.475769,541.481018L173.475769,554.481018L171.015625,554.481018L43.725769,554.481018L-83.564148,554.481018L-86.024231,554.481018L-86.024231,541.481018L-190.524292,541.481018L-190.524292,451.481018L35.278748,451.481018C35.830994,451.481018,36.278748,451.033325,36.278748,450.481018L36.278748,444.376465C36.278748,443.824158,35.830994,443.376465,35.278748,443.376465L34.225708,443.376465C33.673462,443.376465,33.225769,442.928741,33.225769,442.376465L33.225769,430.376465C33.225769,429.824158,33.673462,429.376465,34.225708,429.376465L36.725769,429.376465C37.278076,429.376465,37.725769,428.928741,37.725769,428.376434L37.725769,428.370514C37.725769,427.818237,37.278076,427.370483,36.725769,427.370483L-208.828918,427.370483C-210.12738,427.370483,-211.278503,428.205811,-211.681152,429.440247L-220.129822,455.343231L-200.485535,455.343231L-200.485535,479.252777L-227.928406,479.252777L-231.166931,489.181702L-239.764587,515.541382L-212.395996,515.541382L-220.243469,539.450867L-247.56311,539.450867L-258.79718,573.893555C-259.429626,575.83252,-257.98468,577.823853,-255.945129,577.823853L43.725769,577.823853L343.396606,577.823853z"/>
    <path transform="matrix(-1.000000 0.000000 0.000000 1.000000 -289.319977 -404.218811)" style="stroke:#ff0000;stroke-width:0.05mm;fill:none" d="M-180.524231,544.481018L-180.524231,554.481018L-198.673462,554.481018L-198.673462,544.481018L-180.524231,544.481018z"/>
    <path transform="matrix(-1.019700 0.000000 0.000000 1.019700 -283.104980 -414.239807)" style="stroke:#ff0000;stroke-width:0.05mm;fill:none" d="M318.048065,508.655884L316.749023,510.905884L314.15097,510.905884L312.851929,508.655884L314.15097,506.405884L316.749023,506.405884L318.048065,508.655884z"/>
    <path transform="matrix(-1.019700 0.000000 0.000000 1.019700 -283.589966 -412.731812)" style="stroke:#ff0000;stroke-width:0.05mm;fill:none" d="M293.450745,432.126434L292.151733,434.376465L289.55365,434.376465L288.254578,432.126434L289.55365,429.876465L292.151733,429.876465L293.450745,432.126434z"/>
    <path transform="matrix(-1.000000 0.000000 0.000000 1.000000 -289.319946 -404.217834)" style="stroke:#ff0000;stroke-width:0.05mm;fill:none" d="M133.224976,553.196289L135.676208,545.727844L163.168152,545.727844L171.015625,521.818298L143.523743,521.818298L155.434326,485.529694L182.926147,485.529694L182.926147,461.620148L163.281799,461.620148L165.733093,454.151672L67.722412,454.151672L67.72113,463.648193L62.125565,463.667847L62.122375,454.151672L47.5224,454.151672C45.86554,454.151672,44.5224,455.494781,44.5224,457.151642L44.5224,550.19635C44.5224,551.85321,45.86554,553.196289,47.5224,553.196289L133.224976,553.196289z"/>
    <path transform="matrix(-1.000000 0.000000 0.000000 1.000000 -289.319946 -404.217834)" style="stroke:#ff0000;stroke-width:0.05mm;fill:none" d="M171.205688,473.574921C171.205688,472.746521,171.877197,472.074921,172.705627,472.074921C173.534058,472.074921,174.205627,472.746521,174.205627,473.574921C174.205627,474.403351,173.534058,475.074921,172.705627,475.074921C171.877197,475.074921,171.205688,474.403351,171.205688,473.574921z"/>
    <path transform="matrix(-1.000000 0.000000 0.000000 1.000000 -289.319946 -404.217834)" style="stroke:#ff0000;stroke-width:0.05mm;fill:none" d="M151.447632,533.77301C151.447632,532.94458,152.119202,532.273071,152.947571,532.273071C153.776001,532.273071,154.447571,532.94458,154.447571,533.77301C154.447571,534.60144,153.776001,535.273071,152.947571,535.273071C152.119202,535.273071,151.447632,534.60144,151.447632,533.77301z"/>
    <path transform="matrix(-1.000000 0.000000 0.000000 1.189310 -289.319946 -497.371826)" style="stroke:#ff0000;stroke-width:0.05mm;fill:none" d="M62.122375,501.742462L62.122375,481.742493L67.722412,481.742493L67.722412,501.742462L62.122375,501.742462z"/>
    <path transform="matrix(-1.000000 0.000000 0.000000 1.000000 -289.319946 -404.217834)" style="stroke:#ff0000;stroke-width:0.05mm;fill:none" d="M67.422363,511.742493C67.422363,513.123169,66.303101,514.242493,64.922424,514.242493C63.541687,514.242493,62.422363,513.123169,62.422363,511.742493C62.422363,510.361755,63.541687,509.242493,64.922424,509.242493C66.303101,509.242493,67.422363,510.361755,67.422363,511.742493z"/>
    <path transform="matrix(-1.000000 0.000000 0.000000 1.000000 -289.319946 -404.217834)" style="stroke:#ff0000;stroke-width:0.05mm;fill:none" d="M67.422363,471.742462C67.422363,473.123199,66.303101,474.242493,64.922424,474.242493C63.541687,474.242493,62.422363,473.123199,62.422363,471.742462C62.422363,470.361755,63.541687,469.242462,64.922424,469.242462C66.303101,469.242462,67.422363,470.361755,67.422363,471.742462z"/>
    <path transform="matrix(-1.000000 0.000000 0.000000 1.000000 -289.319946 -404.217834)" style="stroke:#ff0000;stroke-width:0.05mm;fill:none" d="M67.422363,471.742462C67.422363,473.123199,66.303101,474.242493,64.922424,474.242493C63.541687,474.242493,62.422363,473.123199,62.422363,471.742462C62.422363,470.361755,63.541687,469.242462,64.922424,469.242462C66.303101,469.242462,67.422363,470.361755,67.422363,471.742462z"/>
    <rect transform="matrix(-1.000000 0.000000 0.000000 1.000000 -351.241943 129.540207)" style="stroke:#ff0000;stroke-width:0.05mm;fill:none" x="-5.799997" y="-15.190827" width="11.599995" height="30.381655"/>
    <path transform="translate(-376.770996 -404.218811)" style="stroke:#ff0000;stroke-width:0.05mm;fill:none" d="M133.224976,553.196289L135.676208,545.727844L163.168152,545.727844L171.015625,521.818298L143.523743,521.818298L155.434326,485.529694L182.926147,485.529694L182.926147,461.620148L163.281799,461.620148L165.733093,454.151672L67.722412,454.151672L67.72113,463.648193L62.125565,463.667847L62.122375,454.151672L47.5224,454.151672C45.86554,454.151672,44.5224,455.494781,44.5224,457.151642L44.5224,550.19635C44.5224,551.85321,45.86554,553.196289,47.5224,553.196289L133.224976,553.196289z"/>
    <path transform="translate(-376.770996 -404.218811)" style="stroke:#ff0000;stroke-width:0.05mm;fill:none" d="M171.205688,473.574921C171.205688,472.746521,171.877197,472.074921,172.705627,472.074921C173.534058,472.074921,174.205627,472.746521,174.205627,473.574921C174.205627,474.403351,173.534058,475.074921,172.705627,475.074921C171.877197,475.074921,171.205688,474.403351,171.205688,473.574921z"/>
    <path transform="translate(-376.770996 -404.218811)" style="stroke:#ff0000;stroke-width:0.05mm;fill:none" d="M151.447632,533.77301C151.447632,532.94458,152.119202,532.273071,152.947571,532.273071C153.776001,532.273071,154.447571,532.94458,154.447571,533.77301C154.447571,534.60144,153.776001,535.273071,152.947571,535.273071C152.119202,535.273071,151.447632,534.60144,151.447632,533.77301z"/>
    <path transform="matrix(1.000000 0.000000 0.000000 1.189310 -376.770996 -497.372803)" style="stroke:#ff0000;stroke-width:0.05mm;fill:none" d="M62.122375,501.742462L62.122375,481.742493L67.722412,481.742493L67.722412,501.742462L62.122375,501.742462z"/>
    <path transform="translate(-376.770996 -404.218811)" style="stroke:#ff0000;stroke-width:0.05mm;fill:none" d="M67.422363,511.742493C67.422363,513.123169,66.303101,514.242493,64.922424,514.242493C63.541687,514.242493,62.422363,513.123169,62.422363,511.742493C62.422363,510.361755,63.541687,509.242493,64.922424,509.242493C66.303101,509.242493,67.422363,510.361755,67.422363,511.742493z"/>
    <path transform="translate(-376.770996 -404.218811)" style="stroke:#ff0000;stroke-width:0.05mm;fill:none" d="M67.422363,471.742462C67.422363,473.123199,66.303101,474.242493,64.922424,474.242493C63.541687,474.242493,62.422363,473.123199,62.422363,471.742462C62.422363,470.361755,63.541687,469.242462,64.922424,469.242462C66.303101,469.242462,67.422363,470.361755,67.422363,471.742462z"/>
    <path transform="translate(-376.770996 -404.218811)" style="stroke:#ff0000;stroke-width:0.05mm;fill:none" d="M67.422363,471.742462C67.422363,473.123199,66.303101,474.242493,64.922424,474.242493C63.541687,474.242493,62.422363,473.123199,62.422363,471.742462C62.422363,470.361755,63.541687,469.242462,64.922424,469.242462C66.303101,469.242462,67.422363,470.361755,67.422363,471.742462z"/>
    <rect transform="translate(-314.848999 129.539215)" style="stroke:#ff0000;stroke-width:0.05mm;fill:none" x="-5.799997" y="-15.190827" width="11.599995" height="30.381655"/>
</svg>
