<?xml version="1.0" encoding="UTF-8"?>
<svg xmlns="http://www.w3.org/2000/svg" width="612.996mm" height="803.116mm" viewBox="-684.516113 -80.289001 612.995972 803.116455">
    <path transform="matrix(-1.000000 0.000000 0.000000 1.000000 535.281006 189.369263)" style="stroke:#ff0000;stroke-width:0.05mm;fill:none" d="M1047.319092,-169.582275C1047.319092,-170.465942,1046.602783,-171.182312,1045.719116,-171.182312C1044.835449,-171.182312,1044.119141,-170.465942,1044.119141,-169.582275C1044.119141,-168.698608,1044.835449,-167.9823,1045.719116,-167.9823C1046.602783,-167.9823,1047.319092,-168.698608,1047.319092,-169.582275z"/>
    <path transform="matrix(-1.000000 0.000000 0.000000 1.000000 535.281006 189.369263)" style="stroke:#ff0000;stroke-width:0.05mm;fill:none" d="M1196.61499,-210.54718C1196.61499,-209.663513,1197.331299,-208.947205,1198.214966,-208.947205C1199.098633,-208.947205,1199.814941,-209.663513,1199.814941,-210.54718C1199.814941,-211.430847,1199.098633,-212.147217,1198.214966,-212.147217C1197.331299,-212.147217,1196.61499,-211.430847,1196.61499,-210.54718z"/>
    <path transform="matrix(-1.000000 0.000000 0.000000 1.000000 535.281006 189.369263)" style="stroke:#ff0000;stroke-width:0.05mm;fill:none" d="M1051.682861,-210.54718C1051.682861,-211.430847,1050.966553,-212.147217,1050.082886,-212.147217C1049.199219,-212.147217,1048.48291,-211.430847,1048.48291,-210.54718C1048.48291,-209.663513,1049.199219,-208.947205,1050.082886,-208.947205C1050.966553,-208.947205,1051.682861,-209.663513,1051.682861,-210.54718z"/>
    <path transform="matrix(-1.000000 0.000000 0.000000 1.000000 535.281006 189.369263)" style="stroke:#ff0000;stroke-width:0.05mm;fill:none" d="M1189.144531,-169.582275C1189.144531,-168.698608,1189.860962,-167.9823,1190.744629,-167.9823C1191.628296,-167.9823,1192.344604,-168.698608,1192.344604,-169.582275C1192.344604,-170.465942,1191.628296,-171.182312,1190.744629,-171.182312C1189.860962,-171.182312,1189.144531,-170.465942,1189.144531,-169.582275z"/>
    <path transform="matrix(-1.000000 0.000000 0.000000 1.000000 535.281006 189.369263)" style="stroke:#ff0000;stroke-width:0.05mm;fill:none" d="M1043.460571,-164.57135L1011.461487,-181.772827C1011.00592,-182.017761,1010.558472,-182.130432,1010.041077,-182.130432L855.661743,-182.130432L848.013367,-202.685303L1032.141602,-202.685303C1032.959473,-202.685303,1033.560669,-202.918518,1034.164551,-203.470032L1046.255615,-214.511292C1046.859497,-215.062744,1047.460693,-215.295959,1048.278564,-215.295959L1199.474854,-215.295959C1200.533813,-215.295959,1201.514282,-214.737732,1202.054688,-213.827087L1219.373535,-184.646179C1220.204224,-183.246643,1219.767456,-181.440063,1218.38916,-180.574524L1193.069458,-164.673218C1192.564941,-164.356323,1192.069824,-164.213745,1191.473999,-164.213745L1044.881104,-164.213745C1044.36377,-164.213745,1043.91626,-164.326355,1043.460571,-164.57135z"/>
    <path transform="matrix(-1.000000 0.000000 0.000000 -1.000000 -330.465027 939.337280)" style="stroke:#ff0000;stroke-width:0.05mm;fill:none" d="M-255.945129,366.963165C-257.98468,366.963165,-259.429626,364.971863,-258.79718,363.032898L-231.166931,278.321045"/>
    <path transform="matrix(-1.000000 0.000000 0.000000 -1.000000 -330.465027 939.337280)" style="stroke:#ff0000;stroke-width:0.05mm;fill:none" d="M-231.166931,278.321045L-211.681152,218.57959C-211.278503,217.345123,-210.12738,216.509827,-208.828918,216.509827"/>
    <path transform="matrix(-1.000000 0.000000 0.000000 -1.000000 -330.465027 939.337280)" style="stroke:#ff0000;stroke-width:0.05mm;fill:none" d="M318.618408,278.321045L346.248718,363.032898C346.881165,364.971863,345.436127,366.963165,343.396606,366.963165"/>
    <path transform="matrix(-1.000000 0.000000 0.000000 -1.000000 -330.465027 939.337280)" style="stroke:#ff0000;stroke-width:0.05mm;fill:none" d="M296.280457,216.509827C297.578918,216.509827,298.72995,217.345123,299.132599,218.57959L318.618408,278.321045"/>
    <path transform="matrix(-1.000000 0.000000 0.000000 -1.000000 -330.465027 939.337280)" style="stroke:#ff0000;stroke-width:0.05mm;fill:none" d="M343.396606,366.963165L-255.945129,366.963165"/>
    <path transform="matrix(-1.000000 0.000000 0.000000 -1.000000 -330.465027 939.337280)" style="stroke:#ff0000;stroke-width:0.05mm;fill:none" d="M-212.205994,256.437317C-212.205994,257.265747,-211.534485,257.937317,-210.705994,257.937317C-209.877563,257.937317,-209.205994,257.265747,-209.205994,256.437317C-209.205994,255.608887,-209.877563,254.937347,-210.705994,254.937347C-211.534485,254.937347,-212.205994,255.608887,-212.205994,256.437317z"/>
    <path transform="matrix(-1.000000 0.000000 0.000000 -1.000000 -330.465027 939.337280)" style="stroke:#ff0000;stroke-width:0.05mm;fill:none" d="M-231.963989,316.635437C-231.963989,317.463898,-231.292419,318.135498,-230.46405,318.135498C-229.63562,318.135498,-228.963989,317.463898,-228.963989,316.635437C-228.963989,315.807007,-229.63562,315.135437,-230.46405,315.135437C-231.292419,315.135437,-231.963989,315.807007,-231.963989,316.635437z"/>
    <path transform="matrix(-1.000000 0.000000 0.000000 -1.000000 -330.465027 939.337280)" style="stroke:#ff0000;stroke-width:0.05mm;fill:none" d="M299.657471,256.437317C299.657471,255.608887,298.985931,254.937347,298.157501,254.937347C297.329071,254.937347,296.657471,255.608887,296.657471,256.437317C296.657471,257.265747,297.329071,257.937317,298.157501,257.937317C298.985931,257.937317,299.657471,257.265747,299.657471,256.437317z"/>
    <path transform="matrix(-1.000000 0.000000 0.000000 -1.000000 -330.465027 939.337280)" style="stroke:#ff0000;stroke-width:0.05mm;fill:none" d="M319.415527,316.635437C319.415527,315.807007,318.743927,315.135437,317.915527,315.135437C317.087097,315.135437,316.415527,315.807007,316.415527,316.635437C316.415527,317.463898,317.087097,318.135498,317.915527,318.135498C318.743927,318.135498,319.415527,317.463898,319.415527,316.635437z"/>
    <path transform="matrix(-1.000000 0.000000 0.000000 -1.000000 -330.465027 939.337280)" style="stroke:#ff0000;stroke-width:0.05mm;fill:none" d="M-208.828918,216.509827L296.280457,216.509827"/>
    <path transform="matrix(-1.000000 0.000000 0.000000 -1.000000 -330.465027 939.337280)" style="stroke:#ff0000;stroke-width:0.05mm;fill:none" d="M-188.189514,235.267242C-189.487976,235.267242,-190.638977,236.10257,-191.041626,237.337006L-204.409424,278.321045L-222.795166,334.690063C-223.427612,336.629089,-221.982544,338.620361,-219.943054,338.620361L-195.688049,338.620361C-194.03125,338.620361,-192.688049,337.277191,-192.688049,335.620331L-192.688049,333.620331C-192.688049,331.96347,-191.34491,330.620361,-189.688049,330.620361L-11.231812,330.620361L-4.755066,330.620361L92.024963,330.620361L98.501709,330.620361L277.139557,330.620361C278.796417,330.620361,280.139526,331.96347,280.139526,333.620331L280.139526,335.620331C280.139526,337.277191,281.482727,338.620361,283.139557,338.620361L307.212982,338.620361C309.252533,338.620361,310.69754,336.629089,310.065155,334.690063L291.679321,278.321045L278.311615,237.337006C277.908966,236.10257,276.757904,235.267242,275.459503,235.267242L254.975769,235.267242C253.841949,235.267242,252.804932,235.906494,252.295593,236.919464C251.786194,237.932434,250.749207,238.571625,249.615387,238.571625L221.975739,238.571625C220.841919,238.571625,219.804962,237.932434,219.295563,236.919464C218.786163,235.906494,217.749207,235.267242,216.615387,235.267242L195.975769,235.267242C194.841949,235.267242,193.804962,235.906494,193.295563,236.919464C192.786163,237.932434,191.749207,238.571625,190.615356,238.571625L162.975769,238.571625C161.841919,238.571625,160.804932,237.932434,160.295532,236.919464C159.786133,235.906494,158.749207,235.267242,157.615417,235.267242L136.975769,235.267242C135.841919,235.267242,134.804993,235.906494,134.295532,236.919464C133.786133,237.932434,132.749207,238.571625,131.615417,238.571625L112.655579,238.571625L103.975769,238.571625C102.84198,238.571625,101.804932,237.932434,101.295593,236.919464C100.786133,235.906494,99.749207,235.267242,98.615417,235.267242L77.975769,235.267242C76.84198,235.267242,75.804993,235.906494,75.295593,236.919464C74.786194,237.932434,73.749207,238.571625,72.615356,238.571625L15.475769,238.571625C14.341919,238.571625,13.304932,237.932434,12.795532,236.919464C12.286133,235.906494,11.249207,235.267242,10.115417,235.267242L-10.524231,235.267242C-11.658081,235.267242,-12.695068,235.906494,-13.204407,236.919464C-13.713867,237.932434,-14.750793,238.571625,-15.884583,238.571625L-25.38562,238.571625L-43.524231,238.571625C-44.658081,238.571625,-45.695068,237.932434,-46.204407,236.919464C-46.713867,235.906494,-47.750732,235.267242,-48.884583,235.267242L-69.524292,235.267242C-70.65802,235.267242,-71.695007,235.906494,-72.204346,236.919464C-72.713806,237.932434,-73.750793,238.571625,-74.884583,238.571625L-102.524231,238.571625C-103.658081,238.571625,-104.695068,237.932434,-105.204407,236.919464C-105.713814,235.906494,-106.750732,235.267242,-107.884644,235.267242L-128.524292,235.267242C-129.658081,235.267242,-130.695007,235.906494,-131.204407,236.919464C-131.713806,237.932434,-132.750793,238.571625,-133.884583,238.571625L-161.524231,238.571625C-162.658142,238.571625,-163.695007,237.932434,-164.204468,236.919464C-164.713806,235.906494,-165.750793,235.267242,-166.884644,235.267242L-188.189514,235.267242z"/>
    <path transform="matrix(-1.000000 0.000000 0.000000 -1.000000 -330.465027 939.337280)" style="stroke:#ff0000;stroke-width:0.05mm;fill:none" d="M276.725739,340.620361C276.725739,342.277191,275.382629,343.620361,273.725769,343.620361L-186.274231,343.620361C-187.931091,343.620361,-189.274231,342.277191,-189.274231,340.620361L-189.274231,336.620361C-189.274231,334.963501,-187.931091,333.620331,-186.274231,333.620331L273.725769,333.620331C275.382629,333.620331,276.725739,334.963501,276.725739,336.620361L276.725739,340.620361z"/>
    <path transform="matrix(-1.019700 0.000000 0.000000 -1.019700 -327.981018 943.696228)" style="stroke:#ff0000;stroke-width:0.05mm;fill:none" d="M128.699463,221.265808L127.400391,223.515778L124.802368,223.515778L123.503304,221.265808L124.802368,219.015778L127.400391,219.015778L128.699463,221.265808z"/>
    <path transform="matrix(-1.019700 0.000000 0.000000 -1.019700 -331.227020 943.696228)" style="stroke:#ff0000;stroke-width:0.05mm;fill:none" d="M-36.051819,221.265808L-37.350891,223.515778L-39.948914,223.515778L-41.247925,221.265808L-39.948914,219.015778L-37.350891,219.015778L-36.051819,221.265808z"/>
    <path transform="matrix(-1.019700 0.000000 0.000000 -1.019700 -334.472015 943.696228)" style="stroke:#ff0000;stroke-width:0.05mm;fill:none" d="M-200.803101,221.265808L-202.102112,223.515778L-204.700195,223.515778L-205.999207,221.265808L-204.700195,219.015778L-202.102112,219.015778L-200.803101,221.265808z"/>
    <path transform="matrix(-1.019700 0.000000 0.000000 -1.019700 -335.344025 946.409241)" style="stroke:#ff0000;stroke-width:0.05mm;fill:none" d="M-245.060425,358.963135L-246.359436,361.213165L-248.95752,361.213165L-250.256531,358.963135L-248.95752,356.713165L-246.359436,356.713165L-245.060425,358.963135z"/>
    <path transform="matrix(-1.019700 0.000000 0.000000 -1.019700 -331.517029 946.409241)" style="stroke:#ff0000;stroke-width:0.05mm;fill:none" d="M-50.804199,358.963135L-52.103271,361.213165L-54.701294,361.213165L-56.000427,358.963135L-54.701294,356.713165L-52.103271,356.713165L-50.804199,358.963135z"/>
    <path transform="matrix(-1.019700 0.000000 0.000000 -1.019700 -327.691010 946.409241)" style="stroke:#ff0000;stroke-width:0.05mm;fill:none" d="M143.451904,358.963135L142.152893,361.213165L139.55481,361.213165L138.255737,358.963135L139.55481,356.713165L142.152893,356.713165L143.451904,358.963135z"/>
    <path transform="matrix(-1.019700 0.000000 0.000000 -1.019700 -323.864014 946.409241)" style="stroke:#ff0000;stroke-width:0.05mm;fill:none" d="M337.708069,358.963135L336.409027,361.213165L333.810944,361.213165L332.511932,358.963135L333.810944,356.713165L336.409027,356.713165L337.708069,358.963135z"/>
    <path transform="matrix(-1.019700 0.000000 0.000000 -1.019700 -324.251007 945.204224)" style="stroke:#ff0000;stroke-width:0.05mm;fill:none" d="M318.048065,297.795227L316.749023,300.045197L314.15097,300.045197L312.851929,297.795227L314.15097,295.545227L316.749023,295.545227L318.048065,297.795227z"/>
    <path transform="matrix(-1.019700 0.000000 0.000000 -1.019700 -324.736023 943.696228)" style="stroke:#ff0000;stroke-width:0.05mm;fill:none" d="M293.450745,221.265808L292.151733,223.515778L289.55365,223.515778L288.254578,221.265808L289.55365,219.015778L292.151733,219.015778L293.450745,221.265808z"/>
    <path transform="matrix(-1.019700 0.000000 0.000000 -1.019700 -334.957031 945.204224)" style="stroke:#ff0000;stroke-width:0.05mm;fill:none" d="M-225.400452,297.795227L-226.699402,300.045197L-229.297546,300.045197L-230.596619,297.795227L-229.297546,295.545227L-226.699402,295.545227L-225.400452,297.795227z"/>
    <path transform="matrix(-1.000000 0.000000 0.000000 -1.000000 -330.465027 939.337280)" style="stroke:#ff0000;stroke-width:0.05mm;fill:none" d="M50.225769,221.265808C50.225769,221.956146,50.785339,222.515808,51.475769,222.515808C52.166138,222.515808,52.725769,221.956146,52.725769,221.265808C52.725769,220.575409,52.166138,220.015747,51.475769,220.015747C50.785339,220.015747,50.225769,220.575409,50.225769,221.265808z"/>
    <path transform="matrix(-1.000000 0.000000 0.000000 -1.000000 -330.465027 939.337280)" style="stroke:#ff0000;stroke-width:0.05mm;fill:none" d="M37.225769,221.265808C37.225769,220.575409,36.666138,220.015747,35.975769,220.015747C35.2854,220.015747,34.725769,220.575409,34.725769,221.265808C34.725769,221.956146,35.2854,222.515808,35.975769,222.515808C36.666138,222.515808,37.225769,221.956146,37.225769,221.265808z"/>
    <circle transform="matrix(-1.000000 0.000000 0.000000 -1.000000 -595.577026 694.540527)" style="stroke:#ff0000;stroke-width:0.05mm;fill:none" r="4.444996"/>
    <path transform="matrix(-1.000000 0.000000 0.000000 -1.000000 -708.408020 613.792236)" style="stroke:#ff0000;stroke-width:0.05mm;fill:none" d="M-114.074043,-85.000793L-114.084099,-90.277512"/>
    <path transform="matrix(-1.000000 0.000000 0.000000 -1.000000 -708.408020 613.792236)" style="stroke:#ff0000;stroke-width:0.05mm;fill:none" d="M-111.774612,-85.054382L-111.769577,-90.277725"/>
    <circle transform="matrix(-1.000000 0.000000 0.000000 -1.000000 -566.041992 694.320557)" style="stroke:#ff0000;stroke-width:0.05mm;fill:none" r="4.444996"/>
    <path transform="matrix(-1.000000 0.000000 0.000000 -0.413166 -678.872742 663.453552)" style="stroke:#ff0000;stroke-width:0.05mm;fill:none" d="M-114.074043,-85.000793L-114.084099,-90.277512"/>
    <path transform="matrix(-1.000000 0.000000 0.000000 -0.401923 -678.872742 664.441345)" style="stroke:#ff0000;stroke-width:0.05mm;fill:none" d="M-111.774612,-85.054382L-111.769577,-90.277725"/>
    <path transform="matrix(-1.000000 0.000000 0.000000 -1.000000 -649.373047 613.850281)" style="stroke:#ff0000;stroke-width:0.05mm;fill:none" d="M-114.074043,-85.000793L-114.084099,-90.277512"/>
    <path transform="matrix(-1.000000 0.000000 0.000000 -1.000000 -649.373047 613.850281)" style="stroke:#ff0000;stroke-width:0.05mm;fill:none" d="M-111.774612,-85.054382L-111.769577,-90.277725"/>
    <circle transform="matrix(-1.000000 0.000000 0.000000 -1.000000 -536.541992 694.598633)" style="stroke:#ff0000;stroke-width:0.05mm;fill:none" r="4.444996"/>
    <path transform="matrix(-1.000000 0.000000 0.000000 -1.000000 -590.433044 613.801758)" style="stroke:#ff0000;stroke-width:0.05mm;fill:none" d="M-114.074043,-85.000793L-114.084099,-90.277512"/>
    <path transform="matrix(-1.000000 0.000000 0.000000 -1.000000 -590.433044 613.801758)" style="stroke:#ff0000;stroke-width:0.05mm;fill:none" d="M-111.774612,-85.054382L-111.769577,-90.277725"/>
    <circle transform="matrix(-1.000000 0.000000 0.000000 -1.000000 -477.602020 694.550049)" style="stroke:#ff0000;stroke-width:0.05mm;fill:none" r="4.444996"/>
    <circle transform="matrix(-1.000000 0.000000 0.000000 -1.000000 -506.987000 694.278442)" style="stroke:#ff0000;stroke-width:0.05mm;fill:none" r="4.444996"/>
    <path transform="matrix(-1.000000 0.000000 0.000000 -0.413166 -619.817749 663.411438)" style="stroke:#ff0000;stroke-width:0.05mm;fill:none" d="M-114.074043,-85.000793L-114.084099,-90.277512"/>
    <path transform="matrix(-1.000000 0.000000 0.000000 -0.401923 -619.817749 664.399231)" style="stroke:#ff0000;stroke-width:0.05mm;fill:none" d="M-111.774612,-85.054382L-111.769577,-90.277725"/>
    <path transform="matrix(-1.000000 0.000000 0.000000 -1.000000 -531.390015 613.678223)" style="stroke:#ff0000;stroke-width:0.05mm;fill:none" d="M-114.074043,-85.000793L-114.084099,-90.277512"/>
    <path transform="matrix(-1.000000 0.000000 0.000000 -1.000000 -531.390015 613.678223)" style="stroke:#ff0000;stroke-width:0.05mm;fill:none" d="M-111.774612,-85.054382L-111.769577,-90.277725"/>
    <circle transform="matrix(-1.000000 0.000000 0.000000 -1.000000 -418.559021 694.426514)" style="stroke:#ff0000;stroke-width:0.05mm;fill:none" r="4.444996"/>
    <path transform="matrix(-1.000000 0.000000 0.000000 -1.000000 -442.888031 613.739990)" style="stroke:#ff0000;stroke-width:0.05mm;fill:none" d="M-114.074043,-85.000793L-114.084099,-90.277512"/>
    <path transform="matrix(-1.000000 0.000000 0.000000 -1.000000 -442.888031 613.739990)" style="stroke:#ff0000;stroke-width:0.05mm;fill:none" d="M-111.774612,-85.054382L-111.769577,-90.277725"/>
    <circle transform="matrix(-1.000000 0.000000 0.000000 -1.000000 -330.057007 694.488220)" style="stroke:#ff0000;stroke-width:0.05mm;fill:none" r="4.444996"/>
    <circle transform="matrix(-1.000000 0.000000 0.000000 -1.000000 -448.091034 694.278442)" style="stroke:#ff0000;stroke-width:0.05mm;fill:none" r="4.444996"/>
    <path transform="matrix(-1.000000 0.000000 0.000000 -0.413166 -560.921021 663.411438)" style="stroke:#ff0000;stroke-width:0.05mm;fill:none" d="M-114.074043,-85.000793L-114.084099,-90.277512"/>
    <path transform="matrix(-1.000000 0.000000 0.000000 -0.401923 -560.921021 664.399231)" style="stroke:#ff0000;stroke-width:0.05mm;fill:none" d="M-111.774612,-85.054382L-111.769577,-90.277725"/>
    <circle transform="matrix(-1.000000 0.000000 0.000000 -1.000000 -389.023010 694.192932)" style="stroke:#ff0000;stroke-width:0.05mm;fill:none" r="4.444996"/>
    <path transform="matrix(-1.000000 0.000000 0.000000 -0.413166 -501.854004 663.325928)" style="stroke:#ff0000;stroke-width:0.05mm;fill:none" d="M-114.074043,-85.000793L-114.084099,-90.277512"/>
    <path transform="matrix(-1.000000 0.000000 0.000000 -0.401923 -501.854004 664.313721)" style="stroke:#ff0000;stroke-width:0.05mm;fill:none" d="M-111.774612,-85.054382L-111.769577,-90.277725"/>
    <circle transform="matrix(-1.000000 0.000000 0.000000 -1.000000 -359.532013 694.278442)" style="stroke:#ff0000;stroke-width:0.05mm;fill:none" r="4.444996"/>
    <path transform="matrix(-1.000000 0.000000 0.000000 -0.413166 -472.363037 663.411438)" style="stroke:#ff0000;stroke-width:0.05mm;fill:none" d="M-114.074043,-85.000793L-114.084099,-90.277512"/>
    <path transform="matrix(-1.000000 0.000000 0.000000 -0.401923 -472.363037 664.399231)" style="stroke:#ff0000;stroke-width:0.05mm;fill:none" d="M-111.774612,-85.054382L-111.769577,-90.277725"/>
    <circle transform="matrix(-1.000000 0.000000 0.000000 -1.000000 -271.014008 694.426514)" style="stroke:#ff0000;stroke-width:0.05mm;fill:none" r="4.444996"/>
    <circle transform="matrix(-1.000000 0.000000 0.000000 -1.000000 -212.090027 694.593811)" style="stroke:#ff0000;stroke-width:0.05mm;fill:none" r="4.444996"/>
    <circle transform="matrix(-1.000000 0.000000 0.000000 -1.000000 -300.550018 694.192932)" style="stroke:#ff0000;stroke-width:0.05mm;fill:none" r="4.444996"/>
    <path transform="matrix(-1.000000 0.000000 0.000000 -0.413166 -413.381012 663.325928)" style="stroke:#ff0000;stroke-width:0.05mm;fill:none" d="M-114.074043,-85.000793L-114.084099,-90.277512"/>
    <path transform="matrix(-1.000000 0.000000 0.000000 -0.401923 -413.381012 664.313721)" style="stroke:#ff0000;stroke-width:0.05mm;fill:none" d="M-111.774612,-85.054382L-111.769577,-90.277725"/>
    <circle transform="matrix(-1.000000 0.000000 0.000000 -1.000000 -241.569031 694.363953)" style="stroke:#ff0000;stroke-width:0.05mm;fill:none" r="4.444996"/>
    <path transform="matrix(-1.000000 0.000000 0.000000 -0.413166 -354.399017 663.496948)" style="stroke:#ff0000;stroke-width:0.05mm;fill:none" d="M-114.074043,-85.000793L-114.084099,-90.277512"/>
    <path transform="matrix(-1.000000 0.000000 0.000000 -0.401923 -354.399017 664.484741)" style="stroke:#ff0000;stroke-width:0.05mm;fill:none" d="M-111.774612,-85.054382L-111.769577,-90.277725"/>
    <circle transform="matrix(-1.000000 0.000000 0.000000 -1.000000 -182.501038 694.278442)" style="stroke:#ff0000;stroke-width:0.05mm;fill:none" r="4.444996"/>
    <path transform="matrix(-1.000000 0.000000 0.000000 -0.413166 -295.332031 663.411438)" style="stroke:#ff0000;stroke-width:0.05mm;fill:none" d="M-114.074043,-85.000793L-114.084099,-90.277512"/>
    <path transform="matrix(-1.000000 0.000000 0.000000 -0.401923 -295.332031 664.399231)" style="stroke:#ff0000;stroke-width:0.05mm;fill:none" d="M-111.774612,-85.054382L-111.769577,-90.277725"/>
    <path transform="matrix(-1.000000 0.000000 0.000000 -1.000000 -383.845032 613.678223)" style="stroke:#ff0000;stroke-width:0.05mm;fill:none" d="M-114.074043,-85.000793L-114.084099,-90.277512"/>
    <path transform="matrix(-1.000000 0.000000 0.000000 -1.000000 -383.845032 613.678223)" style="stroke:#ff0000;stroke-width:0.05mm;fill:none" d="M-111.774612,-85.054382L-111.769577,-90.277725"/>
    <path transform="matrix(-1.000000 0.000000 0.000000 -1.000000 -324.921021 613.845581)" style="stroke:#ff0000;stroke-width:0.05mm;fill:none" d="M-114.074043,-85.000793L-114.084099,-90.277512"/>
    <path transform="matrix(-1.000000 0.000000 0.000000 -1.000000 -324.921021 613.845581)" style="stroke:#ff0000;stroke-width:0.05mm;fill:none" d="M-111.774612,-85.054382L-111.769577,-90.277725"/>
    <path transform="matrix(-1.000000 0.000000 0.000000 -1.000000 -265.851013 613.780334)" style="stroke:#ff0000;stroke-width:0.05mm;fill:none" d="M-114.074043,-85.000793L-114.084099,-90.277512"/>
    <path transform="matrix(-1.000000 0.000000 0.000000 -1.000000 -265.851013 613.780334)" style="stroke:#ff0000;stroke-width:0.05mm;fill:none" d="M-111.774612,-85.054382L-111.769577,-90.277725"/>
    <circle transform="matrix(-1.000000 0.000000 0.000000 -1.000000 -153.020020 694.528625)" style="stroke:#ff0000;stroke-width:0.05mm;fill:none" r="4.444996"/>
    <circle transform="matrix(-1.000000 0.000000 0.000000 1.000000 -595.577026 618.255005)" style="stroke:#ff0000;stroke-width:0.05mm;fill:none" r="4.444996"/>
    <path transform="matrix(-1.000000 0.000000 0.000000 1.000000 -708.407654 699.003357)" style="stroke:#ff0000;stroke-width:0.05mm;fill:none" d="M-114.074043,-85.000793L-114.084099,-90.277512"/>
    <path transform="matrix(-1.000000 0.000000 0.000000 1.000000 -708.407654 699.003357)" style="stroke:#ff0000;stroke-width:0.05mm;fill:none" d="M-111.774612,-85.054382L-111.769577,-90.277725"/>
    <circle transform="matrix(-1.000000 0.000000 0.000000 1.000000 -566.041992 618.474976)" style="stroke:#ff0000;stroke-width:0.05mm;fill:none" r="4.444996"/>
    <path transform="matrix(-1.000000 0.000000 0.000000 1.035380 -678.872314 702.231140)" style="stroke:#ff0000;stroke-width:0.05mm;fill:none" d="M-114.074043,-85.000793L-114.084099,-90.277512"/>
    <path transform="matrix(-1.000000 0.000000 0.000000 1.045830 -678.872314 703.121460)" style="stroke:#ff0000;stroke-width:0.05mm;fill:none" d="M-111.774612,-85.054382L-111.769577,-90.277725"/>
    <path transform="matrix(-1.000000 0.000000 0.000000 1.000000 -649.372620 698.945251)" style="stroke:#ff0000;stroke-width:0.05mm;fill:none" d="M-114.074043,-85.000793L-114.084099,-90.277512"/>
    <path transform="matrix(-1.000000 0.000000 0.000000 1.000000 -649.372620 698.945251)" style="stroke:#ff0000;stroke-width:0.05mm;fill:none" d="M-111.774612,-85.054382L-111.769577,-90.277725"/>
    <circle transform="matrix(-1.000000 0.000000 0.000000 1.000000 -536.541992 618.196899)" style="stroke:#ff0000;stroke-width:0.05mm;fill:none" r="4.444996"/>
    <path transform="matrix(-1.000000 0.000000 0.000000 1.000000 -590.433044 698.993835)" style="stroke:#ff0000;stroke-width:0.05mm;fill:none" d="M-114.074043,-85.000793L-114.084099,-90.277512"/>
    <path transform="matrix(-1.000000 0.000000 0.000000 1.000000 -590.433044 698.993835)" style="stroke:#ff0000;stroke-width:0.05mm;fill:none" d="M-111.774612,-85.054382L-111.769577,-90.277725"/>
    <circle transform="matrix(-1.000000 0.000000 0.000000 1.000000 -477.602020 618.245483)" style="stroke:#ff0000;stroke-width:0.05mm;fill:none" r="4.444996"/>
    <circle transform="matrix(-1.000000 0.000000 0.000000 1.000000 -506.987000 618.517090)" style="stroke:#ff0000;stroke-width:0.05mm;fill:none" r="4.444996"/>
    <path transform="matrix(-1.000000 0.000000 0.000000 1.052690 -619.817322 703.744141)" style="stroke:#ff0000;stroke-width:0.05mm;fill:none" d="M-114.074043,-85.000793L-114.084099,-90.277512"/>
    <path transform="matrix(-1.000000 0.000000 0.000000 1.047980 -619.817322 703.346436)" style="stroke:#ff0000;stroke-width:0.05mm;fill:none" d="M-111.774612,-85.054382L-111.769577,-90.277725"/>
    <path transform="matrix(-1.000000 0.000000 0.000000 1.000000 -531.390015 699.117310)" style="stroke:#ff0000;stroke-width:0.05mm;fill:none" d="M-114.074043,-85.000793L-114.084099,-90.277512"/>
    <path transform="matrix(-1.000000 0.000000 0.000000 1.000000 -531.390015 699.117310)" style="stroke:#ff0000;stroke-width:0.05mm;fill:none" d="M-111.774612,-85.054382L-111.769577,-90.277725"/>
    <circle transform="matrix(-1.000000 0.000000 0.000000 1.000000 -418.559021 618.368958)" style="stroke:#ff0000;stroke-width:0.05mm;fill:none" r="4.444996"/>
    <path transform="matrix(-1.000000 0.000000 0.000000 1.000000 -442.888031 699.055542)" style="stroke:#ff0000;stroke-width:0.05mm;fill:none" d="M-114.074043,-85.000793L-114.084099,-90.277512"/>
    <path transform="matrix(-1.000000 0.000000 0.000000 1.000000 -442.888031 699.055542)" style="stroke:#ff0000;stroke-width:0.05mm;fill:none" d="M-111.774612,-85.054382L-111.769577,-90.277725"/>
    <circle transform="matrix(-1.000000 0.000000 0.000000 1.000000 -330.057007 618.307312)" style="stroke:#ff0000;stroke-width:0.05mm;fill:none" r="4.444996"/>
    <circle transform="matrix(-1.000000 0.000000 0.000000 1.000000 -448.091034 618.517090)" style="stroke:#ff0000;stroke-width:0.05mm;fill:none" r="4.444996"/>
    <path transform="matrix(-1.000000 0.000000 0.000000 1.045250 -560.921021 703.111755)" style="stroke:#ff0000;stroke-width:0.05mm;fill:none" d="M-114.074043,-85.000793L-114.084099,-90.277512"/>
    <path transform="matrix(-1.000000 0.000000 0.000000 1.046980 -560.921021 703.261414)" style="stroke:#ff0000;stroke-width:0.05mm;fill:none" d="M-111.774612,-85.054382L-111.769577,-90.277725"/>
    <circle transform="matrix(-1.000000 0.000000 0.000000 1.000000 -389.023010 618.602600)" style="stroke:#ff0000;stroke-width:0.05mm;fill:none" r="4.444996"/>
    <path transform="matrix(-1.000000 0.000000 0.000000 1.065740 -501.854004 704.938721)" style="stroke:#ff0000;stroke-width:0.05mm;fill:none" d="M-114.074043,-85.000793L-114.084099,-90.277512"/>
    <path transform="matrix(-1.000000 0.000000 0.000000 1.061160 -501.854004 704.553162)" style="stroke:#ff0000;stroke-width:0.05mm;fill:none" d="M-111.774612,-85.054382L-111.769577,-90.277725"/>
    <circle transform="matrix(-1.000000 0.000000 0.000000 1.000000 -359.532013 618.517090)" style="stroke:#ff0000;stroke-width:0.05mm;fill:none" r="4.444996"/>
    <path transform="matrix(-1.000000 0.000000 0.000000 1.045130 -472.363037 703.101746)" style="stroke:#ff0000;stroke-width:0.05mm;fill:none" d="M-114.074043,-85.000793L-114.084099,-90.277512"/>
    <path transform="matrix(-1.000000 0.000000 0.000000 1.040350 -472.363037 702.697144)" style="stroke:#ff0000;stroke-width:0.05mm;fill:none" d="M-111.774612,-85.054382L-111.769577,-90.277725"/>
    <circle transform="matrix(-1.000000 0.000000 0.000000 1.000000 -271.014008 618.368958)" style="stroke:#ff0000;stroke-width:0.05mm;fill:none" r="4.444996"/>
    <circle transform="matrix(-1.000000 0.000000 0.000000 1.000000 -212.090027 618.201660)" style="stroke:#ff0000;stroke-width:0.05mm;fill:none" r="4.444996"/>
    <circle transform="matrix(-1.000000 0.000000 0.000000 1.000000 -300.550018 618.602600)" style="stroke:#ff0000;stroke-width:0.05mm;fill:none" r="4.444996"/>
    <path transform="matrix(-1.000000 0.000000 0.000000 1.067520 -413.381012 705.090027)" style="stroke:#ff0000;stroke-width:0.05mm;fill:none" d="M-114.074043,-85.000793L-114.084099,-90.277512"/>
    <path transform="matrix(-1.000000 0.000000 0.000000 1.068210 -413.381012 705.152344)" style="stroke:#ff0000;stroke-width:0.05mm;fill:none" d="M-111.774612,-85.054382L-111.769577,-90.277725"/>
    <circle transform="matrix(-1.000000 0.000000 0.000000 1.000000 -241.569031 618.431580)" style="stroke:#ff0000;stroke-width:0.05mm;fill:none" r="4.444996"/>
    <path transform="matrix(-1.000000 0.000000 0.000000 1.036360 -354.399017 702.270630)" style="stroke:#ff0000;stroke-width:0.05mm;fill:none" d="M-114.074043,-85.000793L-114.084099,-90.277512"/>
    <path transform="matrix(-1.000000 0.000000 0.000000 1.038900 -354.399017 702.488525)" style="stroke:#ff0000;stroke-width:0.05mm;fill:none" d="M-111.774612,-85.054382L-111.769577,-90.277725"/>
    <circle transform="matrix(-1.000000 0.000000 0.000000 1.000000 -182.501038 618.517090)" style="stroke:#ff0000;stroke-width:0.05mm;fill:none" r="4.444996"/>
    <path transform="matrix(-1.000000 0.000000 0.000000 1.045710 -295.332031 703.150452)" style="stroke:#ff0000;stroke-width:0.05mm;fill:none" d="M-114.074043,-85.000793L-114.084099,-90.277512"/>
    <path transform="matrix(-1.000000 0.000000 0.000000 1.048190 -295.332031 703.363953)" style="stroke:#ff0000;stroke-width:0.05mm;fill:none" d="M-111.774612,-85.054382L-111.769577,-90.277725"/>
    <path transform="matrix(-1.000000 0.000000 0.000000 1.000000 -383.845032 699.117310)" style="stroke:#ff0000;stroke-width:0.05mm;fill:none" d="M-114.074043,-85.000793L-114.084099,-90.277512"/>
    <path transform="matrix(-1.000000 0.000000 0.000000 1.000000 -383.845032 699.117310)" style="stroke:#ff0000;stroke-width:0.05mm;fill:none" d="M-111.774612,-85.054382L-111.769577,-90.277725"/>
    <path transform="matrix(-1.000000 0.000000 0.000000 1.000000 -324.921021 698.949951)" style="stroke:#ff0000;stroke-width:0.05mm;fill:none" d="M-114.074043,-85.000793L-114.084099,-90.277512"/>
    <path transform="matrix(-1.000000 0.000000 0.000000 1.000000 -324.921021 698.949951)" style="stroke:#ff0000;stroke-width:0.05mm;fill:none" d="M-111.774612,-85.054382L-111.769577,-90.277725"/>
    <path transform="matrix(-1.000000 0.000000 0.000000 1.000000 -265.851013 699.015259)" style="stroke:#ff0000;stroke-width:0.05mm;fill:none" d="M-114.074043,-85.000793L-114.084099,-90.277512"/>
    <path transform="matrix(-1.000000 0.000000 0.000000 1.000000 -265.851013 699.015259)" style="stroke:#ff0000;stroke-width:0.05mm;fill:none" d="M-111.774612,-85.054382L-111.769577,-90.277725"/>
    <circle transform="matrix(-1.000000 0.000000 0.000000 1.000000 -153.020020 618.266907)" style="stroke:#ff0000;stroke-width:0.05mm;fill:none" r="4.444996"/>
    <path transform="translate(-1298.966064 160.441864)" style="stroke:#ff0000;stroke-width:0.05mm;fill:none" d="M1113.711792,-133.337769C1111.123779,-132.374756,1109.806396,-129.496033,1110.769409,-126.907959C1111.732422,-124.319893,1114.611084,-123.002563,1117.199219,-123.965523C1119.787231,-124.928528,1121.104614,-127.80719,1120.141602,-130.395264C1119.178711,-132.983337,1116.299927,-134.30072,1113.711792,-133.337769z"/>
    <path transform="translate(-1298.966064 160.441864)" style="stroke:#ff0000;stroke-width:0.05mm;fill:none" d="M1141.711914,-133.337769C1139.123779,-132.374756,1137.806396,-129.496033,1138.769409,-126.907959C1139.732422,-124.319893,1142.611084,-123.002563,1145.199219,-123.965523C1147.787231,-124.928528,1149.104614,-127.80719,1148.141602,-130.395264C1147.178711,-132.983337,1144.299927,-134.30072,1141.711914,-133.337769z"/>
    <path transform="translate(-1298.966064 160.441864)" style="stroke:#ff0000;stroke-width:0.05mm;fill:none" d="M1169.711914,-133.337769C1167.123779,-132.374756,1165.806396,-129.496033,1166.769409,-126.907959C1167.732422,-124.319893,1170.611084,-123.002563,1173.199219,-123.965523C1175.787354,-124.928528,1177.104614,-127.80719,1176.141602,-130.395264C1175.178589,-132.983337,1172.299927,-134.30072,1169.711914,-133.337769z"/>
    <path transform="translate(-1298.966064 160.441864)" style="stroke:#ff0000;stroke-width:0.05mm;fill:none" d="M1197.711792,-133.337769C1195.123779,-132.374756,1193.806396,-129.496033,1194.769409,-126.907959C1195.732422,-124.319893,1198.611084,-123.002563,1201.199219,-123.965523C1203.787231,-124.928528,1205.104614,-127.80719,1204.141602,-130.395264C1203.178589,-132.983337,1200.299927,-134.30072,1197.711792,-133.337769z"/>
    <path transform="matrix(1.019700 0.000000 0.000000 1.019700 -1322.576050 163.535858)" style="stroke:#ff0000;stroke-width:0.05mm;fill:none" d="M1197.782104,-154.506714L1200.217041,-155.41272L1200.649902,-157.974487L1198.647705,-159.630188L1196.212891,-158.724182L1195.779907,-156.162415L1197.782104,-154.506714z"/>
    <path transform="matrix(1.019700 0.000000 0.000000 1.019700 -1322.426025 162.728867)" style="stroke:#ff0000;stroke-width:0.05mm;fill:none" d="M1190.311768,-113.541748L1192.746826,-114.447807L1193.179565,-117.009583L1191.177368,-118.665283L1188.742432,-117.759216L1188.30957,-115.19751L1190.311768,-113.541748z"/>
    <path transform="matrix(1.019700 0.000000 0.000000 1.019700 -1319.646973 163.535858)" style="stroke:#ff0000;stroke-width:0.05mm;fill:none" d="M1049.650024,-154.506714L1052.084961,-155.41272L1052.517822,-157.974487L1050.515747,-159.630188L1048.080811,-158.724182L1047.647949,-156.162415L1049.650024,-154.506714z"/>
    <path transform="matrix(1.019700 0.000000 0.000000 1.019700 -1319.566040 162.728867)" style="stroke:#ff0000;stroke-width:0.05mm;fill:none" d="M1045.286255,-113.541748L1047.721191,-114.447807L1048.154053,-117.009583L1046.151855,-118.665283L1043.716919,-117.759216L1043.28418,-115.19751L1045.286255,-113.541748z"/>
    <path transform="translate(-1298.966064 160.441864)" style="stroke:#ff0000;stroke-width:0.05mm;fill:none" d="M1087.351563,-133.650574L1087.351563,-151.588928L1052.632324,-151.883484L1043.881104,-143.932922L878.969482,-143.932922L849.975708,-143.932922L848.013367,-149.206543L1032.141602,-149.206543C1032.959473,-149.206543,1033.560669,-149.439758,1034.164551,-149.991211L1046.255615,-161.032471C1046.859497,-161.583984,1047.460693,-161.8172,1048.278564,-161.8172L1199.474854,-161.8172C1200.533813,-161.8172,1201.514282,-161.258972,1202.054688,-160.348328L1219.373535,-131.167419C1220.204224,-129.767883,1219.767456,-127.961304,1218.38916,-127.095757L1193.069458,-111.194458C1192.564941,-110.877502,1192.069824,-110.734917,1191.473999,-110.734917L1044.881104,-110.734917C1044.36377,-110.734917,1043.91626,-110.847603,1043.460571,-111.092529L1011.461487,-128.294006C1011.00592,-128.539001,1010.558472,-128.651611,1010.041077,-128.651611L855.661743,-128.651611L853.699463,-133.925232L1021.83667,-133.925232L1046.796143,-120.508003L1087.351563,-120.16394L1087.351563,-123.652649C1090.153076,-123.594597,1092.455566,-125.849426,1092.455566,-128.651611C1092.455566,-131.453735,1090.153076,-133.708801,1087.351563,-133.650574z"/>
    <path transform="translate(-1916.617065 135.006958)" style="stroke:#ff0000;stroke-width:0.05mm;fill:none" d="M1262.747437,-169.582275C1262.747437,-168.698608,1262.031128,-167.9823,1261.147461,-167.9823C1260.263794,-167.9823,1259.547363,-168.698608,1259.547363,-169.582275C1259.547363,-170.465942,1260.263794,-171.182312,1261.147461,-171.182312C1262.031128,-171.182312,1262.747437,-170.465942,1262.747437,-169.582275z"/>
    <path transform="translate(-1916.617065 135.006958)" style="stroke:#ff0000;stroke-width:0.05mm;fill:none" d="M1400.209229,-210.54718C1400.209229,-211.430847,1400.925537,-212.147217,1401.809082,-212.147217C1402.692871,-212.147217,1403.40918,-211.430847,1403.40918,-210.54718C1403.40918,-209.663513,1402.692871,-208.947205,1401.809082,-208.947205C1400.925537,-208.947205,1400.209229,-209.663513,1400.209229,-210.54718z"/>
    <path transform="translate(-1916.617065 135.006958)" style="stroke:#ff0000;stroke-width:0.05mm;fill:none" d="M1255.2771,-210.54718C1255.2771,-209.663513,1254.560791,-208.947205,1253.677002,-208.947205C1252.793457,-208.947205,1252.077148,-209.663513,1252.077148,-210.54718C1252.077148,-211.430847,1252.793457,-212.147217,1253.677002,-212.147217C1254.560791,-212.147217,1255.2771,-211.430847,1255.2771,-210.54718z"/>
    <path transform="translate(-1916.617065 135.006958)" style="stroke:#ff0000;stroke-width:0.05mm;fill:none" d="M1404.572998,-169.582275C1404.572998,-170.465942,1405.289307,-171.182312,1406.172852,-171.182312C1407.056641,-171.182312,1407.772949,-170.465942,1407.772949,-169.582275C1407.772949,-168.698608,1407.056641,-167.9823,1406.172852,-167.9823C1405.289307,-167.9823,1404.572998,-168.698608,1404.572998,-169.582275z"/>
    <path transform="translate(-1916.617065 135.006958)" style="stroke:#ff0000;stroke-width:0.05mm;fill:none" d="M1408.431396,-164.57135L1440.430542,-181.772827C1440.88623,-182.017761,1441.33374,-182.130432,1441.850952,-182.130432L1596.230225,-182.130432L1603.878662,-202.685303L1419.750366,-202.685303C1418.932495,-202.685303,1418.331299,-202.918518,1417.727417,-203.470032L1405.636475,-214.511292C1405.032471,-215.062744,1404.431396,-215.295959,1403.613525,-215.295959L1252.417114,-215.295959C1251.358154,-215.295959,1250.377686,-214.737732,1249.837158,-213.827087L1232.518433,-184.646179C1231.687744,-183.246643,1232.124512,-181.440063,1233.502686,-180.574524L1258.82251,-164.673218C1259.327148,-164.356323,1259.822266,-164.213745,1260.418091,-164.213745L1407.010986,-164.213745C1407.52832,-164.213745,1407.975708,-164.326355,1408.431396,-164.57135z"/>
    <path transform="matrix(-1.019700 0.000000 0.000000 1.019700 1180.625977 109.067261)" style="stroke:#ff0000;stroke-width:0.05mm;fill:none" d="M1406.605713,-113.541748L1404.170776,-114.447807L1403.737915,-117.009583L1405.740112,-118.665283L1408.175049,-117.759216L1408.60791,-115.19751L1406.605713,-113.541748z"/>
    <path transform="matrix(-1.019700 0.000000 0.000000 1.019700 1180.536011 109.874268)" style="stroke:#ff0000;stroke-width:0.05mm;fill:none" d="M1402.241943,-154.506714L1399.807007,-155.41272L1399.374146,-157.974487L1401.376343,-159.630188L1403.811279,-158.724182L1404.244141,-156.162415L1402.241943,-154.506714z"/>
    <path transform="matrix(-1.019700 0.000000 0.000000 1.019700 1177.765991 109.067261)" style="stroke:#ff0000;stroke-width:0.05mm;fill:none" d="M1261.580322,-113.541748L1259.145264,-114.447807L1258.712402,-117.009583L1260.7146,-118.665283L1263.149536,-117.759216L1263.582397,-115.19751L1261.580322,-113.541748z"/>
    <path transform="matrix(-1.019700 0.000000 0.000000 1.019700 1177.625977 109.874268)" style="stroke:#ff0000;stroke-width:0.05mm;fill:none" d="M1254.109863,-154.506714L1251.674927,-155.41272L1251.242188,-157.974487L1253.244141,-159.630188L1255.679199,-158.724182L1256.112061,-156.162415L1254.109863,-154.506714z"/>
    <path transform="matrix(-1.000000 0.000000 0.000000 1.000000 1152.926025 106.780243)" style="stroke:#ff0000;stroke-width:0.05mm;fill:none" d="M1254.180176,-133.337769C1256.768311,-132.374756,1258.085693,-129.496033,1257.122559,-126.907959C1256.159668,-124.319893,1253.281006,-123.002563,1250.692871,-123.965523C1248.104736,-124.928528,1246.787354,-127.80719,1247.750488,-130.395264C1248.713379,-132.983337,1251.592041,-134.30072,1254.180176,-133.337769z"/>
    <path transform="matrix(-1.000000 0.000000 0.000000 1.000000 1152.926025 106.780243)" style="stroke:#ff0000;stroke-width:0.05mm;fill:none" d="M1282.180176,-133.337769C1284.768311,-132.374756,1286.085571,-129.496033,1285.122559,-126.907959C1284.159668,-124.319893,1281.280884,-123.002563,1278.692871,-123.965523C1276.104736,-124.928528,1274.787354,-127.80719,1275.750366,-130.395264C1276.713379,-132.983337,1279.592041,-134.30072,1282.180176,-133.337769z"/>
    <path transform="matrix(-1.000000 0.000000 0.000000 1.000000 1152.926025 106.780243)" style="stroke:#ff0000;stroke-width:0.05mm;fill:none" d="M1310.180176,-133.337769C1312.768311,-132.374756,1314.085693,-129.496033,1313.122559,-126.907959C1312.159668,-124.319893,1309.280884,-123.002563,1306.692871,-123.965523C1304.104736,-124.928528,1302.787354,-127.80719,1303.750488,-130.395264C1304.713379,-132.983337,1307.592041,-134.30072,1310.180176,-133.337769z"/>
    <path transform="matrix(-1.000000 0.000000 0.000000 1.000000 1152.926025 106.780243)" style="stroke:#ff0000;stroke-width:0.05mm;fill:none" d="M1338.180176,-133.337769C1340.768311,-132.374756,1342.085693,-129.496033,1341.122559,-126.907959C1340.159668,-124.319893,1337.280884,-123.002563,1334.692871,-123.965523C1332.104736,-124.928528,1330.787354,-127.80719,1331.750366,-130.395264C1332.713379,-132.983337,1335.592041,-134.30072,1338.180176,-133.337769z"/>
    <path transform="matrix(-1.000000 0.000000 0.000000 1.000000 1152.926025 106.780243)" style="stroke:#ff0000;stroke-width:0.05mm;fill:none" d="M1364.540527,-133.650574L1364.540527,-151.588928L1399.259766,-151.883484L1408.010986,-143.932922L1572.922607,-143.932922L1601.916382,-143.932922L1603.878662,-149.206543L1419.750366,-149.206543C1418.932495,-149.206543,1418.331299,-149.439758,1417.727417,-149.991211L1405.636475,-161.032471C1405.032471,-161.583984,1404.431396,-161.8172,1403.613525,-161.8172L1252.417114,-161.8172C1251.358154,-161.8172,1250.377686,-161.258972,1249.837158,-160.348328L1232.518433,-131.167419C1231.687744,-129.767883,1232.124512,-127.961304,1233.502686,-127.095757L1258.82251,-111.194458C1259.327148,-110.877502,1259.822266,-110.734917,1260.418091,-110.734917L1407.010986,-110.734917C1407.52832,-110.734917,1407.975708,-110.847603,1408.431396,-111.092529L1440.430542,-128.294006C1440.88623,-128.539001,1441.33374,-128.651611,1441.850952,-128.651611L1596.230225,-128.651611L1598.192627,-133.925232L1430.055298,-133.925232L1405.095825,-120.508003L1364.540527,-120.16394L1364.540283,-123.652649C1361.738892,-123.594597,1359.436523,-125.849426,1359.436523,-128.651611C1359.436523,-131.453735,1361.739014,-133.708801,1364.540527,-133.650574z"/>
    <path transform="matrix(-1.000000 0.000000 0.000000 -1.000000 -334.321442 1271.281250)" style="stroke:#ff0000;stroke-width:0.05mm;fill:none" d="M-255.945129,1047.324097C-257.98468,1047.324097,-259.429626,1045.332764,-258.79718,1043.393799L-231.166931,958.681946"/>
    <path transform="matrix(-1.000000 0.000000 0.000000 -1.000000 -334.321442 1271.281250)" style="stroke:#ff0000;stroke-width:0.05mm;fill:none" d="M-231.166931,958.681946L-211.681152,898.94043C-211.278503,897.706055,-210.12738,896.870789,-208.828918,896.870789"/>
    <path transform="matrix(-1.000000 0.000000 0.000000 -1.000000 -334.321442 1271.281250)" style="stroke:#ff0000;stroke-width:0.05mm;fill:none" d="M318.618408,958.681946L346.248718,1043.393799C346.881165,1045.332764,345.436127,1047.324097,343.396606,1047.324097"/>
    <path transform="matrix(-1.000000 0.000000 0.000000 -1.000000 -334.321442 1271.281250)" style="stroke:#ff0000;stroke-width:0.05mm;fill:none" d="M296.280457,896.870789C297.578918,896.870789,298.72995,897.706055,299.132599,898.94043L318.618408,958.681946"/>
    <path transform="matrix(-1.000000 0.000000 0.000000 -1.000000 -334.321442 1271.281250)" style="stroke:#ff0000;stroke-width:0.05mm;fill:none" d="M343.396606,1047.324097L-255.945129,1047.324097"/>
    <path transform="matrix(-1.000000 0.000000 0.000000 -1.000000 -334.321442 1271.281250)" style="stroke:#ff0000;stroke-width:0.05mm;fill:none" d="M-208.828918,896.870789L296.280457,896.870789"/>
    <path transform="matrix(-1.000000 0.000000 0.000000 -1.000000 -334.321442 1271.281250)" style="stroke:#ff0000;stroke-width:0.05mm;fill:none" d="M-212.205994,936.798218C-212.205994,937.626648,-211.534485,938.298218,-210.705994,938.298218C-209.877563,938.298218,-209.205994,937.626648,-209.205994,936.798218C-209.205994,935.969849,-209.877563,935.298218,-210.705994,935.298218C-211.534485,935.298218,-212.205994,935.969849,-212.205994,936.798218z"/>
    <path transform="matrix(-1.000000 0.000000 0.000000 -1.000000 -334.321442 1271.281250)" style="stroke:#ff0000;stroke-width:0.05mm;fill:none" d="M-231.963989,996.996338C-231.963989,997.824768,-231.292419,998.496338,-230.46405,998.496338C-229.63562,998.496338,-228.963989,997.824768,-228.963989,996.996338C-228.963989,996.167969,-229.63562,995.496338,-230.46405,995.496338C-231.292419,995.496338,-231.963989,996.167969,-231.963989,996.996338z"/>
    <path transform="matrix(-1.000000 0.000000 0.000000 -1.000000 -334.321442 1271.281250)" style="stroke:#ff0000;stroke-width:0.05mm;fill:none" d="M299.657471,936.798218C299.657471,935.969849,298.985931,935.298218,298.157501,935.298218C297.329071,935.298218,296.657471,935.969849,296.657471,936.798218C296.657471,937.626648,297.329071,938.298218,298.157501,938.298218C298.985931,938.298218,299.657471,937.626648,299.657471,936.798218z"/>
    <path transform="matrix(-1.000000 0.000000 0.000000 -1.000000 -334.321442 1271.281250)" style="stroke:#ff0000;stroke-width:0.05mm;fill:none" d="M319.415527,996.996338C319.415527,996.167969,318.743927,995.496338,317.915527,995.496338C317.087097,995.496338,316.415527,996.167969,316.415527,996.996338C316.415527,997.824768,317.087097,998.496338,317.915527,998.496338C318.743927,998.496338,319.415527,997.824768,319.415527,996.996338z"/>
    <path transform="matrix(-1.000000 0.000000 0.000000 -1.000000 -334.321442 1271.281250)" style="stroke:#ff0000;stroke-width:0.05mm;fill:none" d="M336.609985,1039.324097C336.609985,1038.495605,335.938416,1037.823975,335.109985,1037.823975C334.281525,1037.823975,333.610016,1038.495605,333.610016,1039.324097C333.610016,1040.152588,334.281525,1040.823975,335.109985,1040.823975C335.938416,1040.823975,336.609985,1040.152588,336.609985,1039.324097z"/>
    <path transform="matrix(-1.000000 0.000000 0.000000 -1.000000 -334.321442 1271.281250)" style="stroke:#ff0000;stroke-width:0.05mm;fill:none" d="M142.353821,1039.324097C142.353821,1038.495605,141.682251,1037.823975,140.853821,1037.823975C140.025391,1037.823975,139.353882,1038.495605,139.353882,1039.324097C139.353882,1040.152588,140.025391,1040.823975,140.853821,1040.823975C141.682251,1040.823975,142.353821,1040.152588,142.353821,1039.324097z"/>
    <path transform="matrix(-1.000000 0.000000 0.000000 -1.000000 -334.321442 1271.281250)" style="stroke:#ff0000;stroke-width:0.05mm;fill:none" d="M316.949982,978.156128C316.949982,977.327759,316.278412,976.656128,315.450012,976.656128C314.621582,976.656128,313.950012,977.327759,313.950012,978.156128C313.950012,978.984558,314.621582,979.656128,315.450012,979.656128C316.278412,979.656128,316.949982,978.984558,316.949982,978.156128z"/>
    <path transform="matrix(-1.000000 0.000000 0.000000 -1.000000 -334.321442 1271.281250)" style="stroke:#ff0000;stroke-width:0.05mm;fill:none" d="M292.352661,901.626709C292.352661,900.798279,291.681091,900.126709,290.852661,900.126709C290.024261,900.126709,289.352661,900.798279,289.352661,901.626709C289.352661,902.455139,290.024261,903.126709,290.852661,903.126709C291.681091,903.126709,292.352661,902.455139,292.352661,901.626709z"/>
    <path transform="matrix(-1.000000 0.000000 0.000000 -1.000000 -334.321442 1271.281250)" style="stroke:#ff0000;stroke-width:0.05mm;fill:none" d="M-51.902344,1039.324097C-51.902344,1038.495605,-52.573853,1037.823975,-53.402344,1037.823975C-54.230713,1037.823975,-54.902344,1038.495605,-54.902344,1039.324097C-54.902344,1040.152588,-54.230713,1040.823975,-53.402344,1040.823975C-52.573853,1040.823975,-51.902344,1040.152588,-51.902344,1039.324097z"/>
    <path transform="matrix(-1.000000 0.000000 0.000000 -1.000000 -334.321442 1271.281250)" style="stroke:#ff0000;stroke-width:0.05mm;fill:none" d="M127.601379,901.626709C127.601379,900.798279,126.92981,900.126709,126.101379,900.126709C125.272949,900.126709,124.601379,900.798279,124.601379,901.626709C124.601379,902.455139,125.272949,903.126709,126.101379,903.126709C126.92981,903.126709,127.601379,902.455139,127.601379,901.626709z"/>
    <path transform="matrix(-1.000000 0.000000 0.000000 -1.000000 -334.321442 1271.281250)" style="stroke:#ff0000;stroke-width:0.05mm;fill:none" d="M-246.158447,1039.324097C-246.158447,1038.495605,-246.830078,1037.823975,-247.658447,1037.823975C-248.486877,1037.823975,-249.158508,1038.495605,-249.158508,1039.324097C-249.158508,1040.152588,-248.486877,1040.823975,-247.658447,1040.823975C-246.830078,1040.823975,-246.158447,1040.152588,-246.158447,1039.324097z"/>
    <path transform="matrix(-1.000000 0.000000 0.000000 -1.000000 -334.321442 1271.281250)" style="stroke:#ff0000;stroke-width:0.05mm;fill:none" d="M-226.498474,978.156128C-226.498474,977.327759,-227.170044,976.656128,-227.998474,976.656128C-228.826965,976.656128,-229.498474,977.327759,-229.498474,978.156128C-229.498474,978.984558,-228.826965,979.656128,-227.998474,979.656128C-227.170044,979.656128,-226.498474,978.984558,-226.498474,978.156128z"/>
    <path transform="matrix(-1.000000 0.000000 0.000000 -1.000000 -334.321442 1271.281250)" style="stroke:#ff0000;stroke-width:0.05mm;fill:none" d="M-37.149841,901.626709C-37.149841,900.798279,-37.821472,900.126709,-38.649902,900.126709C-39.478271,900.126709,-40.149902,900.798279,-40.149902,901.626709C-40.149902,902.455139,-39.478271,903.126709,-38.649902,903.126709C-37.821472,903.126709,-37.149841,902.455139,-37.149841,901.626709z"/>
    <path transform="matrix(-1.000000 0.000000 0.000000 -1.000000 -334.321442 1271.281250)" style="stroke:#ff0000;stroke-width:0.05mm;fill:none" d="M-201.901184,901.626709C-201.901184,900.798279,-202.572754,900.126709,-203.401184,900.126709C-204.229553,900.126709,-204.901184,900.798279,-204.901184,901.626709C-204.901184,902.455139,-204.229553,903.126709,-203.401184,903.126709C-202.572754,903.126709,-201.901184,902.455139,-201.901184,901.626709z"/>
    <path transform="matrix(-1.000000 0.000000 0.000000 -1.000000 -334.321442 1271.281250)" style="stroke:#ff0000;stroke-width:0.05mm;fill:none" d="M37.225769,901.626709C37.225769,900.93634,36.666138,900.376709,35.975769,900.376709C35.2854,900.376709,34.725769,900.93634,34.725769,901.626709C34.725769,902.317017,35.2854,902.876709,35.975769,902.876709C36.666138,902.876709,37.225769,902.317017,37.225769,901.626709z"/>
    <path transform="matrix(-1.000000 0.000000 0.000000 -1.000000 -334.321442 1271.281250)" style="stroke:#ff0000;stroke-width:0.05mm;fill:none" d="M50.225769,901.626709C50.225769,902.317017,50.785339,902.876709,51.475769,902.876709C52.166138,902.876709,52.725769,902.317017,52.725769,901.626709C52.725769,900.93634,52.166138,900.376709,51.475769,900.376709C50.785339,900.376709,50.225769,900.93634,50.225769,901.626709z"/>
    <path transform="matrix(-1.633800 0.000000 0.000000 -8.481340 -306.756439 8752.890625)" style="stroke:#ff0000;stroke-width:0.05mm;fill:none" d="M40.459961,999.036255C40.459961,999.588623,40.907654,1000.036316,41.460022,1000.036316L45.809998,1000.036316C46.362244,1000.036316,46.809998,999.588623,46.809998,999.036255L46.809998,996.998779C46.809998,996.446533,46.362244,995.99884,45.809998,995.99884L41.460022,995.99884C40.907654,995.99884,40.459961,996.446533,40.459961,996.998779L40.459961,999.036255z"/>
    <path transform="matrix(1.000000 0.000000 0.000000 -1.000000 -512.047058 55.470261)" style="stroke:#ff0000;stroke-width:0.05mm;fill:none" d="M-58.238617,-45.978271L-58.25412,-46.285004L-58.25412,-139.329681L-58.238617,-139.636414L-58.193146,-139.934296L-58.119232,-140.221771L-58.018341,-140.497406L-57.892029,-140.759674L-57.74176,-141.007019L-57.569061,-141.237946L-57.375458,-141.451019L-57.162384,-141.644623L-56.931488,-141.817322L-56.684113,-141.96759L-56.421875,-142.093903L-56.14624,-142.194794L-55.858734,-142.268707L-55.560852,-142.314178L-55.25412,-142.329681L-40.654083,-142.329681L-40.650726,-132.814056L-35.055328,-132.833038L-35.054108,-142.329681L62.956535,-142.329681L60.50531,-134.861115L80.149597,-134.861115L80.149597,-110.951622L52.657768,-110.951622L48.77179,-99.111969L-11.539734,-99.111969L-14.739777,-95.911957L-14.739777,-71.195709L-17.939728,-67.995697L-35.054108,-67.995697L-35.054596,-77.914154L-40.189056,-77.914398L-40.849701,-77.913605L-46.654572,-77.914398L-46.65451,-47.532623L-35.053986,-47.532501L-35.054108,-55.233978L-11.539734,-55.233978L-8.339722,-58.433922L18.460258,-58.433922L21.660278,-61.633945L21.660278,-85.233978L24.860291,-88.433929L45.267151,-88.433929L40.747246,-74.663055L68.239128,-74.663055L60.391541,-50.753502L32.899719,-50.753502L30.448479,-43.285004L-55.25412,-43.285004L-55.560852,-43.300507L-55.858734,-43.345947L-56.14624,-43.419891L-56.421875,-43.520752L-56.684113,-43.647064L-56.931488,-43.797333L-57.162384,-43.970062L-57.375458,-44.163666L-57.569061,-44.376732L-57.74176,-44.607666L-57.892029,-44.855011L-58.018341,-45.117271L-58.119232,-45.392883L-58.193146,-45.680382L-58.238617,-45.978271z"/>
    <path transform="matrix(1.000000 0.000000 0.000000 -1.000000 -512.047058 55.470261)" style="stroke:#ff0000;stroke-width:0.05mm;fill:none" d="M50.755028,-64.090363L50.47345,-64.177765L50.171143,-64.208221L49.868797,-64.177765L49.587219,-64.090363L49.332397,-63.952053L49.110413,-63.768887L48.927277,-63.546906L48.788971,-63.292114L48.701538,-63.010525L48.671082,-62.708225L48.701538,-62.405914L48.788971,-62.124355L48.927277,-61.869534L49.110413,-61.647556L49.332397,-61.464386L49.587219,-61.326103L49.868797,-61.238705L50.171143,-61.208225L50.47345,-61.238705L50.755028,-61.326103L51.009789,-61.464386L51.231781,-61.647556L51.414948,-61.869534L51.553223,-62.124355L51.640617,-62.405914L51.671082,-62.708225L51.640617,-63.010525L51.553223,-63.292114L51.414948,-63.546906L51.231781,-63.768887L51.009789,-63.952053L50.755028,-64.090363z"/>
    <path transform="matrix(1.000000 0.000000 0.000000 -1.000000 -512.047058 55.470261)" style="stroke:#ff0000;stroke-width:0.05mm;fill:none" d="M70.989807,-123.967072L70.767822,-124.150238L70.513031,-124.288513L70.231438,-124.375923L69.929138,-124.406403L69.626831,-124.375923L69.345238,-124.288513L69.090446,-124.150238L68.868469,-123.967072L68.685326,-123.745087L68.547028,-123.490257L68.459587,-123.208702L68.429138,-122.906403L68.459587,-122.604103L68.547028,-122.322533L68.685326,-122.067719L68.868469,-121.845703L69.090446,-121.662537L69.345238,-121.524231L69.626831,-121.436829L69.929138,-121.406342L70.231438,-121.436829L70.513031,-121.524231L70.767822,-121.662537L70.989807,-121.845703L71.172943,-122.067719L71.311249,-122.322533L71.398682,-122.604103L71.429138,-122.906403L71.398682,-123.208702L71.311249,-123.490257L71.172943,-123.745087L70.989807,-123.967072z"/>
    <path transform="matrix(1.000000 0.000000 0.000000 -1.000000 -512.047058 55.470261)" style="stroke:#ff0000;stroke-width:0.05mm;fill:none" d="M-38.357971,-87.18808L-38.597565,-87.126465L-38.82724,-87.042389L-39.251862,-86.81189L-39.621887,-86.506622L-39.927155,-86.136627L-40.157654,-85.711945L-40.24173,-85.482269L-40.303314,-85.242676L-40.341217,-84.994476L-40.354126,-84.738861L-40.341217,-84.483246L-40.303314,-84.235016L-40.24173,-83.995422L-40.157654,-83.765747L-39.927155,-83.341095L-39.621887,-82.9711L-39.251862,-82.665802L-38.82724,-82.435333L-38.597565,-82.351257L-38.357971,-82.289642L-38.109711,-82.25177L-37.854126,-82.238861L-37.598541,-82.25177L-37.350281,-82.289642L-37.110687,-82.351257L-36.881012,-82.435333L-36.45639,-82.665802L-36.086365,-82.9711L-35.781097,-83.341095L-35.550568,-83.765747L-35.466492,-83.995422L-35.404877,-84.235016L-35.366974,-84.483246L-35.354095,-84.738861L-35.366974,-84.994476L-35.404877,-85.242676L-35.466492,-85.482269L-35.550568,-85.711945L-35.781097,-86.136627L-36.086365,-86.506622L-36.45639,-86.81189L-36.881012,-87.042389L-37.110687,-87.126465L-37.350281,-87.18808L-37.598541,-87.225952L-37.854126,-87.238861L-38.109711,-87.225952L-38.357971,-87.18808z"/>
    <path transform="matrix(1.000000 0.000000 0.000000 -1.000000 -512.047058 55.470261)" style="stroke:#ff0000;stroke-width:0.05mm;fill:none" d="M81.448212,-142.792145L81.62088,-142.561188L81.771179,-142.313843L81.897491,-142.051605L81.998352,-141.77597L82.072289,-141.488495L82.117767,-141.190613L82.13324,-140.883881L82.13324,-133.883881L82.121262,-123.427063L92.499939,-123.427063L92.499939,-72.418915L71.329773,-42.953583L71.144867,-42.510223L70.896851,-42.109406L70.592743,-41.756226L70.239624,-41.455803L69.844505,-41.213257L69.414429,-41.033669L68.956482,-40.922173L68.477661,-40.883873L37.957146,-40.883873L-0.748291,-40.883873L-99.479767,-40.883873L-100.250031,-40.883873L-100.250031,-80.495209L-100.250031,-91.173248L-100.250031,-130.883881L-100.250031,-133.883881L-108.399261,-133.883881L-108.399261,-143.88382L-90.250031,-143.88382L-90.250031,-130.883881L-60.115112,-130.883881L-60.115112,-143.88382L-0.748291,-143.88382L37.957146,-143.88382L79.133179,-143.88382L79.439941,-143.868317L79.737823,-143.822876L80.02533,-143.748932L80.300934,-143.648071L80.563202,-143.521759L80.810577,-143.37149L81.041473,-143.198792L81.254547,-143.005157L81.448212,-142.792145z"/>
    <path transform="matrix(1.000000 0.000000 0.000000 -1.000000 -512.047058 55.470261)" style="stroke:#ff0000;stroke-width:0.05mm;fill:none" d="M173.999924,-123.41246L133.999939,-123.418907L93.999954,-123.41246L93.999939,-72.418915L102.690178,-42.953583L102.875061,-42.510223L103.123077,-42.109406L103.427147,-41.756226L103.780273,-41.455803L104.175377,-41.213257L104.605469,-41.033669L105.063408,-40.922173L105.542229,-40.883873L133.999939,-40.883873L162.457642,-40.883873L162.936462,-40.922173L163.394409,-41.033669L163.824493,-41.213257L164.219604,-41.455803L164.572723,-41.756226L164.876801,-42.109406L165.124817,-42.510223L165.309692,-42.953583L173.999939,-72.418915L173.999924,-123.41246z"/>
    <path transform="matrix(1.000000 0.000000 0.000000 -1.000000 -512.047058 55.470261)" style="stroke:#ff0000;stroke-width:0.05mm;fill:none" d="M-119.921661,-17.102722L-119.491547,-16.923126L-119.033539,-16.811646L-118.554718,-16.773346L126.999939,-16.773346L127.201477,-16.793663L127.389191,-16.851921L127.559052,-16.944122L127.707062,-17.066223L127.829193,-17.214203L127.921417,-17.384064L127.979668,-17.571747L128,-17.773285L128,-17.779266L128.020325,-17.980804L128.078583,-18.168518L128.170746,-18.338371L128.292847,-18.486382L128.440857,-18.608482L128.610687,-18.700684L128.798401,-18.758942L128.999939,-18.779266L133.999939,-18.779266L138.999939,-18.779266L139.201477,-18.758942L139.389191,-18.700684L139.559052,-18.608482L139.707062,-18.486382L139.829132,-18.338371L139.921356,-18.168518L139.979614,-17.980804L139.999939,-17.779266L139.999939,-17.773285L140.020264,-17.571747L140.078522,-17.384064L140.170746,-17.214203L140.292816,-17.066223L140.440826,-16.944122L140.610687,-16.851921L140.798401,-16.793663L140.999939,-16.773346L386.554657,-16.773346L387.033478,-16.811646L387.491425,-16.923126L387.921539,-17.102722L388.316681,-17.345276L388.66983,-17.645699L388.973907,-17.998863L389.221954,-18.399681L389.40683,-18.843048L397.85556,-44.746063L378.211273,-44.746063L378.211273,-68.655609L405.654144,-68.655609L408.89267,-78.584564L409.515839,-80.495209L412.998627,-91.173248L417.490326,-104.944183L390.121674,-104.944183L397.969208,-128.853729L425.288788,-128.853729L436.522919,-163.296356L436.617462,-163.660065L436.665558,-164.021973L436.669342,-164.37912L436.63089,-164.728516L436.55246,-165.067169L436.436188,-165.392059L436.284271,-165.700226L436.098846,-165.988678L435.882172,-166.254364L435.636261,-166.494354L435.363495,-166.705658L435.065826,-166.885223L434.745575,-167.030121L434.404877,-167.137299L434.045929,-167.203827L433.670868,-167.226654L133.999939,-167.226654L-165.670929,-167.226654L-166.046051,-167.203827L-166.404999,-167.137299L-166.745697,-167.030121L-167.065948,-166.885223L-167.363556,-166.705658L-167.636383,-166.494354L-167.882172,-166.254364L-168.098907,-165.988678L-168.284271,-165.700226L-168.436188,-165.392059L-168.552399,-165.067169L-168.63089,-164.728516L-168.669342,-164.37912L-168.665619,-164.021973L-168.617584,-163.660065L-168.52298,-163.296356L-157.28891,-128.853729L-129.969269,-128.853729L-122.121803,-104.944183L-149.490387,-104.944183L-144.998688,-91.173248L-141.5159,-80.495209L-140.892731,-78.584564L-137.654144,-68.655609L-110.211273,-68.655609L-110.211273,-44.746063L-129.855621,-44.746063L-121.406891,-18.843048L-121.222076,-18.399681L-120.97403,-17.998863L-120.66983,-17.645699L-120.316742,-17.345276L-119.921661,-17.102722z"/>
    <path transform="matrix(1.000000 0.000000 0.000000 -1.000000 -512.047058 55.470261)" style="stroke:#ff0000;stroke-width:0.05mm;fill:none" d="M-140.372955,-98.058197L-139.048248,-95.763824L-136.399078,-95.763824L-135.074432,-98.058197L-136.399078,-100.352509L-139.048248,-100.352509L-140.372955,-98.058197z"/>
    <path transform="matrix(1.000000 0.000000 0.000000 -1.000000 -512.047058 55.470261)" style="stroke:#ff0000;stroke-width:0.05mm;fill:none" d="M-158.709625,-161.521515L-160.03421,-159.227142L-158.709625,-156.932831L-156.060333,-156.932831L-154.735748,-159.227142L-156.060333,-161.521515L-158.709625,-161.521515z"/>
    <path transform="matrix(1.000000 0.000000 0.000000 -1.000000 -512.047058 55.470261)" style="stroke:#ff0000;stroke-width:0.05mm;fill:none" d="M34.222809,-159.227142L35.547386,-156.932831L38.196648,-156.932831L39.521332,-159.227142L38.196648,-161.521515L35.547386,-161.521515L34.222809,-159.227142z"/>
    <path transform="matrix(1.000000 0.000000 0.000000 -1.000000 -512.047058 55.470261)" style="stroke:#ff0000;stroke-width:0.05mm;fill:none" d="M-114.451813,-23.824242L-115.776337,-21.530052L-114.451813,-19.235802L-111.802643,-19.235802L-110.478058,-21.530052L-111.802643,-23.824242L-114.451813,-23.824242z"/>
    <path transform="matrix(1.000000 0.000000 0.000000 -1.000000 -512.047058 55.470261)" style="stroke:#ff0000;stroke-width:0.05mm;fill:none" d="M229.803406,-161.521515L228.47876,-159.227142L229.803406,-156.932831L232.452606,-156.932831L233.777344,-159.227142L232.452606,-161.521515L229.803406,-161.521515z"/>
    <path transform="matrix(1.000000 0.000000 0.000000 -1.000000 -512.047058 55.470261)" style="stroke:#ff0000;stroke-width:0.05mm;fill:none" d="M142.63382,-20.645416L142.448822,-20.492767L142.236481,-20.377502L142.001862,-20.304657L141.749939,-20.279266L141.498016,-20.304657L141.263397,-20.377502L141.051056,-20.492767L140.866058,-20.645416L140.713409,-20.830414L140.598175,-21.042725L140.52536,-21.277374L140.499939,-21.529266L140.52536,-21.781181L140.598175,-22.015831L140.713409,-22.228142L140.866058,-22.413147L141.051056,-22.565796L141.263397,-22.681023L141.498016,-22.753876L141.749939,-22.779266L142.001862,-22.753876L142.236481,-22.681023L142.448822,-22.565796L142.63382,-22.413147L142.786469,-22.228142L142.901703,-22.015831L142.974518,-21.781181L142.999939,-21.529266L142.974518,-21.277374L142.901703,-21.042725L142.786469,-20.830414L142.63382,-20.645416z"/>
    <path transform="matrix(1.000000 0.000000 0.000000 -1.000000 -512.047058 55.470261)" style="stroke:#ff0000;stroke-width:0.05mm;fill:none" d="M424.059418,-156.932831L426.70871,-156.932831L428.033295,-159.227142L426.70871,-161.521515L424.059418,-161.521515L422.734833,-159.227142L424.059418,-156.932831z"/>
    <path transform="matrix(1.000000 0.000000 0.000000 -1.000000 -512.047058 55.470261)" style="stroke:#ff0000;stroke-width:0.05mm;fill:none" d="M383.776093,-21.529083L382.451508,-23.823456L379.802216,-23.823456L378.477631,-21.529083L379.802216,-19.234772L382.451508,-19.234772L383.776093,-21.529083z"/>
    <path transform="matrix(1.000000 0.000000 0.000000 -1.000000 -512.047058 55.470261)" style="stroke:#ff0000;stroke-width:0.05mm;fill:none" d="M54.273407,-21.529083L52.94873,-23.823456L50.29953,-23.823456L48.974876,-21.529083L50.29953,-19.234772L52.94873,-19.234772L54.273407,-21.529083z"/>
    <path transform="matrix(1.000000 0.000000 0.000000 -1.000000 -512.047058 55.470261)" style="stroke:#ff0000;stroke-width:0.05mm;fill:none" d="M404.399078,-100.352509L403.074554,-98.058197L404.399078,-95.763824L407.048431,-95.763824L408.373077,-98.058197L407.048431,-100.352509L404.399078,-100.352509z"/>
    <path transform="matrix(1.000000 0.000000 0.000000 -1.000000 -512.047058 55.470261)" style="stroke:#ff0000;stroke-width:0.05mm;fill:none" d="M217.700623,-23.823456L215.051422,-23.823456L213.726776,-21.529083L215.051422,-19.234772L217.700623,-19.234772L219.025238,-21.529083L217.700623,-23.823456z"/>
    <path transform="matrix(1.000000 0.000000 0.000000 -1.000000 -512.047058 55.470261)" style="stroke:#ff0000;stroke-width:0.05mm;fill:none" d="M127.286469,-20.830414L127.13385,-20.645416L126.948853,-20.492767L126.736542,-20.377502L126.501892,-20.304657L126.249939,-20.279266L125.998009,-20.304657L125.763397,-20.377502L125.551048,-20.492767L125.366058,-20.645416L125.213409,-20.830414L125.098167,-21.042725L125.02536,-21.277374L124.999939,-21.529266L125.02536,-21.781181L125.098167,-22.015831L125.213409,-22.228142L125.366058,-22.413147L125.551048,-22.565796L125.763397,-22.681023L125.998009,-22.753876L126.249939,-22.779266L126.501892,-22.753876L126.736542,-22.681023L126.948853,-22.565796L127.13385,-22.413147L127.286469,-22.228142L127.401703,-22.015831L127.474518,-21.781181L127.499939,-21.529266L127.474518,-21.277374L127.401703,-21.042725L127.286469,-20.830414z"/>
    <path transform="matrix(1.000000 0.000000 0.000000 -1.000000 -512.047058 55.470261)" style="stroke:#ff0000;stroke-width:0.05mm;fill:none" d="M-35.366974,-124.483177L-35.354095,-124.738792L-35.366974,-124.994423L-35.404877,-125.242653L-35.466492,-125.482231L-35.550568,-125.711906L-35.781097,-126.136574L-36.086365,-126.506561L-36.45639,-126.811852L-36.881012,-127.042328L-37.110687,-127.126404L-37.350281,-127.188011L-37.598541,-127.225891L-37.854126,-127.238792L-38.109711,-127.225891L-38.357971,-127.188011L-38.597565,-127.126404L-38.82724,-127.042328L-39.251862,-126.811852L-39.621887,-126.506561L-39.927155,-126.136574L-40.157654,-125.711906L-40.24173,-125.482231L-40.303314,-125.242653L-40.341217,-124.994423L-40.354126,-124.738792L-40.341217,-124.483177L-40.303314,-124.234993L-40.24173,-123.995392L-40.157654,-123.765717L-39.927155,-123.341026L-39.621887,-122.971031L-39.251862,-122.665771L-38.82724,-122.435272L-38.597565,-122.351196L-38.357971,-122.289581L-38.109711,-122.251701L-37.854126,-122.238792L-37.598541,-122.251701L-37.350281,-122.289581L-37.110687,-122.351196L-36.881012,-122.435272L-36.45639,-122.665771L-36.086365,-122.971031L-35.781097,-123.341026L-35.550568,-123.765717L-35.466492,-123.995392L-35.404877,-124.234993L-35.366974,-124.483177z"/>
    <path transform="matrix(1.000000 0.000000 0.000000 -1.000000 -512.047058 55.470261)" style="stroke:#ff0000;stroke-width:0.05mm;fill:none" d="M-35.054108,-92.84549L-35.054108,-116.631493L-40.654083,-116.631493L-40.654083,-92.84549L-35.054108,-92.84549z"/>
    <path transform="matrix(1.000000 0.000000 0.000000 -1.000000 -512.047058 55.470261)" style="stroke:#ff0000;stroke-width:0.05mm;fill:none" d="M92.999939,-70.418915L71.999939,-41.418915L99.999939,-41.418915L92.999939,-70.418915z"/>
    <path transform="matrix(1.000000 0.000000 0.000000 -1.000000 -512.047058 55.470261)" style="stroke:#ff0000;stroke-width:0.05mm;fill:none" d="M175.499939,-123.427063L185.878616,-123.427063L185.866638,-133.883881L185.866638,-140.883881L185.882111,-141.190613L185.927582,-141.488495L186.001526,-141.77597L186.102386,-142.051605L186.228699,-142.313843L186.378998,-142.561188L186.551666,-142.792145L186.745331,-143.005157L186.958405,-143.198792L187.189301,-143.37149L187.436676,-143.521759L187.698944,-143.648071L187.974548,-143.748932L188.262054,-143.822876L188.559937,-143.868317L188.866699,-143.88382L230.042725,-143.88382L268.748169,-143.88382L328.11499,-143.88382L328.11499,-130.883881L358.249908,-130.883881L358.249908,-143.88382L376.399139,-143.88382L376.399139,-133.883881L368.249908,-133.883881L368.249908,-130.883881L368.249908,-91.173248L368.249908,-80.495209L368.249908,-40.883873L367.479645,-40.883873L268.748169,-40.883873L230.042725,-40.883873L199.522217,-40.883873L199.043396,-40.922173L198.585449,-41.033669L198.155365,-41.213257L197.760254,-41.455803L197.407135,-41.756226L197.103027,-42.109406L196.855011,-42.510223L196.670105,-42.953583L175.499939,-72.418915L175.499939,-123.427063z"/>
    <path transform="matrix(1.000000 0.000000 0.000000 -1.000000 -512.047058 55.470261)" style="stroke:#ff0000;stroke-width:0.05mm;fill:none" d="M276.3396,-58.433922L249.539612,-58.433922L246.3396,-61.633945L246.3396,-85.233978L243.139587,-88.433929L222.732727,-88.433929L227.252625,-74.663055L199.760742,-74.663055L207.608337,-50.753502L235.100159,-50.753502L237.551392,-43.285004L323.253998,-43.285004L323.56073,-43.300507L323.858612,-43.345947L324.146118,-43.419891L324.421753,-43.520752L324.68399,-43.647064L324.931366,-43.797333L325.162262,-43.970062L325.375336,-44.163666L325.568939,-44.376732L325.741638,-44.607666L325.891907,-44.855011L326.018219,-45.117271L326.11911,-45.392883L326.193024,-45.680382L326.238495,-45.978271L326.253998,-46.285004L326.253998,-139.329681L326.238495,-139.636414L326.193024,-139.934296L326.11911,-140.221771L326.018219,-140.497406L325.891907,-140.759674L325.741638,-141.007019L325.568939,-141.237946L325.375336,-141.451019L325.162262,-141.644623L324.931366,-141.817322L324.68399,-141.96759L324.421753,-142.093903L324.146118,-142.194794L323.858612,-142.268707L323.56073,-142.314178L323.253998,-142.329681L308.653961,-142.329681L308.650604,-132.814056L303.055206,-132.833038L303.053986,-142.329681L205.043335,-142.329681L207.494568,-134.861115L187.850281,-134.861115L187.850281,-110.951622L215.342102,-110.951622L219.228088,-99.111969L279.539612,-99.111969L282.739655,-95.911957L282.739655,-71.195709L285.939606,-67.995697L303.053986,-67.995697L303.054474,-77.914154L308.188934,-77.914398L308.849579,-77.913605L314.654449,-77.914398L314.654388,-47.532623L303.053864,-47.532501L303.053986,-55.233978L279.539612,-55.233978L276.3396,-58.433922z"/>
    <path transform="matrix(1.000000 0.000000 0.000000 -1.000000 -512.047058 55.470261)" style="stroke:#ff0000;stroke-width:0.05mm;fill:none" d="M216.446655,-63.292114L216.58493,-63.546906L216.768097,-63.768887L216.990082,-63.952053L217.244843,-64.090363L217.526428,-64.177765L217.828735,-64.208221L218.131073,-64.177765L218.412659,-64.090363L218.66748,-63.952053L218.889465,-63.768887L219.072601,-63.546906L219.210907,-63.292114L219.29834,-63.010525L219.328796,-62.708225L219.29834,-62.405914L219.210907,-62.124355L219.072601,-61.869534L218.889465,-61.647556L218.66748,-61.464386L218.412659,-61.326103L218.131073,-61.238705L217.828735,-61.208225L217.526428,-61.238705L217.244843,-61.326103L216.990082,-61.464386L216.768097,-61.647556L216.58493,-61.869534L216.446655,-62.124355L216.359253,-62.405914L216.328796,-62.708225L216.359253,-63.010525L216.446655,-63.292114z"/>
    <path transform="matrix(1.000000 0.000000 0.000000 -1.000000 -512.047058 55.470261)" style="stroke:#ff0000;stroke-width:0.05mm;fill:none" d="M174.999939,-70.418915L195.999939,-41.418915L167.999939,-41.418915L174.999939,-70.418915z"/>
    <path transform="matrix(1.000000 0.000000 0.000000 -1.000000 -512.047058 55.470261)" style="stroke:#ff0000;stroke-width:0.05mm;fill:none" d="M196.601196,-123.208702L196.688629,-123.490257L196.826935,-123.745087L197.010071,-123.967072L197.232056,-124.150238L197.486847,-124.288513L197.768433,-124.375923L198.07074,-124.406403L198.373047,-124.375923L198.654633,-124.288513L198.909424,-124.150238L199.131409,-123.967072L199.314545,-123.745087L199.45285,-123.490257L199.540283,-123.208702L199.57074,-122.906403L199.540283,-122.604103L199.45285,-122.322533L199.314545,-122.067719L199.131409,-121.845703L198.909424,-121.662537L198.654633,-121.524231L198.373047,-121.436829L198.07074,-121.406342L197.768433,-121.436829L197.486847,-121.524231L197.232056,-121.662537L197.010071,-121.845703L196.826935,-122.067719L196.688629,-122.322533L196.601196,-122.604103L196.57074,-122.906403L196.601196,-123.208702z"/>
    <path transform="matrix(1.000000 0.000000 0.000000 -1.000000 -512.047058 55.470261)" style="stroke:#ff0000;stroke-width:0.05mm;fill:none" d="M304.88089,-87.042389L305.110565,-87.126465L305.350159,-87.18808L305.598419,-87.225952L305.854004,-87.238861L306.109589,-87.225952L306.357849,-87.18808L306.597443,-87.126465L306.827118,-87.042389L307.25174,-86.81189L307.621765,-86.506622L307.927032,-86.136627L308.157532,-85.711945L308.241608,-85.482269L308.303192,-85.242676L308.341095,-84.994476L308.354004,-84.738861L308.341095,-84.483246L308.303192,-84.235016L308.241608,-83.995422L308.157532,-83.765747L307.927032,-83.341095L307.621765,-82.9711L307.25174,-82.665802L306.827118,-82.435333L306.597443,-82.351257L306.357849,-82.289642L306.109589,-82.25177L305.854004,-82.238861L305.598419,-82.25177L305.350159,-82.289642L305.110565,-82.351257L304.88089,-82.435333L304.456268,-82.665802L304.086243,-82.9711L303.780975,-83.341095L303.550446,-83.765747L303.46637,-83.995422L303.404755,-84.235016L303.366852,-84.483246L303.353973,-84.738861L303.366852,-84.994476L303.404755,-85.242676L303.46637,-85.482269L303.550446,-85.711945L303.780975,-86.136627L304.086243,-86.506622L304.456268,-86.81189L304.88089,-87.042389z"/>
    <path transform="matrix(1.000000 0.000000 0.000000 -1.000000 -512.047058 55.470261)" style="stroke:#ff0000;stroke-width:0.05mm;fill:none" d="M305.110565,-122.351196L304.88089,-122.435272L304.456268,-122.665771L304.086243,-122.971031L303.780975,-123.341026L303.550446,-123.765717L303.46637,-123.995392L303.404755,-124.234993L303.366852,-124.483177L303.353973,-124.738792L303.366852,-124.994423L303.404755,-125.242653L303.46637,-125.482231L303.550446,-125.711906L303.780975,-126.136574L304.086243,-126.506561L304.456268,-126.811852L304.88089,-127.042328L305.110565,-127.126404L305.350159,-127.188011L305.598419,-127.225891L305.854004,-127.238792L306.109589,-127.225891L306.357849,-127.188011L306.597443,-127.126404L306.827118,-127.042328L307.25174,-126.811852L307.621765,-126.506561L307.927032,-126.136574L308.157532,-125.711906L308.241608,-125.482231L308.303192,-125.242653L308.341095,-124.994423L308.354004,-124.738792L308.341095,-124.483177L308.303192,-124.234993L308.241608,-123.995392L308.157532,-123.765717L307.927032,-123.341026L307.621765,-122.971031L307.25174,-122.665771L306.827118,-122.435272L306.597443,-122.351196L306.357849,-122.289581L306.109589,-122.251701L305.854004,-122.238792L305.598419,-122.251701L305.350159,-122.289581L305.110565,-122.351196z"/>
    <path transform="matrix(1.000000 0.000000 0.000000 -1.000000 -512.047058 55.470261)" style="stroke:#ff0000;stroke-width:0.05mm;fill:none" d="M303.053986,-116.631493L308.653961,-116.631493L308.653961,-92.84549L303.053986,-92.84549L303.053986,-116.631493z"/>
    <path transform="matrix(1.000000 0.000000 0.000000 -1.000000 -524.190063 591.388245)" style="stroke:#ff0000;stroke-width:0.05mm;fill:none" d="M384.247589,52.859058L384.251495,95.569992L428.997589,95.569992L433.489777,81.796555L406.122589,81.796555L413.970245,57.886406L441.290558,57.886406L452.521027,23.444996L452.595795,23.180588L452.645416,22.910938L452.669952,22.637806L452.669464,22.362968L452.639679,22.067886L452.582306,21.782246L452.49881,21.507317L452.390472,21.244438L452.258881,20.994957L452.105255,20.760178L451.931122,20.541496L451.737762,20.340137L451.526703,20.157516L451.299286,19.994987L451.056854,19.853806L450.800873,19.735336L450.532806,19.640919L450.253876,19.571888L449.965668,19.529587L449.669464,19.515308L-149.67038,19.515308L-149.944611,19.528248L-150.216156,19.565327L-150.483307,19.626205L-150.744598,19.710617L-151.015839,19.830338L-151.269684,19.973377L-151.505219,20.137959L-151.721527,20.322319L-151.917877,20.524738L-152.093475,20.743488L-152.247345,20.976826L-152.378815,21.222977L-152.486969,21.480217L-152.571014,21.746819L-152.630096,22.020988L-152.6633,22.301048L-152.669952,22.585197L-152.649139,22.871758L-152.600067,23.158928L-152.521942,23.444996L-141.287567,57.886406L-113.971161,57.886406L-106.123497,81.796555L-133.490692,81.796555L-128.998505,95.569992L-84.248505,95.569992L-84.248505,52.859058L-92.400848,52.859058L-92.400848,42.859055L-74.248505,42.859055L-74.248505,55.859058L-44.115692,55.859058L-44.115692,42.859055L95.134308,42.859055L95.441124,42.874435L95.739044,42.919815L96.026573,42.993668L96.302277,43.094498L96.564545,43.220818L96.811974,43.371048L97.042938,43.543747L97.255974,43.737389L97.449615,43.950428L97.622314,44.181419L97.772583,44.428787L97.898865,44.691086L97.999695,44.966789L98.073578,45.254318L98.118927,45.552269L98.134308,45.859055L98.134308,63.322807L108.390198,63.322807L108.390198,69.413719L108.353058,70.57L108.556183,86.902023L108.481812,101.998787L108.499687,114.322807L87.32962,143.788757L87.145073,144.232254L86.897308,144.633255L86.593353,144.986618L86.240265,145.287155L85.845123,145.529816L85.415009,145.709427L84.956932,145.820877L84.478058,145.859055L-84.248505,145.859055L-84.248505,106.245773L-125.518044,106.245773L-124.893044,108.155937L-121.654747,118.085617L-94.213348,118.085617L-94.213348,141.995789L-113.853973,141.995789L-105.408661,167.898117L-105.223907,168.342194L-104.975861,168.743607L-104.671417,169.097214L-104.31778,169.397934L-103.922089,169.640518L-103.491364,169.819916L-103.032753,169.930939L-102.553192,169.968445L143.001495,169.968445L143.242767,169.937668L143.470245,169.851257L143.720734,169.646194L143.901672,169.385117L144.004608,169.084625L144.021027,168.761414L144.071106,168.593338L144.147705,168.439957L144.247925,168.303635L144.368866,168.186707L144.507599,168.091568L144.661224,168.020615L144.826813,167.976166L145.001495,167.960617L155.001495,167.960617L155.184052,167.978714L155.359039,168.028687L155.522278,168.109085L155.669464,168.218445L155.833954,168.423508L155.949432,168.656494L156.012817,168.908707L156.021027,169.171555L156.070953,169.339478L156.147491,169.492615L156.247772,169.628647L156.368805,169.745178L156.507629,169.839798L156.661346,169.910156L156.826935,169.953827L157.001495,169.968445L402.556183,169.968445L403.035309,169.930695L403.4935,169.819504L403.923798,169.640015L404.319,169.397385L404.672089,169.096756L404.975983,168.743225L405.223541,168.341965L405.407745,167.898117L413.856964,141.995789L394.212433,141.995789L394.212433,118.085617L421.653839,118.085617L424.89212,108.155937L425.51712,106.245773L384.251495,106.245773L384.247589,145.859055L215.521027,145.859055L215.042145,145.820877L214.584076,145.709427L214.153961,145.529816L213.75882,145.287155L213.405731,144.986618L213.101776,144.633255L212.854004,144.232254L212.669464,143.788757L191.49939,114.322807L191.517273,101.998787L191.442902,86.902023L191.646027,70.57L191.608887,69.413719L191.608887,63.322807L201.864777,63.322807L201.864777,45.859055L201.880157,45.552269L201.925507,45.254318L201.99939,44.966789L202.10022,44.691086L202.226501,44.428787L202.37677,44.181419L202.549469,43.950428L202.743103,43.737389L202.956146,43.543747L203.187103,43.371048L203.43454,43.220818L203.696808,43.094498L203.972504,42.993668L204.26004,42.919815L204.557953,42.874435L204.864777,42.859055L344.114777,42.859055L344.114777,55.859058L374.247589,55.859058L374.247589,42.859055L392.399933,42.859055L392.399933,52.859058L384.247589,52.859058z"/>
    <path transform="matrix(1.000000 0.000000 0.000000 -1.000000 -524.190063 591.388245)" style="stroke:#ff0000;stroke-width:0.05mm;fill:none" d="M157.263153,166.364166L157.050812,166.248917L156.865814,166.096268L156.713165,165.911285L156.597931,165.698975L156.525116,165.464325L156.499695,165.212387L156.525116,164.960464L156.597931,164.725815L156.713165,164.513504L156.865814,164.328506L157.050812,164.175858L157.263153,164.060638L157.497772,163.987778L157.749695,163.962387L158.001617,163.987778L158.236237,164.060638L158.448578,164.175858L158.633575,164.328506L158.786224,164.513504L158.901459,164.725815L158.974274,164.960464L158.999695,165.212387L158.974274,165.464325L158.901459,165.698975L158.786224,165.911285L158.633575,166.096268L158.448578,166.248917L158.236237,166.364166L158.001617,166.436996L157.749695,166.462387L157.497772,166.436996L157.263153,166.364166z"/>
    <path transform="matrix(1.000000 0.000000 0.000000 -1.000000 -524.190063 591.388245)" style="stroke:#ff0000;stroke-width:0.05mm;fill:none" d="M143.499695,165.212387L143.474274,165.464325L143.401459,165.698975L143.286224,165.911285L143.133606,166.096268L142.948608,166.248917L142.736298,166.364166L142.501648,166.436996L142.249695,166.462387L141.997772,166.436996L141.763153,166.364166L141.550812,166.248917L141.365814,166.096268L141.213165,165.911285L141.097931,165.698975L141.025116,165.464325L140.999695,165.212387L141.025116,164.960464L141.097931,164.725815L141.213165,164.513504L141.365814,164.328506L141.550812,164.175858L141.763153,164.060638L141.997772,163.987778L142.249695,163.962387L142.501648,163.987778L142.736298,164.060638L142.948608,164.175858L143.133606,164.328506L143.286224,164.513504L143.401459,164.725815L143.474274,164.960464L143.499695,165.212387z"/>
    <path transform="matrix(1.000000 0.000000 0.000000 -1.000000 -524.190063 591.388245)" style="stroke:#ff0000;stroke-width:0.05mm;fill:none" d="M-24.654327,44.411728L-24.65097,53.927357L-19.055573,53.908379L-19.054352,44.411728L78.956291,44.411728L76.505066,51.880299L96.149353,51.880299L96.149353,75.789787L68.657524,75.789787L64.771545,87.629448L4.460022,87.629448L1.259979,90.82946L1.259979,115.545708L-1.939972,118.745712L-19.054352,118.745712L-19.05484,108.827263L-24.189301,108.827019L-24.849945,108.827797L-30.654816,108.827019L-30.654755,139.208786L-19.05423,139.208908L-19.054352,131.507446L4.460022,131.507446L7.660034,128.307495L34.460014,128.307495L37.660034,125.107468L37.660034,101.507439L40.860046,98.307487L61.266907,98.307487L56.747002,112.078346L84.238884,112.078346L76.391296,135.987915L48.899475,135.987915L46.448235,143.456406L-39.254364,143.456406L-39.561096,143.440918L-39.858978,143.395477L-40.146484,143.321518L-40.422119,143.220657L-40.684357,143.094345L-40.931732,142.944077L-41.162628,142.771347L-41.375702,142.577744L-41.569305,142.364685L-41.742004,142.133759L-41.892273,141.886414L-42.018585,141.624146L-42.119476,141.348526L-42.19339,141.061035L-42.238861,140.763138L-42.254364,140.456406L-42.254364,47.411728L-42.238861,47.104996L-42.19339,46.807117L-42.119476,46.519638L-42.018585,46.244007L-41.892273,45.981735L-41.742004,45.734398L-41.569305,45.503468L-41.375702,45.290398L-41.162628,45.096786L-40.931732,44.924088L-40.684357,44.773827L-40.422119,44.647507L-40.146484,44.546616L-39.858978,44.47271L-39.561096,44.427238L-39.254364,44.411728L-24.654327,44.411728z"/>
    <path transform="matrix(1.000000 0.000000 0.000000 -1.000000 -524.190063 591.388245)" style="stroke:#ff0000;stroke-width:0.05mm;fill:none" d="M64.701294,123.730888L64.670837,124.033188L64.701294,124.335487L64.788727,124.617058L64.927025,124.871872L65.110168,125.093857L65.332153,125.277023L65.586975,125.415314L65.868553,125.502708L66.170898,125.533188L66.473206,125.502708L66.754784,125.415314L67.009544,125.277023L67.231537,125.093857L67.414703,124.871872L67.552979,124.617058L67.640373,124.335487L67.670837,124.033188L67.640373,123.730888L67.552979,123.449303L67.414703,123.194504L67.231537,122.972527L67.009544,122.789352L66.754784,122.651047L66.473206,122.563637L66.170898,122.533188L65.868553,122.563637L65.586975,122.651047L65.332153,122.789352L65.110168,122.972527L64.927025,123.194504L64.788727,123.449303L64.701294,123.730888z"/>
    <path transform="matrix(1.000000 0.000000 0.000000 -1.000000 -524.190063 591.388245)" style="stroke:#ff0000;stroke-width:0.05mm;fill:none" d="M84.868225,64.895706L85.090202,65.07888L85.344994,65.217186L85.626587,65.304588L85.928894,65.335068L86.231194,65.304588L86.512787,65.217186L86.767578,65.07888L86.989563,64.895706L87.172699,64.673698L87.311005,64.418877L87.398438,64.137314L87.428894,63.835007L87.398438,63.532707L87.311005,63.251148L87.172699,62.996326L86.989563,62.774338L86.767578,62.591179L86.512787,62.452896L86.231194,62.365498L85.928894,62.335007L85.626587,62.365498L85.344994,62.452896L85.090202,62.591179L84.868225,62.774338L84.685081,62.996326L84.546783,63.251148L84.459343,63.532707L84.428894,63.835007L84.459343,64.137314L84.546783,64.418877L84.685081,64.673698L84.868225,64.895706z"/>
    <path transform="matrix(1.000000 0.000000 0.000000 -1.000000 -524.190063 591.388245)" style="stroke:#ff0000;stroke-width:0.05mm;fill:none" d="M-19.367218,102.258163L-19.35434,102.002548L-19.367218,101.746933L-19.405121,101.498734L-19.466736,101.259148L-19.550812,101.029457L-19.781342,100.604782L-20.086609,100.234787L-20.456635,99.929527L-20.881256,99.699028L-21.110931,99.614944L-21.350525,99.553337L-21.598785,99.515457L-21.85437,99.502548L-22.109955,99.515457L-22.358215,99.553337L-22.597809,99.614944L-22.827484,99.699028L-23.252106,99.929527L-23.622131,100.234787L-23.927399,100.604782L-24.157898,101.029457L-24.241974,101.259148L-24.303558,101.498734L-24.341461,101.746933L-24.35437,102.002548L-24.341461,102.258163L-24.303558,102.506393L-24.241974,102.745987L-24.157898,102.975662L-23.927399,103.400307L-23.622131,103.770317L-23.252106,104.075607L-22.827484,104.306084L-22.597809,104.390152L-22.358215,104.451767L-22.109955,104.489647L-21.85437,104.502548L-21.598785,104.489647L-21.350525,104.451767L-21.110931,104.390152L-20.881256,104.306084L-20.456635,104.075607L-20.086609,103.770317L-19.781342,103.400307L-19.550812,102.975662L-19.466736,102.745987L-19.405121,102.506393L-19.367218,102.258163z"/>
    <path transform="matrix(1.000000 0.000000 0.000000 -1.000000 -524.190063 591.388245)" style="stroke:#ff0000;stroke-width:0.05mm;fill:none" d="M-19.466736,62.746017L-19.405121,62.506428L-19.367218,62.258228L-19.35434,62.002617L-19.367218,61.746998L-19.405121,61.498768L-19.466736,61.259178L-19.550812,61.029499L-19.781342,60.604847L-20.086609,60.234848L-20.456635,59.929558L-20.881256,59.699089L-21.110931,59.615005L-21.350525,59.553398L-21.598785,59.515518L-21.85437,59.502617L-22.109955,59.515518L-22.358215,59.553398L-22.597809,59.615005L-22.827484,59.699089L-23.252106,59.929558L-23.622131,60.234848L-23.927399,60.604847L-24.157898,61.029499L-24.241974,61.259178L-24.303558,61.498768L-24.341461,61.746998L-24.35437,62.002617L-24.341461,62.258228L-24.303558,62.506428L-24.241974,62.746017L-24.157898,62.975697L-23.927399,63.400379L-23.622131,63.770378L-23.252106,64.075638L-22.827484,64.306137L-22.597809,64.390221L-22.358215,64.451828L-22.109955,64.489708L-21.85437,64.502617L-21.598785,64.489708L-21.350525,64.451828L-21.110931,64.390221L-20.881256,64.306137L-20.456635,64.075638L-20.086609,63.770378L-19.781342,63.400379L-19.550812,62.975697L-19.466736,62.746017z"/>
    <path transform="matrix(1.000000 0.000000 0.000000 -1.000000 -524.190063 591.388245)" style="stroke:#ff0000;stroke-width:0.05mm;fill:none" d="M-24.654327,70.109917L-24.654327,93.895927L-19.054352,93.895927L-19.054352,70.109917L-24.654327,70.109917z"/>
    <path transform="matrix(1.000000 0.000000 0.000000 -1.000000 -524.190063 591.388245)" style="stroke:#ff0000;stroke-width:0.05mm;fill:none" d="M116.999687,63.322807L109.999687,63.322807L109.999687,71.322807L109.999687,71.708008L109.999687,72.099281L109.999687,72.76445L109.999687,73.586121L109.999687,74.322807L109.999687,75.322807L109.999687,91.822807L109.999687,92.322807L109.999687,92.822807L109.999687,93.822807L109.999687,95.322807L109.999687,97.322807L109.981506,102.011597L109.999687,114.322807L118.689934,143.788086L118.874817,144.231445L119.122833,144.632248L119.426903,144.985428L119.780029,145.285889L120.175133,145.528427L120.605217,145.708038L121.063164,145.819534L121.541977,145.857834L149.999695,145.857834L178.457092,145.857834L178.935913,145.819534L179.39386,145.708038L179.823944,145.528427L180.219055,145.285889L180.572174,144.985428L180.876251,144.632248L181.124268,144.231445L181.309143,143.788086L189.99939,114.322807L190.017578,102.011597L189.99939,97.322807L189.99939,95.322807L189.99939,93.822807L189.99939,92.822807L189.99939,92.322807L189.99939,91.822807L189.99939,75.322807L189.99939,90.322807L189.99939,89.322807L189.99939,88.963219L189.99939,88.322807L189.99939,87.322807L189.99939,86.322807L189.99939,85.322807L189.99939,84.322807L189.99939,83.322807L189.99939,82.322807L189.99939,80.981216L189.99939,80.322807L189.99939,78.790077L189.99939,77.322807L189.99939,76.716324L189.99939,75.322807L189.99939,74.322807L189.99939,73.586121L189.99939,72.76445L189.99939,72.099281L189.99939,71.708008L189.99939,71.322807L189.99939,63.322807L182.99939,63.322807"/>
    <path transform="matrix(1.000000 0.000000 0.000000 -1.000000 -524.190063 591.388245)" style="stroke:#ff0000;stroke-width:0.05mm;fill:none" d="M109.999687,75.322807L109.999687,76.716324L109.999687,77.322807L109.999687,78.790077L109.999687,80.322807L109.999687,80.981216L109.999687,82.322807L109.999687,83.322807L109.999687,84.322807L109.999687,85.322807L109.999687,86.322807L109.999687,87.322807L109.999687,88.322807L109.999687,88.963219L109.999687,89.322807L109.999687,90.322807L109.999687,75.322807z"/>
    <path transform="matrix(1.000000 0.000000 0.000000 -1.000000 -524.190063 591.388245)" style="stroke:#ff0000;stroke-width:0.05mm;fill:none" d="M245.803162,29.809006L248.452362,29.809006L249.7771,27.514759L248.452362,25.220448L245.803162,25.220448L244.478516,27.514759L245.803162,29.809006z"/>
    <path transform="matrix(1.000000 0.000000 0.000000 -1.000000 -524.190063 591.388245)" style="stroke:#ff0000;stroke-width:0.05mm;fill:none" d="M-99.776276,165.211777L-98.451691,167.506088L-95.802399,167.506088L-94.477692,165.211777L-95.802399,162.917465L-98.451691,162.917465L-99.776276,165.211777z"/>
    <path transform="matrix(1.000000 0.000000 0.000000 -1.000000 -524.190063 591.388245)" style="stroke:#ff0000;stroke-width:0.05mm;fill:none" d="M54.196404,29.809006L55.521088,27.514759L54.196404,25.220448L51.547142,25.220448L50.222565,27.514759L51.547142,29.809006L54.196404,29.809006z"/>
    <path transform="matrix(1.000000 0.000000 0.000000 -1.000000 -524.190063 591.388245)" style="stroke:#ff0000;stroke-width:0.05mm;fill:none" d="M114.552368,63.322807L149.999695,63.322807L185.446716,63.322807"/>
    <path transform="matrix(1.000000 0.000000 0.000000 -1.000000 -524.190063 591.388245)" style="stroke:#ff0000;stroke-width:0.05mm;fill:none" d="M70.273163,165.211777L68.948486,162.917465L66.299286,162.917465L64.974632,165.211777L66.299286,167.506088L68.948486,167.506088L70.273163,165.211777z"/>
    <path transform="matrix(1.000000 0.000000 0.000000 -1.000000 -524.190063 591.388245)" style="stroke:#ff0000;stroke-width:0.05mm;fill:none" d="M233.700378,162.917465L231.051178,162.917465L229.726532,165.211777L231.051178,167.506088L233.700378,167.506088L235.024994,165.211777L233.700378,162.917465z"/>
    <path transform="matrix(1.000000 0.000000 0.000000 -1.000000 -524.190063 591.388245)" style="stroke:#ff0000;stroke-width:0.05mm;fill:none" d="M399.775848,165.211777L398.451263,162.917465L395.801971,162.917465L394.477386,165.211777L395.801971,167.506088L398.451263,167.506088L399.775848,165.211777z"/>
    <path transform="matrix(1.000000 0.000000 0.000000 -1.000000 -524.190063 591.388245)" style="stroke:#ff0000;stroke-width:0.05mm;fill:none" d="M420.398834,90.977036L423.048187,90.977036L424.372833,88.682663L423.048187,86.38842L420.398834,86.38842L419.07431,88.682663L420.398834,90.977036z"/>
    <path transform="matrix(1.000000 0.000000 0.000000 -1.000000 -524.190063 591.388245)" style="stroke:#ff0000;stroke-width:0.05mm;fill:none" d="M442.708466,29.809006L444.033051,27.514759L442.708466,25.220448L440.059174,25.220448L438.734589,27.514759L440.059174,29.809006L442.708466,29.809006z"/>
    <path transform="matrix(1.000000 0.000000 0.000000 -1.000000 -524.190063 591.388245)" style="stroke:#ff0000;stroke-width:0.05mm;fill:none" d="M-123.048492,90.977036L-120.399323,90.977036L-119.074677,88.682663L-120.399323,86.38842L-123.048492,86.38842L-124.373199,88.682663L-123.048492,90.977036z"/>
    <path transform="matrix(1.000000 0.000000 0.000000 -1.000000 -524.190063 591.388245)" style="stroke:#ff0000;stroke-width:0.05mm;fill:none" d="M108.999687,116.322807L115.999687,145.322815L87.999695,145.322815L108.999687,116.322807z"/>
    <path transform="matrix(1.000000 0.000000 0.000000 -1.000000 -524.190063 591.388245)" style="stroke:#ff0000;stroke-width:0.05mm;fill:none" d="M319.053436,44.411728L221.042786,44.411728L223.494019,51.880299L203.849731,51.880299L203.849731,75.789787L231.341553,75.789787L235.227539,87.629448L295.539063,87.629448L298.739105,90.82946L298.739105,115.545708L301.939056,118.745712L319.053436,118.745712L319.053925,108.827263L324.188385,108.827019L324.84903,108.827797L330.6539,108.827019L330.653839,139.208786L319.053314,139.208908L319.053436,131.507446L295.539063,131.507446L292.33905,128.307495L265.539063,128.307495L262.33905,125.107468L262.33905,101.507439L259.139038,98.307487L238.732178,98.307487L243.252075,112.078346L215.760193,112.078346L223.607788,135.987915L251.099609,135.987915L253.550842,143.456406L339.253448,143.456406L339.560181,143.440918L339.858063,143.395477L340.145569,143.321518L340.421204,143.220657L340.683441,143.094345L340.930817,142.944077L341.161713,142.771347L341.374786,142.577744L341.56839,142.364685L341.741089,142.133759L341.891357,141.886414L342.01767,141.624146L342.118561,141.348526L342.192474,141.061035L342.237946,140.763138L342.253448,140.456406L342.253448,47.411728L342.237946,47.104996L342.192474,46.807117L342.118561,46.519638L342.01767,46.244007L341.891357,45.981735L341.741089,45.734398L341.56839,45.503468L341.374786,45.290398L341.161713,45.096786L340.930817,44.924088L340.683441,44.773827L340.421204,44.647507L340.145569,44.546616L339.858063,44.47271L339.560181,44.427238L339.253448,44.411728L324.653412,44.411728L324.650055,53.927357L319.054657,53.908379L319.053436,44.411728z"/>
    <path transform="matrix(1.000000 0.000000 0.000000 -1.000000 -524.190063 591.388245)" style="stroke:#ff0000;stroke-width:0.05mm;fill:none" d="M211.99939,145.322815L190.99939,116.322807L183.99939,145.322815L211.99939,145.322815z"/>
    <path transform="matrix(1.000000 0.000000 0.000000 -1.000000 -524.190063 591.388245)" style="stroke:#ff0000;stroke-width:0.05mm;fill:none" d="M324.653412,70.109917L324.653412,93.895927L319.053436,93.895927L319.053436,70.109917L324.653412,70.109917z"/>
    <path transform="matrix(1.000000 0.000000 0.000000 -1.000000 -524.190063 591.388245)" style="stroke:#ff0000;stroke-width:0.05mm;fill:none" d="M320.880341,64.306137L320.455719,64.075638L320.085693,63.770378L319.780426,63.400379L319.549896,62.975697L319.46582,62.746017L319.404205,62.506428L319.366302,62.258228L319.353424,62.002617L319.366302,61.746998L319.404205,61.498768L319.46582,61.259178L319.549896,61.029499L319.780426,60.604847L320.085693,60.234848L320.455719,59.929558L320.880341,59.699089L321.110016,59.615005L321.349609,59.553398L321.59787,59.515518L321.853455,59.502617L322.109039,59.515518L322.3573,59.553398L322.596893,59.615005L322.826569,59.699089L323.25119,59.929558L323.621216,60.234848L323.926483,60.604847L324.156982,61.029499L324.241058,61.259178L324.302643,61.498768L324.340546,61.746998L324.353455,62.002617L324.340546,62.258228L324.302643,62.506428L324.241058,62.746017L324.156982,62.975697L323.926483,63.400379L323.621216,63.770378L323.25119,64.075638L322.826569,64.306137L322.596893,64.390221L322.3573,64.451828L322.109039,64.489708L321.853455,64.502617L321.59787,64.489708L321.349609,64.451828L321.110016,64.390221L320.880341,64.306137z"/>
    <path transform="matrix(1.000000 0.000000 0.000000 -1.000000 -524.190063 591.388245)" style="stroke:#ff0000;stroke-width:0.05mm;fill:none" d="M215.539734,63.532707L215.57019,63.835007L215.539734,64.137314L215.452301,64.418877L215.313995,64.673698L215.130859,64.895706L214.908875,65.07888L214.654083,65.217186L214.372498,65.304588L214.07019,65.335068L213.767883,65.304588L213.486298,65.217186L213.231506,65.07888L213.009521,64.895706L212.826385,64.673698L212.68808,64.418877L212.600647,64.137314L212.57019,63.835007L212.600647,63.532707L212.68808,63.251148L212.826385,62.996326L213.009521,62.774338L213.231506,62.591179L213.486298,62.452896L213.767883,62.365498L214.07019,62.335007L214.372498,62.365498L214.654083,62.452896L214.908875,62.591179L215.130859,62.774338L215.313995,62.996326L215.452301,63.251148L215.539734,63.532707z"/>
    <path transform="matrix(1.000000 0.000000 0.000000 -1.000000 -524.190063 591.388245)" style="stroke:#ff0000;stroke-width:0.05mm;fill:none" d="M320.880341,99.699028L321.110016,99.614944L321.349609,99.553337L321.59787,99.515457L321.853455,99.502548L322.109039,99.515457L322.3573,99.553337L322.596893,99.614944L322.826569,99.699028L323.25119,99.929527L323.621216,100.234787L323.926483,100.604782L324.156982,101.029457L324.241058,101.259148L324.302643,101.498734L324.340546,101.746933L324.353455,102.002548L324.340546,102.258163L324.302643,102.506393L324.241058,102.745987L324.156982,102.975662L323.926483,103.400307L323.621216,103.770317L323.25119,104.075607L322.826569,104.306084L322.596893,104.390152L322.3573,104.451767L322.109039,104.489647L321.853455,104.502548L321.59787,104.489647L321.349609,104.451767L321.110016,104.390152L320.880341,104.306084L320.455719,104.075607L320.085693,103.770317L319.780426,103.400307L319.549896,102.975662L319.46582,102.745987L319.404205,102.506393L319.366302,102.258163L319.353424,102.002548L319.366302,101.746933L319.404205,101.498734L319.46582,101.259148L319.549896,101.029457L319.780426,100.604782L320.085693,100.234787L320.455719,99.929527L320.880341,99.699028z"/>
    <path transform="matrix(1.000000 0.000000 0.000000 -1.000000 -524.190063 591.388245)" style="stroke:#ff0000;stroke-width:0.05mm;fill:none" d="M232.989532,122.789352L233.244293,122.651047L233.525879,122.563637L233.828186,122.533188L234.130524,122.563637L234.412109,122.651047L234.666931,122.789352L234.888916,122.972527L235.072052,123.194504L235.210358,123.449303L235.297791,123.730888L235.328247,124.033188L235.297791,124.335487L235.210358,124.617058L235.072052,124.871872L234.888916,125.093857L234.666931,125.277023L234.412109,125.415314L234.130524,125.502708L233.828186,125.533188L233.525879,125.502708L233.244293,125.415314L232.989532,125.277023L232.767548,125.093857L232.584381,124.871872L232.446106,124.617058L232.358704,124.335487L232.328247,124.033188L232.358704,123.730888L232.446106,123.449303L232.584381,123.194504L232.767548,122.972527L232.989532,122.789352z"/>
    <path transform="matrix(-1.019700 0.000000 0.000000 1.019700 -323.863068 -177.669769)" style="stroke:#ff0000;stroke-width:0.05mm;fill:none" d="M337.708069,727.217468L336.409027,729.467468L333.810944,729.467468L332.511932,727.217468L333.810944,724.967529L336.409027,724.967529L337.708069,727.217468z"/>
</svg>
