<?xml version="1.0" encoding="UTF-8"?>
<svg xmlns="http://www.w3.org/2000/svg" width="601.422mm" height="238.551mm" viewBox="-643.463745 3.430176 601.421936 238.550781">
    <path transform="matrix(-1.000000 0.000000 0.000000 1.000000 -299.360992 878.638916)" style="stroke:#ff0000;stroke-width:0.05mm;fill:none" d="M343.396606,-636.657959C343.636963,-636.657959,343.86911,-636.685791,344.102753,-636.742188L328.583038,-684.324097L320.823181,-708.11499L316.943268,-720.010498C316.437286,-721.561768,316.063232,-723.121704,314.024689,-723.368774C313.243317,-723.463501,312.632355,-723.315552,311.980835,-722.874023C311.664734,-722.65979,311.411102,-722.408325,311.194305,-722.094116C311.092041,-721.945801,311.004791,-721.791382,310.930511,-721.627197C310.894775,-721.548218,310.862549,-721.468018,310.83374,-721.38623C310.479584,-720.379395,310.196259,-719.351807,309.878418,-718.334351L299.562134,-685.310669L296.983032,-677.05481C296.74826,-676.303223,296.579193,-675.534668,296.262329,-674.80542C296.143127,-674.531128,295.991638,-674.287598,295.798096,-674.05957C294.858795,-672.952881,293.798523,-673.000732,292.550537,-673.000732L285.468628,-673.000732L271.30484,-673.000732L242.977325,-673.000732L43.725769,-673.000732L-155.525818,-673.000732L-183.853394,-673.000732L-198.01709,-673.000732L-205.098999,-673.000732C-206.346985,-673.000732,-207.407227,-672.952881,-208.346558,-674.05957C-208.540161,-674.287598,-208.69165,-674.531128,-208.810852,-674.80542C-209.127625,-675.534668,-209.296814,-676.303223,-209.531555,-677.05481L-212.110657,-685.310669L-222.42688,-718.334351C-222.744812,-719.351807,-223.028076,-720.379395,-223.382202,-721.38623C-223.411072,-721.468018,-223.443298,-721.548218,-223.479065,-721.627197C-223.553284,-721.791382,-223.640503,-721.945801,-223.742737,-722.094116C-223.959656,-722.408325,-224.213196,-722.65979,-224.529297,-722.874023C-225.180847,-723.315552,-225.791809,-723.463501,-226.573181,-723.368774C-228.611694,-723.121704,-228.985779,-721.561768,-229.49176,-720.010498L-233.371704,-708.11499L-241.131531,-684.324097L-256.651184,-636.742188C-256.417603,-636.685791,-256.185486,-636.657959,-255.945129,-636.657959L343.396606,-636.657959z"/>
    <path transform="matrix(-1.030000 0.000000 0.000000 1.030000 -289.307007 897.978943)" style="stroke:#ff0000;stroke-width:0.05mm;fill:none" d="M336.609985,-644.657959C336.609985,-643.82959,335.938416,-643.157959,335.109985,-643.157959C334.281525,-643.157959,333.610016,-643.82959,333.610016,-644.657959C333.610016,-645.48645,334.281525,-646.158081,335.109985,-646.158081C335.938416,-646.158081,336.609985,-645.48645,336.609985,-644.657959z"/>
    <path transform="matrix(-1.030000 0.000000 0.000000 1.030000 -295.135010 897.978943)" style="stroke:#ff0000;stroke-width:0.05mm;fill:none" d="M142.353821,-644.657959C142.353821,-643.82959,141.682251,-643.157959,140.853821,-643.157959C140.025391,-643.157959,139.353882,-643.82959,139.353882,-644.657959C139.353882,-645.48645,140.025391,-646.158081,140.853821,-646.158081C141.682251,-646.158081,142.353821,-645.48645,142.353821,-644.657959z"/>
    <path transform="matrix(-1.030000 0.000000 0.000000 1.030000 -289.897003 899.813904)" style="stroke:#ff0000;stroke-width:0.05mm;fill:none" d="M316.949982,-705.825928C316.949982,-704.997559,316.278412,-704.325928,315.450012,-704.325928C314.621582,-704.325928,313.950012,-704.997559,313.950012,-705.825928C313.950012,-706.654297,314.621582,-707.325928,315.450012,-707.325928C316.278412,-707.325928,316.949982,-706.654297,316.949982,-705.825928z"/>
    <path transform="matrix(-1.030000 0.000000 0.000000 1.030000 -300.963013 897.978943)" style="stroke:#ff0000;stroke-width:0.05mm;fill:none" d="M-51.902344,-644.657959C-51.902344,-643.82959,-52.573853,-643.157959,-53.402344,-643.157959C-54.230713,-643.157959,-54.902344,-643.82959,-54.902344,-644.657959C-54.902344,-645.48645,-54.230713,-646.158081,-53.402344,-646.158081C-52.573853,-646.158081,-51.902344,-645.48645,-51.902344,-644.657959z"/>
    <path transform="matrix(-1.030000 0.000000 0.000000 1.030000 -306.790009 897.978943)" style="stroke:#ff0000;stroke-width:0.05mm;fill:none" d="M-246.158447,-644.657959C-246.158447,-643.82959,-246.830078,-643.157959,-247.658447,-643.157959C-248.486877,-643.157959,-249.158508,-643.82959,-249.158508,-644.657959C-249.158508,-645.48645,-248.486877,-646.158081,-247.658447,-646.158081C-246.830078,-646.158081,-246.158447,-645.48645,-246.158447,-644.657959z"/>
    <path transform="matrix(-1.030000 0.000000 0.000000 1.030000 -306.200989 899.813904)" style="stroke:#ff0000;stroke-width:0.05mm;fill:none" d="M-226.498474,-705.825928C-226.498474,-704.997559,-227.170044,-704.325928,-227.998474,-704.325928C-228.826965,-704.325928,-229.498474,-704.997559,-229.498474,-705.825928C-229.498474,-706.654297,-228.826965,-707.325928,-227.998474,-707.325928C-227.170044,-707.325928,-226.498474,-706.654297,-226.498474,-705.825928z"/>
    <path transform="matrix(-1.019700 0.000000 0.000000 1.019700 -296.209015 454.574005)" style="stroke:#ff0000;stroke-width:0.05mm;fill:none" d="M128.699463,-437.763855L127.400391,-435.513855L124.802368,-435.513855L123.503304,-437.763855L124.802368,-440.013855L127.400391,-440.013855L128.699463,-437.763855z"/>
    <path transform="matrix(-1.019700 0.000000 0.000000 1.019700 -299.454010 454.574005)" style="stroke:#ff0000;stroke-width:0.05mm;fill:none" d="M-36.051819,-437.763855L-37.350891,-435.513855L-39.948914,-435.513855L-41.247925,-437.763855L-39.948914,-440.013855L-37.350891,-440.013855L-36.051819,-437.763855z"/>
    <path transform="matrix(-1.019700 0.000000 0.000000 1.019700 -302.700012 454.574005)" style="stroke:#ff0000;stroke-width:0.05mm;fill:none" d="M-200.803101,-437.763855L-202.102112,-435.513855L-204.700195,-435.513855L-205.999207,-437.763855L-204.700195,-440.013855L-202.102112,-440.013855L-200.803101,-437.763855z"/>
    <path transform="matrix(-1.019700 0.000000 0.000000 1.019700 -303.184998 453.066010)" style="stroke:#ff0000;stroke-width:0.05mm;fill:none" d="M-225.400452,-361.234436L-226.699402,-358.984436L-229.297546,-358.984436L-230.596619,-361.234436L-229.297546,-363.484436L-226.699402,-363.484436L-225.400452,-361.234436z"/>
    <path transform="matrix(-1.019700 0.000000 0.000000 1.019700 -303.571991 451.860992)" style="stroke:#ff0000;stroke-width:0.05mm;fill:none" d="M-245.060425,-300.066528L-246.359436,-297.816528L-248.95752,-297.816528L-250.256531,-300.066528L-248.95752,-302.316467L-246.359436,-302.316467L-245.060425,-300.066528z"/>
    <path transform="matrix(-1.019700 0.000000 0.000000 1.019700 -295.917999 451.860992)" style="stroke:#ff0000;stroke-width:0.05mm;fill:none" d="M143.451904,-300.066528L142.152893,-297.816528L139.55481,-297.816528L138.255737,-300.066528L139.55481,-302.316467L142.152893,-302.316467L143.451904,-300.066528z"/>
    <path transform="matrix(-1.019700 0.000000 0.000000 1.019700 -292.963013 454.574005)" style="stroke:#ff0000;stroke-width:0.05mm;fill:none" d="M293.450745,-437.763855L292.151733,-435.513855L289.55365,-435.513855L288.254578,-437.763855L289.55365,-440.013855L292.151733,-440.013855L293.450745,-437.763855z"/>
    <path transform="matrix(-1.000000 0.000000 0.000000 1.000000 -298.692993 445.950012)" style="stroke:#ff0000;stroke-width:0.05mm;fill:none" d="M-255.945129,-292.066467C-256.185486,-292.066467,-256.417603,-292.094177,-256.651184,-292.150818L-225.995605,-386.137756L-207.605591,-442.519836L295.057068,-442.519836L313.447144,-386.137756L344.102753,-292.150818C343.86911,-292.094177,343.636963,-292.066467,343.396606,-292.066467L-255.945129,-292.066467z"/>
    <path transform="matrix(-1.000000 0.000000 0.000000 1.000000 -298.692993 445.950012)" style="stroke:#ff0000;stroke-width:0.05mm;fill:none" d="M277.975769,-418.409302L277.975769,-328.409302L-190.524292,-328.409302L-190.524292,-418.409302L277.975769,-418.409302z"/>
    <path transform="matrix(-1.019700 0.000000 0.000000 1.019700 -317.561005 531.103027)" style="stroke:#ff0000;stroke-width:0.05mm;fill:none" d="M293.450745,-437.763855L292.151733,-435.513855L289.55365,-435.513855L288.254578,-437.763855L289.55365,-440.013855L292.151733,-440.013855L293.450745,-437.763855z"/>
    <path transform="matrix(-1.019700 0.000000 0.000000 1.019700 -337.221008 592.270996)" style="stroke:#ff0000;stroke-width:0.05mm;fill:none" d="M293.450745,-437.763855L292.151733,-435.513855L289.55365,-435.513855L288.254578,-437.763855L289.55365,-440.013855L292.151733,-440.013855L293.450745,-437.763855z"/>
    <path transform="matrix(-1.019700 0.000000 0.000000 1.019700 51.292000 592.270996)" style="stroke:#ff0000;stroke-width:0.05mm;fill:none" d="M293.450745,-437.763855L292.151733,-435.513855L289.55365,-435.513855L288.254578,-437.763855L289.55365,-440.013855L292.151733,-440.013855L293.450745,-437.763855z"/>
    <path transform="matrix(-1.000000 0.000000 0.000000 1.000000 882.259155 145.365982)" style="stroke:#ff0000;stroke-width:0.05mm;fill:none" d="M1380.772461,57.730713L1398.504761,57.730713C1399.022095,57.730713,1399.469482,57.618042,1399.925171,57.373047L1424.468994,44.179321C1426.290039,43.200317,1426.598145,40.715851,1425.071411,39.321625L1396.721802,13.433136C1396.11792,12.881622,1395.516724,12.648438,1394.69873,12.648438L1246.374268,12.648438C1245.31543,12.648438,1244.334839,13.206726,1243.794434,14.11731L1228.840332,39.313568C1228.009766,40.713074,1228.446533,42.519684,1229.824707,43.385284L1251.935547,57.27121C1252.440186,57.588074,1252.935181,57.730713,1253.531006,57.730713L1257.66333,57.730713C1257.963867,52.954712,1261.924805,49.234955,1266.710205,49.234955L1371.725586,49.234955C1376.510986,49.234955,1380.472168,52.954712,1380.772461,57.730713z"/>
    <path transform="matrix(-1.000000 0.000000 0.000000 1.000000 882.259155 145.365982)" style="stroke:#ff0000;stroke-width:0.05mm;fill:none" d="M1392.458252,14.397217C1392.458252,13.51355,1393.174561,12.797211,1394.058105,12.797211C1394.941895,12.797211,1395.658203,13.51355,1395.658203,14.397217C1395.658203,15.280884,1394.941895,15.997192,1394.058105,15.997192C1393.174561,15.997192,1392.458252,15.280884,1392.458252,14.397217z"/>
    <path transform="matrix(-1.000000 0.000000 0.000000 1.000000 882.259155 145.365982)" style="stroke:#ff0000;stroke-width:0.05mm;fill:none" d="M1396.822021,55.362122C1396.822021,54.478455,1397.53833,53.762115,1398.421997,53.762115C1399.305664,53.762115,1400.021973,54.478455,1400.021973,55.362122C1400.021973,56.245789,1399.305664,56.962128,1398.421997,56.962128C1397.53833,56.962128,1396.822021,56.245789,1396.822021,55.362122z"/>
    <path transform="matrix(-1.000000 0.000000 0.000000 1.000000 882.259155 145.365982)" style="stroke:#ff0000;stroke-width:0.05mm;fill:none" d="M1254.99646,55.362122C1254.99646,56.245789,1254.280151,56.962128,1253.396484,56.962128C1252.512817,56.962128,1251.796387,56.245789,1251.796387,55.362122C1251.796387,54.478455,1252.512817,53.762115,1253.396484,53.762115C1254.280151,53.762115,1254.99646,54.478455,1254.99646,55.362122z"/>
    <path transform="matrix(-1.000000 0.000000 0.000000 1.000000 882.259155 145.365982)" style="stroke:#ff0000;stroke-width:0.05mm;fill:none" d="M1247.526123,14.397217C1247.526123,15.280884,1246.809814,15.997192,1245.926025,15.997192C1245.04248,15.997192,1244.32605,15.280884,1244.32605,14.397217C1244.32605,13.51355,1245.04248,12.797211,1245.926025,12.797211C1246.809814,12.797211,1247.526123,13.51355,1247.526123,14.397217z"/>
    <path transform="matrix(-1.000000 0.000000 0.000000 1.000000 882.259155 145.365982)" style="stroke:#ff0000;stroke-width:0.05mm;fill:none" d="M1381.756714,41.724182C1382.358643,40.106659,1384.157715,39.283295,1385.775391,39.885193C1387.392822,40.487061,1388.216309,42.286255,1387.614258,43.903809C1387.012451,45.521332,1385.213257,46.344696,1383.595703,45.742828C1381.978271,45.14093,1381.154785,43.341736,1381.756714,41.724182z"/>
    <path transform="matrix(-1.000000 0.000000 0.000000 1.000000 882.259155 145.365982)" style="stroke:#ff0000;stroke-width:0.05mm;fill:none" d="M1353.756714,41.724182C1354.358643,40.106659,1356.157715,39.283295,1357.775391,39.885193C1359.392822,40.487061,1360.216187,42.286255,1359.614258,43.903809C1359.012451,45.521332,1357.213257,46.344696,1355.595703,45.742828C1353.978149,45.14093,1353.154785,43.341736,1353.756714,41.724182z"/>
    <path transform="matrix(-1.000000 0.000000 0.000000 1.000000 882.259155 145.365982)" style="stroke:#ff0000;stroke-width:0.05mm;fill:none" d="M1325.756592,41.724182C1326.358643,40.106659,1328.157715,39.283295,1329.775391,39.885193C1331.392822,40.487061,1332.216309,42.286255,1331.614258,43.903809C1331.012451,45.521332,1329.213257,46.344696,1327.595703,45.742828C1325.978271,45.14093,1325.154785,43.341736,1325.756592,41.724182z"/>
    <path transform="matrix(-1.000000 0.000000 0.000000 1.000000 882.259155 145.365982)" style="stroke:#ff0000;stroke-width:0.05mm;fill:none" d="M1297.756592,41.724182C1298.358643,40.106659,1300.157715,39.283295,1301.775391,39.885193C1303.392822,40.487061,1304.216309,42.286255,1303.61438,43.903809C1303.012451,45.521332,1301.213257,46.344696,1299.595703,45.742828C1297.978271,45.14093,1297.154785,43.341736,1297.756592,41.724182z"/>
    <path transform="matrix(-1.000000 0.000000 0.000000 1.000000 882.259155 145.365982)" style="stroke:#ff0000;stroke-width:0.05mm;fill:none" d="M1269.756714,41.724182C1270.358643,40.106659,1272.157715,39.283295,1273.775391,39.885193C1275.392822,40.487061,1276.216187,42.286255,1275.61438,43.903809C1275.012451,45.521332,1273.213257,46.344696,1271.595703,45.742828C1269.978149,45.14093,1269.154785,43.341736,1269.756714,41.724182z"/>
    <path transform="matrix(-1.000000 0.000000 0.000000 1.000000 882.259155 145.365982)" style="stroke:#ff0000;stroke-width:0.05mm;fill:none" d="M1241.756714,41.724182C1242.358643,40.106659,1244.157715,39.283295,1245.775391,39.885193C1247.392822,40.487061,1248.216187,42.286255,1247.614258,43.903809C1247.012451,45.521332,1245.213257,46.344696,1243.595703,45.742828C1241.978149,45.14093,1241.154785,43.341736,1241.756714,41.724182z"/>
    <path transform="matrix(-1.000000 0.000000 0.000000 1.000000 882.259155 145.365982)" style="stroke:#ff0000;stroke-width:0.05mm;fill:none" d="M1071.119507,57.730713L1053.387207,57.730713C1052.869873,57.730713,1052.422485,57.618042,1051.966797,57.373047L1027.423096,44.179321C1025.601929,43.200317,1025.293701,40.715851,1026.820557,39.321625L1055.170166,13.433136C1055.77417,12.881622,1056.375244,12.648438,1057.193115,12.648438L1205.517822,12.648438C1206.57666,12.648438,1207.557129,13.206726,1208.097656,14.11731L1223.051514,39.313568C1223.882324,40.713074,1223.445557,42.519684,1222.067261,43.385284L1199.956543,57.27121C1199.451904,57.588074,1198.956787,57.730713,1198.361084,57.730713L1194.22876,57.730713C1193.928223,52.954712,1189.967163,49.234955,1185.181763,49.234955L1080.166382,49.234955C1075.380981,49.234955,1071.419922,52.954712,1071.119507,57.730713z"/>
    <path transform="matrix(-1.000000 0.000000 0.000000 1.000000 882.259155 145.365982)" style="stroke:#ff0000;stroke-width:0.05mm;fill:none" d="M1059.433838,14.397217C1059.433838,13.51355,1058.717529,12.797211,1057.833862,12.797211C1056.950195,12.797211,1056.233887,13.51355,1056.233887,14.397217C1056.233887,15.280884,1056.950195,15.997192,1057.833862,15.997192C1058.717529,15.997192,1059.433838,15.280884,1059.433838,14.397217z"/>
    <path transform="matrix(-1.000000 0.000000 0.000000 1.000000 882.259155 145.365982)" style="stroke:#ff0000;stroke-width:0.05mm;fill:none" d="M1055.070068,55.362122C1055.070068,54.478455,1054.35376,53.762115,1053.470093,53.762115C1052.586426,53.762115,1051.869995,54.478455,1051.869995,55.362122C1051.869995,56.245789,1052.586426,56.962128,1053.470093,56.962128C1054.35376,56.962128,1055.070068,56.245789,1055.070068,55.362122z"/>
    <path transform="matrix(-1.000000 0.000000 0.000000 1.000000 882.259155 145.365982)" style="stroke:#ff0000;stroke-width:0.05mm;fill:none" d="M1196.895508,55.362122C1196.895508,56.245789,1197.611816,56.962128,1198.495605,56.962128C1199.37915,56.962128,1200.095581,56.245789,1200.095581,55.362122C1200.095581,54.478455,1199.37915,53.762115,1198.495605,53.762115C1197.611816,53.762115,1196.895508,54.478455,1196.895508,55.362122z"/>
    <path transform="matrix(-1.000000 0.000000 0.000000 1.000000 882.259155 145.365982)" style="stroke:#ff0000;stroke-width:0.05mm;fill:none" d="M1204.365967,14.397217C1204.365967,15.280884,1205.082275,15.997192,1205.965942,15.997192C1206.849609,15.997192,1207.565918,15.280884,1207.565918,14.397217C1207.565918,13.51355,1206.849609,12.797211,1205.965942,12.797211C1205.082275,12.797211,1204.365967,13.51355,1204.365967,14.397217z"/>
    <path transform="matrix(-1.000000 0.000000 0.000000 1.000000 882.259155 145.365982)" style="stroke:#ff0000;stroke-width:0.05mm;fill:none" d="M1070.135376,41.724182C1069.533447,40.106659,1067.734253,39.283295,1066.116699,39.885193C1064.499146,40.487061,1063.675781,42.286255,1064.27771,43.903809C1064.879517,45.521332,1066.678711,46.344696,1068.296265,45.742828C1069.913818,45.14093,1070.737183,43.341736,1070.135376,41.724182z"/>
    <path transform="matrix(-1.000000 0.000000 0.000000 1.000000 882.259155 145.365982)" style="stroke:#ff0000;stroke-width:0.05mm;fill:none" d="M1098.135254,41.724182C1097.533447,40.106659,1095.734253,39.283295,1094.116699,39.885193C1092.499146,40.487061,1091.675781,42.286255,1092.277588,43.903809C1092.879517,45.521332,1094.678711,46.344696,1096.296387,45.742828C1097.913818,45.14093,1098.737183,43.341736,1098.135254,41.724182z"/>
    <path transform="matrix(-1.000000 0.000000 0.000000 1.000000 882.259155 145.365982)" style="stroke:#ff0000;stroke-width:0.05mm;fill:none" d="M1126.135254,41.724182C1125.533447,40.106659,1123.734253,39.283295,1122.116699,39.885193C1120.499146,40.487061,1119.675781,42.286255,1120.27771,43.903809C1120.879639,45.521332,1122.678711,46.344696,1124.296265,45.742828C1125.913818,45.14093,1126.737183,43.341736,1126.135254,41.724182z"/>
    <path transform="matrix(-1.000000 0.000000 0.000000 1.000000 882.259155 145.365982)" style="stroke:#ff0000;stroke-width:0.05mm;fill:none" d="M1154.135376,41.724182C1153.533447,40.106659,1151.734253,39.283295,1150.116699,39.885193C1148.499146,40.487061,1147.675781,42.286255,1148.27771,43.903809C1148.879639,45.521332,1150.678711,46.344696,1152.296265,45.742828C1153.913818,45.14093,1154.737183,43.341736,1154.135376,41.724182z"/>
    <path transform="matrix(-1.000000 0.000000 0.000000 1.000000 882.259155 145.365982)" style="stroke:#ff0000;stroke-width:0.05mm;fill:none" d="M1182.135254,41.724182C1181.533447,40.106659,1179.734253,39.283295,1178.116699,39.885193C1176.499146,40.487061,1175.675781,42.286255,1176.27771,43.903809C1176.879517,45.521332,1178.678711,46.344696,1180.296265,45.742828C1181.913818,45.14093,1182.737183,43.341736,1182.135254,41.724182z"/>
    <path transform="matrix(-1.000000 0.000000 0.000000 1.000000 882.259155 145.365982)" style="stroke:#ff0000;stroke-width:0.05mm;fill:none" d="M1210.135254,41.724182C1209.533447,40.106659,1207.734253,39.283295,1206.116699,39.885193C1204.499146,40.487061,1203.675781,42.286255,1204.277588,43.903809C1204.879517,45.521332,1206.678711,46.344696,1208.296265,45.742828C1209.913818,45.14093,1210.737183,43.341736,1210.135254,41.724182z"/>
</svg>
