<?xml version="1.0" encoding="UTF-8"?>
<svg xmlns="http://www.w3.org/2000/svg" width="605.339mm" height="150.453mm" viewBox="-614.135132 10.912079 605.338745 150.453308">
    <path transform="matrix(-1.019700 0.000000 0.000000 1.019700 -265.256012 297.422028)" style="stroke:#ff0000;stroke-width:0.05mm;fill:none" d="M128.699463,-276.311035L127.400391,-274.061035L124.802368,-274.061035L123.503304,-276.311035L124.802368,-278.561035L127.400391,-278.561035L128.699463,-276.311035z"/>
    <path transform="matrix(-1.019700 0.000000 0.000000 1.019700 -268.502014 297.422028)" style="stroke:#ff0000;stroke-width:0.05mm;fill:none" d="M-36.051819,-276.311035L-37.350891,-274.061035L-39.948914,-274.061035L-41.247925,-276.311035L-39.948914,-278.561035L-37.350891,-278.561035L-36.051819,-276.311035z"/>
    <path transform="matrix(-1.019700 0.000000 0.000000 1.019700 -271.747009 297.422028)" style="stroke:#ff0000;stroke-width:0.05mm;fill:none" d="M-200.803101,-276.311035L-202.102112,-274.061035L-204.700195,-274.061035L-205.999207,-276.311035L-204.700195,-278.561035L-202.102112,-278.561035L-200.803101,-276.311035z"/>
    <path transform="matrix(-1.019700 0.000000 0.000000 1.019700 -272.231995 295.914032)" style="stroke:#ff0000;stroke-width:0.05mm;fill:none" d="M-225.400452,-199.781555L-226.699402,-197.531616L-229.297546,-197.531616L-230.596619,-199.781555L-229.297546,-202.031555L-226.699402,-202.031555L-225.400452,-199.781555z"/>
    <path transform="matrix(-1.019700 0.000000 0.000000 1.019700 -272.618988 294.709045)" style="stroke:#ff0000;stroke-width:0.05mm;fill:none" d="M-245.060425,-138.613647L-246.359436,-136.363586L-248.95752,-136.363586L-250.256531,-138.613647L-248.95752,-140.863647L-246.359436,-140.863647L-245.060425,-138.613647z"/>
    <path transform="matrix(-1.019700 0.000000 0.000000 1.019700 -268.791992 294.709045)" style="stroke:#ff0000;stroke-width:0.05mm;fill:none" d="M-50.804199,-138.613647L-52.103271,-136.363586L-54.701294,-136.363586L-56.000427,-138.613647L-54.701294,-140.863647L-52.103271,-140.863647L-50.804199,-138.613647z"/>
    <path transform="matrix(-1.019700 0.000000 0.000000 1.019700 -264.966003 294.709045)" style="stroke:#ff0000;stroke-width:0.05mm;fill:none" d="M143.451904,-138.613647L142.152893,-136.363586L139.55481,-136.363586L138.255737,-138.613647L139.55481,-140.863647L142.152893,-140.863647L143.451904,-138.613647z"/>
    <path transform="matrix(-1.019700 0.000000 0.000000 1.019700 -261.139008 294.709045)" style="stroke:#ff0000;stroke-width:0.05mm;fill:none" d="M337.708069,-138.613647L336.409027,-136.363586L333.810944,-136.363586L332.511932,-138.613647L333.810944,-140.863647L336.409027,-140.863647L337.708069,-138.613647z"/>
    <path transform="matrix(-1.019700 0.000000 0.000000 1.019700 -261.526001 295.914032)" style="stroke:#ff0000;stroke-width:0.05mm;fill:none" d="M318.048065,-199.781555L316.749023,-197.531616L314.15097,-197.531616L312.851929,-199.781555L314.15097,-202.031555L316.749023,-202.031555L318.048065,-199.781555z"/>
    <path transform="matrix(-1.019700 0.000000 0.000000 1.019700 -262.010986 297.422028)" style="stroke:#ff0000;stroke-width:0.05mm;fill:none" d="M293.450745,-276.311035L292.151733,-274.061035L289.55365,-274.061035L288.254578,-276.311035L289.55365,-278.561035L292.151733,-278.561035L293.450745,-276.311035z"/>
    <path transform="matrix(-1.000000 0.000000 0.000000 1.000000 -267.739990 291.979034)" style="stroke:#ff0000;stroke-width:0.05mm;fill:none" d="M-190.524292,-272.016541L-190.524292,-148.191772"/>
    <path transform="matrix(-1.000000 0.000000 0.000000 1.000000 -267.739990 291.979034)" style="stroke:#ff0000;stroke-width:0.05mm;fill:none" d="M-164.524231,-272.016541L-164.524231,-148.191772"/>
    <path transform="matrix(-1.000000 0.000000 0.000000 1.000000 -267.739990 291.979034)" style="stroke:#ff0000;stroke-width:0.05mm;fill:none" d="M-161.02417,-272.016541L-161.02417,-148.191772"/>
    <path transform="matrix(-1.000000 0.000000 0.000000 1.000000 -267.739990 291.979034)" style="stroke:#ff0000;stroke-width:0.05mm;fill:none" d="M-135.024231,-272.016541L-135.024231,-148.191772"/>
    <path transform="matrix(-1.000000 0.000000 0.000000 1.000000 -267.739990 291.979034)" style="stroke:#ff0000;stroke-width:0.05mm;fill:none" d="M-131.524292,-272.016541L-131.524292,-148.191772"/>
    <path transform="matrix(-1.000000 0.000000 0.000000 1.000000 -267.739990 291.979034)" style="stroke:#ff0000;stroke-width:0.05mm;fill:none" d="M-105.524231,-272.016541L-105.524231,-148.191772"/>
    <path transform="matrix(-1.000000 0.000000 0.000000 1.000000 -267.739990 291.979034)" style="stroke:#ff0000;stroke-width:0.05mm;fill:none" d="M-102.024231,-272.016541L-102.024231,-148.191772"/>
    <path transform="matrix(-1.000000 0.000000 0.000000 1.000000 -267.739990 291.979034)" style="stroke:#ff0000;stroke-width:0.05mm;fill:none" d="M-76.024292,-272.016541L-76.024292,-148.191772"/>
    <path transform="matrix(-1.000000 0.000000 0.000000 1.000000 -267.739990 291.979034)" style="stroke:#ff0000;stroke-width:0.05mm;fill:none" d="M-72.524231,-272.016541L-72.524231,-148.191772"/>
    <path transform="matrix(-1.000000 0.000000 0.000000 1.000000 -267.739990 291.979034)" style="stroke:#ff0000;stroke-width:0.05mm;fill:none" d="M-46.524231,-272.016541L-46.524231,-148.191772"/>
    <path transform="matrix(-1.000000 0.000000 0.000000 1.000000 -267.739990 291.979034)" style="stroke:#ff0000;stroke-width:0.05mm;fill:none" d="M-43.024231,-272.016541L-43.024231,-148.191772"/>
    <path transform="matrix(-1.000000 0.000000 0.000000 1.000000 -267.739990 291.979034)" style="stroke:#ff0000;stroke-width:0.05mm;fill:none" d="M-17.024231,-272.016541L-17.024231,-148.191772"/>
    <path transform="matrix(-1.000000 0.000000 0.000000 1.000000 -267.739990 291.979034)" style="stroke:#ff0000;stroke-width:0.05mm;fill:none" d="M-13.524231,-272.016541L-13.524231,-148.191772"/>
    <path transform="matrix(-1.000000 0.000000 0.000000 1.000000 -267.739990 291.979034)" style="stroke:#ff0000;stroke-width:0.05mm;fill:none" d="M12.475769,-272.016541L12.475769,-148.191772"/>
    <path transform="matrix(-1.000000 0.000000 0.000000 1.000000 -267.739990 291.979034)" style="stroke:#ff0000;stroke-width:0.05mm;fill:none" d="M15.975708,-272.016541L15.975708,-148.191772"/>
    <path transform="matrix(-1.000000 0.000000 0.000000 1.000000 -267.739990 291.979034)" style="stroke:#ff0000;stroke-width:0.05mm;fill:none" d="M41.975708,-272.016541L41.975708,-148.191772"/>
    <path transform="matrix(-1.000000 0.000000 0.000000 1.000000 -267.739990 291.979034)" style="stroke:#ff0000;stroke-width:0.05mm;fill:none" d="M45.475708,-272.016541L45.475708,-148.191772"/>
    <path transform="matrix(-1.000000 0.000000 0.000000 1.000000 -267.739990 291.979034)" style="stroke:#ff0000;stroke-width:0.05mm;fill:none" d="M71.475769,-272.016541L71.475769,-148.191772"/>
    <path transform="matrix(-1.000000 0.000000 0.000000 1.000000 -267.739990 291.979034)" style="stroke:#ff0000;stroke-width:0.05mm;fill:none" d="M74.975769,-272.016541L74.975769,-148.191772"/>
    <path transform="matrix(-1.000000 0.000000 0.000000 1.000000 -267.739990 291.979034)" style="stroke:#ff0000;stroke-width:0.05mm;fill:none" d="M100.975769,-272.016541L100.975769,-148.191772"/>
    <path transform="matrix(-1.000000 0.000000 0.000000 1.000000 -267.739990 291.979034)" style="stroke:#ff0000;stroke-width:0.05mm;fill:none" d="M104.475769,-272.016541L104.475769,-148.191772"/>
    <path transform="matrix(-1.000000 0.000000 0.000000 1.000000 -267.739990 291.979034)" style="stroke:#ff0000;stroke-width:0.05mm;fill:none" d="M130.475769,-272.016541L130.475769,-148.191772"/>
    <path transform="matrix(-1.000000 0.000000 0.000000 1.000000 -267.739990 291.979034)" style="stroke:#ff0000;stroke-width:0.05mm;fill:none" d="M133.975769,-272.016541L133.975769,-148.191772"/>
    <path transform="matrix(-1.000000 0.000000 0.000000 1.000000 -267.739990 291.979034)" style="stroke:#ff0000;stroke-width:0.05mm;fill:none" d="M159.975769,-272.016541L159.975769,-148.191772"/>
    <path transform="matrix(-1.000000 0.000000 0.000000 1.000000 -267.739990 291.979034)" style="stroke:#ff0000;stroke-width:0.05mm;fill:none" d="M163.475769,-272.016541L163.475769,-148.191772"/>
    <path transform="matrix(-1.000000 0.000000 0.000000 1.000000 -267.739990 291.979034)" style="stroke:#ff0000;stroke-width:0.05mm;fill:none" d="M189.475769,-272.016541L189.475769,-148.191772"/>
    <path transform="matrix(-1.000000 0.000000 0.000000 1.000000 -267.739990 291.979034)" style="stroke:#ff0000;stroke-width:0.05mm;fill:none" d="M192.975739,-272.016541L192.975739,-148.191772"/>
    <path transform="matrix(-1.000000 0.000000 0.000000 1.000000 -267.739990 291.979034)" style="stroke:#ff0000;stroke-width:0.05mm;fill:none" d="M218.975739,-272.016541L218.975739,-148.191772"/>
    <path transform="matrix(-1.000000 0.000000 0.000000 1.000000 -267.739990 291.979034)" style="stroke:#ff0000;stroke-width:0.05mm;fill:none" d="M222.475739,-272.016541L222.475739,-148.191772"/>
    <path transform="matrix(-1.000000 0.000000 0.000000 1.000000 -267.739990 291.979034)" style="stroke:#ff0000;stroke-width:0.05mm;fill:none" d="M248.475739,-272.016541L248.475739,-148.191772"/>
    <path transform="matrix(-1.000000 0.000000 0.000000 1.000000 -267.739990 291.979034)" style="stroke:#ff0000;stroke-width:0.05mm;fill:none" d="M251.975739,-272.016541L251.975739,-148.191772"/>
    <path transform="matrix(-1.000000 0.000000 0.000000 1.000000 -267.739990 291.979034)" style="stroke:#ff0000;stroke-width:0.05mm;fill:none" d="M277.975769,-272.016541L277.975769,-148.191772"/>
    <path transform="matrix(-1.000000 0.000000 0.000000 1.000000 -267.739990 291.979034)" style="stroke:#ff0000;stroke-width:0.05mm;fill:none" d="M343.396606,-130.613647L-255.945129,-130.613647C-257.98468,-130.613647,-259.429626,-132.604919,-258.79718,-134.543945L-231.166931,-219.255737L-211.681152,-278.997253C-211.278503,-280.231689,-210.12738,-281.066956,-208.828918,-281.066956L296.280457,-281.066956C297.578918,-281.066956,298.72995,-280.231689,299.132599,-278.997253L318.618408,-219.255737L346.248718,-134.543945C346.881165,-132.604919,345.436127,-130.613647,343.396606,-130.613647z"/>
    <path transform="matrix(-1.000000 0.000000 0.000000 1.000000 -267.739990 291.979034)" style="stroke:#ff0000;stroke-width:0.05mm;fill:none" d="M-231.963989,-180.941345C-231.963989,-180.112915,-231.292419,-179.441284,-230.46405,-179.441284C-229.63562,-179.441284,-228.963989,-180.112915,-228.963989,-180.941345C-228.963989,-181.769775,-229.63562,-182.441345,-230.46405,-182.441345C-231.292419,-182.441345,-231.963989,-181.769775,-231.963989,-180.941345z"/>
    <path transform="matrix(-1.000000 0.000000 0.000000 1.000000 -267.739990 291.979034)" style="stroke:#ff0000;stroke-width:0.05mm;fill:none" d="M319.415527,-180.941345C319.415527,-181.769775,318.743927,-182.441345,317.915527,-182.441345C317.087097,-182.441345,316.415527,-181.769775,316.415527,-180.941345C316.415527,-180.112915,317.087097,-179.441284,317.915527,-179.441284C318.743927,-179.441284,319.415527,-180.112915,319.415527,-180.941345z"/>
    <path transform="matrix(-1.000000 0.000000 0.000000 1.000000 -267.739990 291.979034)" style="stroke:#ff0000;stroke-width:0.05mm;fill:none" d="M-212.205994,-241.139526C-212.205994,-240.311035,-211.534485,-239.639465,-210.705994,-239.639465C-209.877563,-239.639465,-209.205994,-240.311035,-209.205994,-241.139526C-209.205994,-241.967896,-209.877563,-242.639526,-210.705994,-242.639526C-211.534485,-242.639526,-212.205994,-241.967896,-212.205994,-241.139526z"/>
    <path transform="matrix(-1.000000 0.000000 0.000000 1.000000 -267.739990 291.979034)" style="stroke:#ff0000;stroke-width:0.05mm;fill:none" d="M299.657471,-241.139526C299.657471,-241.967896,298.985931,-242.639526,298.157501,-242.639526C297.329071,-242.639526,296.657471,-241.967896,296.657471,-241.139526C296.657471,-240.311035,297.329071,-239.639465,298.157501,-239.639465C298.985931,-239.639465,299.657471,-240.311035,299.657471,-241.139526z"/>
    <path transform="matrix(-1.000000 0.000000 0.000000 1.000000 -267.739990 291.979034)" style="stroke:#ff0000;stroke-width:0.05mm;fill:none" d="M37.225769,-276.311035C37.225769,-277.001404,36.666138,-277.561096,35.975769,-277.561096C35.2854,-277.561096,34.725769,-277.001404,34.725769,-276.311035C34.725769,-275.620605,35.2854,-275.060974,35.975769,-275.060974C36.666138,-275.060974,37.225769,-275.620605,37.225769,-276.311035z"/>
    <path transform="matrix(-1.000000 0.000000 0.000000 1.000000 -267.739990 291.979034)" style="stroke:#ff0000;stroke-width:0.05mm;fill:none" d="M50.225769,-276.311035C50.225769,-275.620605,50.785339,-275.060974,51.475769,-275.060974C52.166138,-275.060974,52.725769,-275.620605,52.725769,-276.311035C52.725769,-277.001404,52.166138,-277.561096,51.475769,-277.561096C50.785339,-277.561096,50.225769,-277.001404,50.225769,-276.311035z"/>
    <path transform="matrix(-1.000000 0.000000 0.000000 1.000000 0.000000 0.000000)" style="stroke:none;fill:#fa9ed4;fill-rule:evenodd" d="M478.916626,135.422043L468.516602,135.422043L468.516602,136.022049L478.916626,136.022049L478.916626,135.422043z"/>
    <path transform="matrix(-1.000000 0.000000 0.000000 1.000000 0.000000 0.000000)" style="stroke:none;fill:#a00000;fill-rule:evenodd" d="M478.916626,134.822037L468.516602,134.822037L468.516602,135.422043L478.916626,135.422043L478.916626,134.822037z"/>
    <path transform="matrix(-1.000000 0.000000 0.000000 1.000000 0.000000 0.000000)" style="stroke:none;fill:#0000a0;fill-rule:evenodd" d="M478.916626,134.222031L468.516602,134.222031L468.516602,134.822037L478.916626,134.822037L478.916626,134.222031z"/>
    <path transform="matrix(-1.000000 0.000000 0.000000 1.000000 0.000000 0.000000)" style="stroke:none;fill:#b4b4b4;fill-rule:evenodd" d="M478.916626,133.62204L468.516602,133.62204L468.516602,134.222046L478.916626,134.222046L478.916626,133.62204z"/>
    <path transform="matrix(-1.000000 0.000000 0.000000 1.000000 0.000000 0.000000)" style="stroke:none;fill:#ff00ff;fill-rule:evenodd" d="M478.916626,133.022034L468.516602,133.022034L468.516602,133.62204L478.916626,133.62204L478.916626,133.022034z"/>
    <path transform="matrix(-1.000000 0.000000 0.000000 1.000000 0.000000 0.000000)" style="stroke:none;fill:#00e0e0;fill-rule:evenodd" d="M478.916626,132.422043L468.516602,132.422043L468.516602,133.022049L478.916626,133.022049L478.916626,132.422043z"/>
    <path transform="matrix(-1.000000 0.000000 0.000000 1.000000 0.000000 0.000000)" style="stroke:none;fill:#ff8000;fill-rule:evenodd" d="M478.916626,131.822037L468.516602,131.822037L468.516602,132.422043L478.916626,132.422043L478.916626,131.822037z"/>
    <path transform="matrix(-1.000000 0.000000 0.000000 1.000000 0.000000 0.000000)" style="stroke:none;fill:#d0d000;fill-rule:evenodd" d="M478.916626,131.222031L468.516602,131.222031L468.516602,131.822037L478.916626,131.822037L478.916626,131.222031z"/>
    <path transform="matrix(-1.000000 0.000000 0.000000 1.000000 0.000000 0.000000)" style="stroke:none;fill:#00e000;fill-rule:evenodd" d="M478.916626,130.62204L468.516602,130.62204L468.516602,131.222046L478.916626,131.222046L478.916626,130.62204z"/>
    <path transform="matrix(-1.000000 0.000000 0.000000 1.000000 0.000000 0.000000)" style="stroke:none;fill:#0000ff;fill-rule:evenodd" d="M478.916626,130.022034L468.516602,130.022034L468.516602,130.62204L478.916626,130.62204L478.916626,130.022034z"/>
    <path transform="matrix(-1.000000 0.000000 0.000000 1.000000 0.000000 0.000000)" style="stroke:none;fill:#fa9ed4;fill-rule:evenodd" d="M537.916626,135.422043L527.516602,135.422043L527.516602,136.022049L537.916626,136.022049L537.916626,135.422043z"/>
    <path transform="matrix(-1.000000 0.000000 0.000000 1.000000 0.000000 0.000000)" style="stroke:none;fill:#a00000;fill-rule:evenodd" d="M537.916626,134.822037L527.516602,134.822037L527.516602,135.422043L537.916626,135.422043L537.916626,134.822037z"/>
    <path transform="matrix(-1.000000 0.000000 0.000000 1.000000 0.000000 0.000000)" style="stroke:none;fill:#0000a0;fill-rule:evenodd" d="M537.916626,134.222031L527.516602,134.222031L527.516602,134.822037L537.916626,134.822037L537.916626,134.222031z"/>
    <path transform="matrix(-1.000000 0.000000 0.000000 1.000000 0.000000 0.000000)" style="stroke:none;fill:#b4b4b4;fill-rule:evenodd" d="M537.916626,133.62204L527.516602,133.62204L527.516602,134.222046L537.916626,134.222046L537.916626,133.62204z"/>
    <path transform="matrix(-1.000000 0.000000 0.000000 1.000000 0.000000 0.000000)" style="stroke:none;fill:#ff00ff;fill-rule:evenodd" d="M537.916626,133.022034L527.516602,133.022034L527.516602,133.62204L537.916626,133.62204L537.916626,133.022034z"/>
    <path transform="matrix(-1.000000 0.000000 0.000000 1.000000 0.000000 0.000000)" style="stroke:none;fill:#00e0e0;fill-rule:evenodd" d="M537.916626,132.422043L527.516602,132.422043L527.516602,133.022049L537.916626,133.022049L537.916626,132.422043z"/>
    <path transform="matrix(-1.000000 0.000000 0.000000 1.000000 0.000000 0.000000)" style="stroke:none;fill:#ff8000;fill-rule:evenodd" d="M537.916626,131.822037L527.516602,131.822037L527.516602,132.422043L537.916626,132.422043L537.916626,131.822037z"/>
    <path transform="matrix(-1.000000 0.000000 0.000000 1.000000 0.000000 0.000000)" style="stroke:none;fill:#d0d000;fill-rule:evenodd" d="M537.916626,131.222031L527.516602,131.222031L527.516602,131.822037L537.916626,131.822037L537.916626,131.222031z"/>
    <path transform="matrix(-1.000000 0.000000 0.000000 1.000000 0.000000 0.000000)" style="stroke:none;fill:#00e000;fill-rule:evenodd" d="M537.916626,130.62204L527.516602,130.62204L527.516602,131.222046L537.916626,131.222046L537.916626,130.62204z"/>
    <path transform="matrix(-1.000000 0.000000 0.000000 1.000000 0.000000 0.000000)" style="stroke:none;fill:#0000ff;fill-rule:evenodd" d="M537.916626,130.022034L527.516602,130.022034L527.516602,130.62204L537.916626,130.62204L537.916626,130.022034z"/>
    <path transform="matrix(-1.000000 0.000000 0.000000 1.000000 0.000000 0.000000)" style="stroke:none;fill:#fa9ed4;fill-rule:evenodd" d="M519.441101,135.422043L516.502136,135.422043L516.502136,136.022049L519.441101,136.022049L519.441101,135.422043z"/>
    <path transform="matrix(-1.000000 0.000000 0.000000 1.000000 0.000000 0.000000)" style="stroke:none;fill:#a00000;fill-rule:evenodd" d="M519.441101,134.822037L516.502136,134.822037L516.502136,135.422043L519.441101,135.422043L519.441101,134.822037z"/>
    <path transform="matrix(-1.000000 0.000000 0.000000 1.000000 0.000000 0.000000)" style="stroke:none;fill:#0000a0;fill-rule:evenodd" d="M519.441101,134.222031L516.502136,134.222031L516.502136,134.822037L519.441101,134.822037L519.441101,134.222031z"/>
    <path transform="matrix(-1.000000 0.000000 0.000000 1.000000 0.000000 0.000000)" style="stroke:none;fill:#b4b4b4;fill-rule:evenodd" d="M519.441101,133.62204L516.502136,133.62204L516.502136,134.222046L519.441101,134.222046L519.441101,133.62204z"/>
    <path transform="matrix(-1.000000 0.000000 0.000000 1.000000 0.000000 0.000000)" style="stroke:none;fill:#ff00ff;fill-rule:evenodd" d="M519.441101,133.022034L516.502136,133.022034L516.502136,133.62204L519.441101,133.62204L519.441101,133.022034z"/>
    <path transform="matrix(-1.000000 0.000000 0.000000 1.000000 0.000000 0.000000)" style="stroke:none;fill:#00e0e0;fill-rule:evenodd" d="M519.441101,132.422043L516.502136,132.422043L516.502136,133.022049L519.441101,133.022049L519.441101,132.422043z"/>
    <path transform="matrix(-1.000000 0.000000 0.000000 1.000000 0.000000 0.000000)" style="stroke:none;fill:#ff8000;fill-rule:evenodd" d="M519.441101,131.822037L516.502136,131.822037L516.502136,132.422043L519.441101,132.422043L519.441101,131.822037z"/>
    <path transform="matrix(-1.000000 0.000000 0.000000 1.000000 0.000000 0.000000)" style="stroke:none;fill:#d0d000;fill-rule:evenodd" d="M519.441101,131.222031L516.502136,131.222031L516.502136,131.822037L519.441101,131.822037L519.441101,131.222031z"/>
    <path transform="matrix(-1.000000 0.000000 0.000000 1.000000 0.000000 0.000000)" style="stroke:none;fill:#00e000;fill-rule:evenodd" d="M519.441101,130.62204L516.502136,130.62204L516.502136,131.222046L519.441101,131.222046L519.441101,130.62204z"/>
    <path transform="matrix(-1.000000 0.000000 0.000000 1.000000 0.000000 0.000000)" style="stroke:none;fill:#0000ff;fill-rule:evenodd" d="M519.441101,130.022034L516.502136,130.022034L516.502136,130.62204L519.441101,130.62204L519.441101,130.022034z"/>
    <path transform="matrix(-1.000000 0.000000 0.000000 1.000000 0.000000 0.000000)" style="stroke:none;fill:#fa9ed4;fill-rule:evenodd" d="M508.416626,135.422043L498.016602,135.422043L498.016602,136.022049L508.416626,136.022049L508.416626,135.422043z"/>
    <path transform="matrix(-1.000000 0.000000 0.000000 1.000000 0.000000 0.000000)" style="stroke:none;fill:#a00000;fill-rule:evenodd" d="M508.416626,134.822037L498.016602,134.822037L498.016602,135.422043L508.416626,135.422043L508.416626,134.822037z"/>
    <path transform="matrix(-1.000000 0.000000 0.000000 1.000000 0.000000 0.000000)" style="stroke:none;fill:#0000a0;fill-rule:evenodd" d="M508.416626,134.222031L498.016602,134.222031L498.016602,134.822037L508.416626,134.822037L508.416626,134.222031z"/>
    <path transform="matrix(-1.000000 0.000000 0.000000 1.000000 0.000000 0.000000)" style="stroke:none;fill:#b4b4b4;fill-rule:evenodd" d="M508.416626,133.62204L498.016602,133.62204L498.016602,134.222046L508.416626,134.222046L508.416626,133.62204z"/>
    <path transform="matrix(-1.000000 0.000000 0.000000 1.000000 0.000000 0.000000)" style="stroke:none;fill:#ff00ff;fill-rule:evenodd" d="M508.416626,133.022034L498.016602,133.022034L498.016602,133.62204L508.416626,133.62204L508.416626,133.022034z"/>
    <path transform="matrix(-1.000000 0.000000 0.000000 1.000000 0.000000 0.000000)" style="stroke:none;fill:#00e0e0;fill-rule:evenodd" d="M508.416626,132.422043L498.016602,132.422043L498.016602,133.022049L508.416626,133.022049L508.416626,132.422043z"/>
    <path transform="matrix(-1.000000 0.000000 0.000000 1.000000 0.000000 0.000000)" style="stroke:none;fill:#ff8000;fill-rule:evenodd" d="M508.416626,131.822037L498.016602,131.822037L498.016602,132.422043L508.416626,132.422043L508.416626,131.822037z"/>
    <path transform="matrix(-1.000000 0.000000 0.000000 1.000000 0.000000 0.000000)" style="stroke:none;fill:#d0d000;fill-rule:evenodd" d="M508.416626,131.222031L498.016602,131.222031L498.016602,131.822037L508.416626,131.822037L508.416626,131.222031z"/>
    <path transform="matrix(-1.000000 0.000000 0.000000 1.000000 0.000000 0.000000)" style="stroke:none;fill:#00e000;fill-rule:evenodd" d="M508.416626,130.62204L498.016602,130.62204L498.016602,131.222046L508.416626,131.222046L508.416626,130.62204z"/>
    <path transform="matrix(-1.000000 0.000000 0.000000 1.000000 0.000000 0.000000)" style="stroke:none;fill:#0000ff;fill-rule:evenodd" d="M508.416626,130.022034L498.016602,130.022034L498.016602,130.62204L508.416626,130.62204L508.416626,130.022034z"/>
    <path transform="matrix(-1.000000 0.000000 0.000000 1.000000 0.000000 0.000000)" style="stroke:none;fill:#fa9ed4;fill-rule:evenodd" d="M489.941101,135.422043L487.002136,135.422043L487.002136,136.022049L489.941101,136.022049L489.941101,135.422043z"/>
    <path transform="matrix(-1.000000 0.000000 0.000000 1.000000 0.000000 0.000000)" style="stroke:none;fill:#a00000;fill-rule:evenodd" d="M489.941101,134.822037L487.002136,134.822037L487.002136,135.422043L489.941101,135.422043L489.941101,134.822037z"/>
    <path transform="matrix(-1.000000 0.000000 0.000000 1.000000 0.000000 0.000000)" style="stroke:none;fill:#0000a0;fill-rule:evenodd" d="M489.941101,134.222031L487.002136,134.222031L487.002136,134.822037L489.941101,134.822037L489.941101,134.222031z"/>
    <path transform="matrix(-1.000000 0.000000 0.000000 1.000000 0.000000 0.000000)" style="stroke:none;fill:#b4b4b4;fill-rule:evenodd" d="M489.941101,133.62204L487.002136,133.62204L487.002136,134.222046L489.941101,134.222046L489.941101,133.62204z"/>
    <path transform="matrix(-1.000000 0.000000 0.000000 1.000000 0.000000 0.000000)" style="stroke:none;fill:#ff00ff;fill-rule:evenodd" d="M489.941101,133.022034L487.002136,133.022034L487.002136,133.62204L489.941101,133.62204L489.941101,133.022034z"/>
    <path transform="matrix(-1.000000 0.000000 0.000000 1.000000 0.000000 0.000000)" style="stroke:none;fill:#00e0e0;fill-rule:evenodd" d="M489.941101,132.422043L487.002136,132.422043L487.002136,133.022049L489.941101,133.022049L489.941101,132.422043z"/>
    <path transform="matrix(-1.000000 0.000000 0.000000 1.000000 0.000000 0.000000)" style="stroke:none;fill:#ff8000;fill-rule:evenodd" d="M489.941101,131.822037L487.002136,131.822037L487.002136,132.422043L489.941101,132.422043L489.941101,131.822037z"/>
    <path transform="matrix(-1.000000 0.000000 0.000000 1.000000 0.000000 0.000000)" style="stroke:none;fill:#d0d000;fill-rule:evenodd" d="M489.941101,131.222031L487.002136,131.222031L487.002136,131.822037L489.941101,131.822037L489.941101,131.222031z"/>
    <path transform="matrix(-1.000000 0.000000 0.000000 1.000000 0.000000 0.000000)" style="stroke:none;fill:#00e000;fill-rule:evenodd" d="M489.941101,130.62204L487.002136,130.62204L487.002136,131.222046L489.941101,131.222046L489.941101,130.62204z"/>
    <path transform="matrix(-1.000000 0.000000 0.000000 1.000000 0.000000 0.000000)" style="stroke:none;fill:#0000ff;fill-rule:evenodd" d="M489.941101,130.022034L487.002136,130.022034L487.002136,130.62204L489.941101,130.62204L489.941101,130.022034z"/>
    <path transform="matrix(-1.000000 0.000000 0.000000 1.000000 0.000000 0.000000)" style="stroke:none;fill:#fa9ed4;fill-rule:evenodd" d="M460.441101,135.422043L457.502136,135.422043L457.502136,136.022049L460.441101,136.022049L460.441101,135.422043z"/>
    <path transform="matrix(-1.000000 0.000000 0.000000 1.000000 0.000000 0.000000)" style="stroke:none;fill:#a00000;fill-rule:evenodd" d="M460.441101,134.822037L457.502136,134.822037L457.502136,135.422043L460.441101,135.422043L460.441101,134.822037z"/>
    <path transform="matrix(-1.000000 0.000000 0.000000 1.000000 0.000000 0.000000)" style="stroke:none;fill:#0000a0;fill-rule:evenodd" d="M460.441101,134.222031L457.502136,134.222031L457.502136,134.822037L460.441101,134.822037L460.441101,134.222031z"/>
    <path transform="matrix(-1.000000 0.000000 0.000000 1.000000 0.000000 0.000000)" style="stroke:none;fill:#b4b4b4;fill-rule:evenodd" d="M460.441101,133.62204L457.502136,133.62204L457.502136,134.222046L460.441101,134.222046L460.441101,133.62204z"/>
    <path transform="matrix(-1.000000 0.000000 0.000000 1.000000 0.000000 0.000000)" style="stroke:none;fill:#ff00ff;fill-rule:evenodd" d="M460.441101,133.022034L457.502136,133.022034L457.502136,133.62204L460.441101,133.62204L460.441101,133.022034z"/>
    <path transform="matrix(-1.000000 0.000000 0.000000 1.000000 0.000000 0.000000)" style="stroke:none;fill:#00e0e0;fill-rule:evenodd" d="M460.441101,132.422043L457.502136,132.422043L457.502136,133.022049L460.441101,133.022049L460.441101,132.422043z"/>
    <path transform="matrix(-1.000000 0.000000 0.000000 1.000000 0.000000 0.000000)" style="stroke:none;fill:#ff8000;fill-rule:evenodd" d="M460.441101,131.822037L457.502136,131.822037L457.502136,132.422043L460.441101,132.422043L460.441101,131.822037z"/>
    <path transform="matrix(-1.000000 0.000000 0.000000 1.000000 0.000000 0.000000)" style="stroke:none;fill:#d0d000;fill-rule:evenodd" d="M460.441101,131.222031L457.502136,131.222031L457.502136,131.822037L460.441101,131.822037L460.441101,131.222031z"/>
    <path transform="matrix(-1.000000 0.000000 0.000000 1.000000 0.000000 0.000000)" style="stroke:none;fill:#00e000;fill-rule:evenodd" d="M460.441101,130.62204L457.502136,130.62204L457.502136,131.222046L460.441101,131.222046L460.441101,130.62204z"/>
    <path transform="matrix(-1.000000 0.000000 0.000000 1.000000 0.000000 0.000000)" style="stroke:none;fill:#0000ff;fill-rule:evenodd" d="M460.441101,130.022034L457.502136,130.022034L457.502136,130.62204L460.441101,130.62204L460.441101,130.022034z"/>
    <path transform="matrix(-1.000000 0.000000 0.000000 1.000000 0.000000 0.000000)" style="stroke:none;fill:#fa9ed4;fill-rule:evenodd" d="M449.416626,135.422043L439.016602,135.422043L439.016602,136.022049L449.416626,136.022049L449.416626,135.422043z"/>
    <path transform="matrix(-1.000000 0.000000 0.000000 1.000000 0.000000 0.000000)" style="stroke:none;fill:#a00000;fill-rule:evenodd" d="M449.416626,134.822037L439.016602,134.822037L439.016602,135.422043L449.416626,135.422043L449.416626,134.822037z"/>
    <path transform="matrix(-1.000000 0.000000 0.000000 1.000000 0.000000 0.000000)" style="stroke:none;fill:#0000a0;fill-rule:evenodd" d="M449.416626,134.222031L439.016602,134.222031L439.016602,134.822037L449.416626,134.822037L449.416626,134.222031z"/>
    <path transform="matrix(-1.000000 0.000000 0.000000 1.000000 0.000000 0.000000)" style="stroke:none;fill:#b4b4b4;fill-rule:evenodd" d="M449.416626,133.62204L439.016602,133.62204L439.016602,134.222046L449.416626,134.222046L449.416626,133.62204z"/>
    <path transform="matrix(-1.000000 0.000000 0.000000 1.000000 0.000000 0.000000)" style="stroke:none;fill:#ff00ff;fill-rule:evenodd" d="M449.416626,133.022034L439.016602,133.022034L439.016602,133.62204L449.416626,133.62204L449.416626,133.022034z"/>
    <path transform="matrix(-1.000000 0.000000 0.000000 1.000000 0.000000 0.000000)" style="stroke:none;fill:#00e0e0;fill-rule:evenodd" d="M449.416626,132.422043L439.016602,132.422043L439.016602,133.022049L449.416626,133.022049L449.416626,132.422043z"/>
    <path transform="matrix(-1.000000 0.000000 0.000000 1.000000 0.000000 0.000000)" style="stroke:none;fill:#ff8000;fill-rule:evenodd" d="M449.416626,131.822037L439.016602,131.822037L439.016602,132.422043L449.416626,132.422043L449.416626,131.822037z"/>
    <path transform="matrix(-1.000000 0.000000 0.000000 1.000000 0.000000 0.000000)" style="stroke:none;fill:#d0d000;fill-rule:evenodd" d="M449.416626,131.222031L439.016602,131.222031L439.016602,131.822037L449.416626,131.822037L449.416626,131.222031z"/>
    <path transform="matrix(-1.000000 0.000000 0.000000 1.000000 0.000000 0.000000)" style="stroke:none;fill:#00e000;fill-rule:evenodd" d="M449.416626,130.62204L439.016602,130.62204L439.016602,131.222046L449.416626,131.222046L449.416626,130.62204z"/>
    <path transform="matrix(-1.000000 0.000000 0.000000 1.000000 0.000000 0.000000)" style="stroke:none;fill:#0000ff;fill-rule:evenodd" d="M449.416626,130.022034L439.016602,130.022034L439.016602,130.62204L449.416626,130.62204L449.416626,130.022034z"/>
    <path transform="matrix(-1.000000 0.000000 0.000000 1.000000 0.000000 0.000000)" style="stroke:none;fill:#fa9ed4;fill-rule:evenodd" d="M430.941101,135.422043L428.002136,135.422043L428.002136,136.022049L430.941101,136.022049L430.941101,135.422043z"/>
    <path transform="matrix(-1.000000 0.000000 0.000000 1.000000 0.000000 0.000000)" style="stroke:none;fill:#a00000;fill-rule:evenodd" d="M430.941101,134.822037L428.002136,134.822037L428.002136,135.422043L430.941101,135.422043L430.941101,134.822037z"/>
    <path transform="matrix(-1.000000 0.000000 0.000000 1.000000 0.000000 0.000000)" style="stroke:none;fill:#0000a0;fill-rule:evenodd" d="M430.941101,134.222031L428.002136,134.222031L428.002136,134.822037L430.941101,134.822037L430.941101,134.222031z"/>
    <path transform="matrix(-1.000000 0.000000 0.000000 1.000000 0.000000 0.000000)" style="stroke:none;fill:#b4b4b4;fill-rule:evenodd" d="M430.941101,133.62204L428.002136,133.62204L428.002136,134.222046L430.941101,134.222046L430.941101,133.62204z"/>
    <path transform="matrix(-1.000000 0.000000 0.000000 1.000000 0.000000 0.000000)" style="stroke:none;fill:#ff00ff;fill-rule:evenodd" d="M430.941101,133.022034L428.002136,133.022034L428.002136,133.62204L430.941101,133.62204L430.941101,133.022034z"/>
    <path transform="matrix(-1.000000 0.000000 0.000000 1.000000 0.000000 0.000000)" style="stroke:none;fill:#00e0e0;fill-rule:evenodd" d="M430.941101,132.422043L428.002136,132.422043L428.002136,133.022049L430.941101,133.022049L430.941101,132.422043z"/>
    <path transform="matrix(-1.000000 0.000000 0.000000 1.000000 0.000000 0.000000)" style="stroke:none;fill:#ff8000;fill-rule:evenodd" d="M430.941101,131.822037L428.002136,131.822037L428.002136,132.422043L430.941101,132.422043L430.941101,131.822037z"/>
    <path transform="matrix(-1.000000 0.000000 0.000000 1.000000 0.000000 0.000000)" style="stroke:none;fill:#d0d000;fill-rule:evenodd" d="M430.941101,131.222031L428.002136,131.222031L428.002136,131.822037L430.941101,131.822037L430.941101,131.222031z"/>
    <path transform="matrix(-1.000000 0.000000 0.000000 1.000000 0.000000 0.000000)" style="stroke:none;fill:#00e000;fill-rule:evenodd" d="M430.941101,130.62204L428.002136,130.62204L428.002136,131.222046L430.941101,131.222046L430.941101,130.62204z"/>
    <path transform="matrix(-1.000000 0.000000 0.000000 1.000000 0.000000 0.000000)" style="stroke:none;fill:#0000ff;fill-rule:evenodd" d="M430.941101,130.022034L428.002136,130.022034L428.002136,130.62204L430.941101,130.62204L430.941101,130.022034z"/>
    <path transform="matrix(-1.000000 0.000000 0.000000 1.000000 0.000000 0.000000)" style="stroke:none;fill:#fa9ed4;fill-rule:evenodd" d="M419.916626,135.422043L409.516602,135.422043L409.516602,136.022049L419.916626,136.022049L419.916626,135.422043z"/>
    <path transform="matrix(-1.000000 0.000000 0.000000 1.000000 0.000000 0.000000)" style="stroke:none;fill:#a00000;fill-rule:evenodd" d="M419.916626,134.822037L409.516602,134.822037L409.516602,135.422043L419.916626,135.422043L419.916626,134.822037z"/>
    <path transform="matrix(-1.000000 0.000000 0.000000 1.000000 0.000000 0.000000)" style="stroke:none;fill:#0000a0;fill-rule:evenodd" d="M419.916626,134.222031L409.516602,134.222031L409.516602,134.822037L419.916626,134.822037L419.916626,134.222031z"/>
    <path transform="matrix(-1.000000 0.000000 0.000000 1.000000 0.000000 0.000000)" style="stroke:none;fill:#b4b4b4;fill-rule:evenodd" d="M419.916626,133.62204L409.516602,133.62204L409.516602,134.222046L419.916626,134.222046L419.916626,133.62204z"/>
    <path transform="matrix(-1.000000 0.000000 0.000000 1.000000 0.000000 0.000000)" style="stroke:none;fill:#ff00ff;fill-rule:evenodd" d="M419.916626,133.022034L409.516602,133.022034L409.516602,133.62204L419.916626,133.62204L419.916626,133.022034z"/>
    <path transform="matrix(-1.000000 0.000000 0.000000 1.000000 0.000000 0.000000)" style="stroke:none;fill:#00e0e0;fill-rule:evenodd" d="M419.916626,132.422043L409.516602,132.422043L409.516602,133.022049L419.916626,133.022049L419.916626,132.422043z"/>
    <path transform="matrix(-1.000000 0.000000 0.000000 1.000000 0.000000 0.000000)" style="stroke:none;fill:#ff8000;fill-rule:evenodd" d="M419.916626,131.822037L409.516602,131.822037L409.516602,132.422043L419.916626,132.422043L419.916626,131.822037z"/>
    <path transform="matrix(-1.000000 0.000000 0.000000 1.000000 0.000000 0.000000)" style="stroke:none;fill:#d0d000;fill-rule:evenodd" d="M419.916626,131.222031L409.516602,131.222031L409.516602,131.822037L419.916626,131.822037L419.916626,131.222031z"/>
    <path transform="matrix(-1.000000 0.000000 0.000000 1.000000 0.000000 0.000000)" style="stroke:none;fill:#00e000;fill-rule:evenodd" d="M419.916626,130.62204L409.516602,130.62204L409.516602,131.222046L419.916626,131.222046L419.916626,130.62204z"/>
    <path transform="matrix(-1.000000 0.000000 0.000000 1.000000 0.000000 0.000000)" style="stroke:none;fill:#0000ff;fill-rule:evenodd" d="M419.916626,130.022034L409.516602,130.022034L409.516602,130.62204L419.916626,130.62204L419.916626,130.022034z"/>
    <path transform="matrix(-1.000000 0.000000 0.000000 1.000000 0.000000 0.000000)" style="stroke:none;fill:#fa9ed4;fill-rule:evenodd" d="M401.442078,135.422043L398.503113,135.422043L398.503113,136.022049L401.442078,136.022049L401.442078,135.422043z"/>
    <path transform="matrix(-1.000000 0.000000 0.000000 1.000000 0.000000 0.000000)" style="stroke:none;fill:#a00000;fill-rule:evenodd" d="M401.442078,134.822037L398.503113,134.822037L398.503113,135.422043L401.442078,135.422043L401.442078,134.822037z"/>
    <path transform="matrix(-1.000000 0.000000 0.000000 1.000000 0.000000 0.000000)" style="stroke:none;fill:#0000a0;fill-rule:evenodd" d="M401.442078,134.222031L398.503113,134.222031L398.503113,134.822037L401.442078,134.822037L401.442078,134.222031z"/>
    <path transform="matrix(-1.000000 0.000000 0.000000 1.000000 0.000000 0.000000)" style="stroke:none;fill:#b4b4b4;fill-rule:evenodd" d="M401.442078,133.62204L398.503113,133.62204L398.503113,134.222046L401.442078,134.222046L401.442078,133.62204z"/>
    <path transform="matrix(-1.000000 0.000000 0.000000 1.000000 0.000000 0.000000)" style="stroke:none;fill:#ff00ff;fill-rule:evenodd" d="M401.442078,133.022034L398.503113,133.022034L398.503113,133.62204L401.442078,133.62204L401.442078,133.022034z"/>
    <path transform="matrix(-1.000000 0.000000 0.000000 1.000000 0.000000 0.000000)" style="stroke:none;fill:#00e0e0;fill-rule:evenodd" d="M401.442078,132.422043L398.503113,132.422043L398.503113,133.022049L401.442078,133.022049L401.442078,132.422043z"/>
    <path transform="matrix(-1.000000 0.000000 0.000000 1.000000 0.000000 0.000000)" style="stroke:none;fill:#ff8000;fill-rule:evenodd" d="M401.442078,131.822037L398.503113,131.822037L398.503113,132.422043L401.442078,132.422043L401.442078,131.822037z"/>
    <path transform="matrix(-1.000000 0.000000 0.000000 1.000000 0.000000 0.000000)" style="stroke:none;fill:#d0d000;fill-rule:evenodd" d="M401.442078,131.222031L398.503113,131.222031L398.503113,131.822037L401.442078,131.822037L401.442078,131.222031z"/>
    <path transform="matrix(-1.000000 0.000000 0.000000 1.000000 0.000000 0.000000)" style="stroke:none;fill:#00e000;fill-rule:evenodd" d="M401.442078,130.62204L398.503113,130.62204L398.503113,131.222046L401.442078,131.222046L401.442078,130.62204z"/>
    <path transform="matrix(-1.000000 0.000000 0.000000 1.000000 0.000000 0.000000)" style="stroke:none;fill:#0000ff;fill-rule:evenodd" d="M401.442078,130.022034L398.503113,130.022034L398.503113,130.62204L401.442078,130.62204L401.442078,130.022034z"/>
    <path transform="matrix(-1.000000 0.000000 0.000000 1.000000 0.000000 0.000000)" style="stroke:none;fill:#fa9ed4;fill-rule:evenodd" d="M390.416626,135.422043L380.016602,135.422043L380.016602,136.022049L390.416626,136.022049L390.416626,135.422043z"/>
    <path transform="matrix(-1.000000 0.000000 0.000000 1.000000 0.000000 0.000000)" style="stroke:none;fill:#a00000;fill-rule:evenodd" d="M390.416626,134.822037L380.016602,134.822037L380.016602,135.422043L390.416626,135.422043L390.416626,134.822037z"/>
    <path transform="matrix(-1.000000 0.000000 0.000000 1.000000 0.000000 0.000000)" style="stroke:none;fill:#0000a0;fill-rule:evenodd" d="M390.416626,134.222031L380.016602,134.222031L380.016602,134.822037L390.416626,134.822037L390.416626,134.222031z"/>
    <path transform="matrix(-1.000000 0.000000 0.000000 1.000000 0.000000 0.000000)" style="stroke:none;fill:#b4b4b4;fill-rule:evenodd" d="M390.416626,133.62204L380.016602,133.62204L380.016602,134.222046L390.416626,134.222046L390.416626,133.62204z"/>
    <path transform="matrix(-1.000000 0.000000 0.000000 1.000000 0.000000 0.000000)" style="stroke:none;fill:#ff00ff;fill-rule:evenodd" d="M390.416626,133.022034L380.016602,133.022034L380.016602,133.62204L390.416626,133.62204L390.416626,133.022034z"/>
    <path transform="matrix(-1.000000 0.000000 0.000000 1.000000 0.000000 0.000000)" style="stroke:none;fill:#00e0e0;fill-rule:evenodd" d="M390.416626,132.422043L380.016602,132.422043L380.016602,133.022049L390.416626,133.022049L390.416626,132.422043z"/>
    <path transform="matrix(-1.000000 0.000000 0.000000 1.000000 0.000000 0.000000)" style="stroke:none;fill:#ff8000;fill-rule:evenodd" d="M390.416626,131.822037L380.016602,131.822037L380.016602,132.422043L390.416626,132.422043L390.416626,131.822037z"/>
    <path transform="matrix(-1.000000 0.000000 0.000000 1.000000 0.000000 0.000000)" style="stroke:none;fill:#d0d000;fill-rule:evenodd" d="M390.416626,131.222031L380.016602,131.222031L380.016602,131.822037L390.416626,131.822037L390.416626,131.222031z"/>
    <path transform="matrix(-1.000000 0.000000 0.000000 1.000000 0.000000 0.000000)" style="stroke:none;fill:#00e000;fill-rule:evenodd" d="M390.416626,130.62204L380.016602,130.62204L380.016602,131.222046L390.416626,131.222046L390.416626,130.62204z"/>
    <path transform="matrix(-1.000000 0.000000 0.000000 1.000000 0.000000 0.000000)" style="stroke:none;fill:#0000ff;fill-rule:evenodd" d="M390.416626,130.022034L380.016602,130.022034L380.016602,130.62204L390.416626,130.62204L390.416626,130.022034z"/>
    <path transform="matrix(-1.000000 0.000000 0.000000 1.000000 0.000000 0.000000)" style="stroke:none;fill:#fa9ed4;fill-rule:evenodd" d="M371.942078,135.422043L369.003113,135.422043L369.003113,136.022049L371.942078,136.022049L371.942078,135.422043z"/>
    <path transform="matrix(-1.000000 0.000000 0.000000 1.000000 0.000000 0.000000)" style="stroke:none;fill:#a00000;fill-rule:evenodd" d="M371.942078,134.822037L369.003113,134.822037L369.003113,135.422043L371.942078,135.422043L371.942078,134.822037z"/>
    <path transform="matrix(-1.000000 0.000000 0.000000 1.000000 0.000000 0.000000)" style="stroke:none;fill:#0000a0;fill-rule:evenodd" d="M371.942078,134.222031L369.003113,134.222031L369.003113,134.822037L371.942078,134.822037L371.942078,134.222031z"/>
    <path transform="matrix(-1.000000 0.000000 0.000000 1.000000 0.000000 0.000000)" style="stroke:none;fill:#b4b4b4;fill-rule:evenodd" d="M371.942078,133.62204L369.003113,133.62204L369.003113,134.222046L371.942078,134.222046L371.942078,133.62204z"/>
    <path transform="matrix(-1.000000 0.000000 0.000000 1.000000 0.000000 0.000000)" style="stroke:none;fill:#ff00ff;fill-rule:evenodd" d="M371.942078,133.022034L369.003113,133.022034L369.003113,133.62204L371.942078,133.62204L371.942078,133.022034z"/>
    <path transform="matrix(-1.000000 0.000000 0.000000 1.000000 0.000000 0.000000)" style="stroke:none;fill:#00e0e0;fill-rule:evenodd" d="M371.942078,132.422043L369.003113,132.422043L369.003113,133.022049L371.942078,133.022049L371.942078,132.422043z"/>
    <path transform="matrix(-1.000000 0.000000 0.000000 1.000000 0.000000 0.000000)" style="stroke:none;fill:#ff8000;fill-rule:evenodd" d="M371.942078,131.822037L369.003113,131.822037L369.003113,132.422043L371.942078,132.422043L371.942078,131.822037z"/>
    <path transform="matrix(-1.000000 0.000000 0.000000 1.000000 0.000000 0.000000)" style="stroke:none;fill:#d0d000;fill-rule:evenodd" d="M371.942078,131.222031L369.003113,131.222031L369.003113,131.822037L371.942078,131.822037L371.942078,131.222031z"/>
    <path transform="matrix(-1.000000 0.000000 0.000000 1.000000 0.000000 0.000000)" style="stroke:none;fill:#00e000;fill-rule:evenodd" d="M371.942078,130.62204L369.003113,130.62204L369.003113,131.222046L371.942078,131.222046L371.942078,130.62204z"/>
    <path transform="matrix(-1.000000 0.000000 0.000000 1.000000 0.000000 0.000000)" style="stroke:none;fill:#0000ff;fill-rule:evenodd" d="M371.942078,130.022034L369.003113,130.022034L369.003113,130.62204L371.942078,130.62204L371.942078,130.022034z"/>
    <path transform="matrix(-1.000000 0.000000 0.000000 1.000000 0.000000 0.000000)" style="stroke:none;fill:#fa9ed4;fill-rule:evenodd" d="M360.916626,135.422043L350.516602,135.422043L350.516602,136.022049L360.916626,136.022049L360.916626,135.422043z"/>
    <path transform="matrix(-1.000000 0.000000 0.000000 1.000000 0.000000 0.000000)" style="stroke:none;fill:#a00000;fill-rule:evenodd" d="M360.916626,134.822037L350.516602,134.822037L350.516602,135.422043L360.916626,135.422043L360.916626,134.822037z"/>
    <path transform="matrix(-1.000000 0.000000 0.000000 1.000000 0.000000 0.000000)" style="stroke:none;fill:#0000a0;fill-rule:evenodd" d="M360.916626,134.222031L350.516602,134.222031L350.516602,134.822037L360.916626,134.822037L360.916626,134.222031z"/>
    <path transform="matrix(-1.000000 0.000000 0.000000 1.000000 0.000000 0.000000)" style="stroke:none;fill:#b4b4b4;fill-rule:evenodd" d="M360.916626,133.62204L350.516602,133.62204L350.516602,134.222046L360.916626,134.222046L360.916626,133.62204z"/>
    <path transform="matrix(-1.000000 0.000000 0.000000 1.000000 0.000000 0.000000)" style="stroke:none;fill:#ff00ff;fill-rule:evenodd" d="M360.916626,133.022034L350.516602,133.022034L350.516602,133.62204L360.916626,133.62204L360.916626,133.022034z"/>
    <path transform="matrix(-1.000000 0.000000 0.000000 1.000000 0.000000 0.000000)" style="stroke:none;fill:#00e0e0;fill-rule:evenodd" d="M360.916626,132.422043L350.516602,132.422043L350.516602,133.022049L360.916626,133.022049L360.916626,132.422043z"/>
    <path transform="matrix(-1.000000 0.000000 0.000000 1.000000 0.000000 0.000000)" style="stroke:none;fill:#ff8000;fill-rule:evenodd" d="M360.916626,131.822037L350.516602,131.822037L350.516602,132.422043L360.916626,132.422043L360.916626,131.822037z"/>
    <path transform="matrix(-1.000000 0.000000 0.000000 1.000000 0.000000 0.000000)" style="stroke:none;fill:#d0d000;fill-rule:evenodd" d="M360.916626,131.222031L350.516602,131.222031L350.516602,131.822037L360.916626,131.822037L360.916626,131.222031z"/>
    <path transform="matrix(-1.000000 0.000000 0.000000 1.000000 0.000000 0.000000)" style="stroke:none;fill:#00e000;fill-rule:evenodd" d="M360.916626,130.62204L350.516602,130.62204L350.516602,131.222046L360.916626,131.222046L360.916626,130.62204z"/>
    <path transform="matrix(-1.000000 0.000000 0.000000 1.000000 0.000000 0.000000)" style="stroke:none;fill:#0000ff;fill-rule:evenodd" d="M360.916626,130.022034L350.516602,130.022034L350.516602,130.62204L360.916626,130.62204L360.916626,130.022034z"/>
    <path transform="matrix(-1.000000 0.000000 0.000000 1.000000 0.000000 0.000000)" style="stroke:none;fill:#fa9ed4;fill-rule:evenodd" d="M342.442078,135.422043L339.503113,135.422043L339.503113,136.022049L342.442078,136.022049L342.442078,135.422043z"/>
    <path transform="matrix(-1.000000 0.000000 0.000000 1.000000 0.000000 0.000000)" style="stroke:none;fill:#a00000;fill-rule:evenodd" d="M342.442078,134.822037L339.503113,134.822037L339.503113,135.422043L342.442078,135.422043L342.442078,134.822037z"/>
    <path transform="matrix(-1.000000 0.000000 0.000000 1.000000 0.000000 0.000000)" style="stroke:none;fill:#0000a0;fill-rule:evenodd" d="M342.442078,134.222031L339.503113,134.222031L339.503113,134.822037L342.442078,134.822037L342.442078,134.222031z"/>
    <path transform="matrix(-1.000000 0.000000 0.000000 1.000000 0.000000 0.000000)" style="stroke:none;fill:#b4b4b4;fill-rule:evenodd" d="M342.442078,133.62204L339.503113,133.62204L339.503113,134.222046L342.442078,134.222046L342.442078,133.62204z"/>
    <path transform="matrix(-1.000000 0.000000 0.000000 1.000000 0.000000 0.000000)" style="stroke:none;fill:#ff00ff;fill-rule:evenodd" d="M342.442078,133.022034L339.503113,133.022034L339.503113,133.62204L342.442078,133.62204L342.442078,133.022034z"/>
    <path transform="matrix(-1.000000 0.000000 0.000000 1.000000 0.000000 0.000000)" style="stroke:none;fill:#00e0e0;fill-rule:evenodd" d="M342.442078,132.422043L339.503113,132.422043L339.503113,133.022049L342.442078,133.022049L342.442078,132.422043z"/>
    <path transform="matrix(-1.000000 0.000000 0.000000 1.000000 0.000000 0.000000)" style="stroke:none;fill:#ff8000;fill-rule:evenodd" d="M342.442078,131.822037L339.503113,131.822037L339.503113,132.422043L342.442078,132.422043L342.442078,131.822037z"/>
    <path transform="matrix(-1.000000 0.000000 0.000000 1.000000 0.000000 0.000000)" style="stroke:none;fill:#d0d000;fill-rule:evenodd" d="M342.442078,131.222031L339.503113,131.222031L339.503113,131.822037L342.442078,131.822037L342.442078,131.222031z"/>
    <path transform="matrix(-1.000000 0.000000 0.000000 1.000000 0.000000 0.000000)" style="stroke:none;fill:#00e000;fill-rule:evenodd" d="M342.442078,130.62204L339.503113,130.62204L339.503113,131.222046L342.442078,131.222046L342.442078,130.62204z"/>
    <path transform="matrix(-1.000000 0.000000 0.000000 1.000000 0.000000 0.000000)" style="stroke:none;fill:#0000ff;fill-rule:evenodd" d="M342.442078,130.022034L339.503113,130.022034L339.503113,130.62204L342.442078,130.62204L342.442078,130.022034z"/>
    <path transform="matrix(-1.000000 0.000000 0.000000 1.000000 0.000000 0.000000)" style="stroke:none;fill:#fa9ed4;fill-rule:evenodd" d="M331.416626,135.422043L321.016602,135.422043L321.016602,136.022049L331.416626,136.022049L331.416626,135.422043z"/>
    <path transform="matrix(-1.000000 0.000000 0.000000 1.000000 0.000000 0.000000)" style="stroke:none;fill:#a00000;fill-rule:evenodd" d="M331.416626,134.822037L321.016602,134.822037L321.016602,135.422043L331.416626,135.422043L331.416626,134.822037z"/>
    <path transform="matrix(-1.000000 0.000000 0.000000 1.000000 0.000000 0.000000)" style="stroke:none;fill:#0000a0;fill-rule:evenodd" d="M331.416626,134.222031L321.016602,134.222031L321.016602,134.822037L331.416626,134.822037L331.416626,134.222031z"/>
    <path transform="matrix(-1.000000 0.000000 0.000000 1.000000 0.000000 0.000000)" style="stroke:none;fill:#b4b4b4;fill-rule:evenodd" d="M331.416626,133.62204L321.016602,133.62204L321.016602,134.222046L331.416626,134.222046L331.416626,133.62204z"/>
    <path transform="matrix(-1.000000 0.000000 0.000000 1.000000 0.000000 0.000000)" style="stroke:none;fill:#ff00ff;fill-rule:evenodd" d="M331.416626,133.022034L321.016602,133.022034L321.016602,133.62204L331.416626,133.62204L331.416626,133.022034z"/>
    <path transform="matrix(-1.000000 0.000000 0.000000 1.000000 0.000000 0.000000)" style="stroke:none;fill:#00e0e0;fill-rule:evenodd" d="M331.416626,132.422043L321.016602,132.422043L321.016602,133.022049L331.416626,133.022049L331.416626,132.422043z"/>
    <path transform="matrix(-1.000000 0.000000 0.000000 1.000000 0.000000 0.000000)" style="stroke:none;fill:#ff8000;fill-rule:evenodd" d="M331.416626,131.822037L321.016602,131.822037L321.016602,132.422043L331.416626,132.422043L331.416626,131.822037z"/>
    <path transform="matrix(-1.000000 0.000000 0.000000 1.000000 0.000000 0.000000)" style="stroke:none;fill:#d0d000;fill-rule:evenodd" d="M331.416626,131.222031L321.016602,131.222031L321.016602,131.822037L331.416626,131.822037L331.416626,131.222031z"/>
    <path transform="matrix(-1.000000 0.000000 0.000000 1.000000 0.000000 0.000000)" style="stroke:none;fill:#00e000;fill-rule:evenodd" d="M331.416626,130.62204L321.016602,130.62204L321.016602,131.222046L331.416626,131.222046L331.416626,130.62204z"/>
    <path transform="matrix(-1.000000 0.000000 0.000000 1.000000 0.000000 0.000000)" style="stroke:none;fill:#0000ff;fill-rule:evenodd" d="M331.416626,130.022034L321.016602,130.022034L321.016602,130.62204L331.416626,130.62204L331.416626,130.022034z"/>
    <path transform="matrix(-1.000000 0.000000 0.000000 1.000000 0.000000 0.000000)" style="stroke:none;fill:#fa9ed4;fill-rule:evenodd" d="M312.942078,135.422043L310.003113,135.422043L310.003113,136.022049L312.942078,136.022049L312.942078,135.422043z"/>
    <path transform="matrix(-1.000000 0.000000 0.000000 1.000000 0.000000 0.000000)" style="stroke:none;fill:#a00000;fill-rule:evenodd" d="M312.942078,134.822037L310.003113,134.822037L310.003113,135.422043L312.942078,135.422043L312.942078,134.822037z"/>
    <path transform="matrix(-1.000000 0.000000 0.000000 1.000000 0.000000 0.000000)" style="stroke:none;fill:#0000a0;fill-rule:evenodd" d="M312.942078,134.222031L310.003113,134.222031L310.003113,134.822037L312.942078,134.822037L312.942078,134.222031z"/>
    <path transform="matrix(-1.000000 0.000000 0.000000 1.000000 0.000000 0.000000)" style="stroke:none;fill:#b4b4b4;fill-rule:evenodd" d="M312.942078,133.62204L310.003113,133.62204L310.003113,134.222046L312.942078,134.222046L312.942078,133.62204z"/>
    <path transform="matrix(-1.000000 0.000000 0.000000 1.000000 0.000000 0.000000)" style="stroke:none;fill:#ff00ff;fill-rule:evenodd" d="M312.942078,133.022034L310.003113,133.022034L310.003113,133.62204L312.942078,133.62204L312.942078,133.022034z"/>
    <path transform="matrix(-1.000000 0.000000 0.000000 1.000000 0.000000 0.000000)" style="stroke:none;fill:#00e0e0;fill-rule:evenodd" d="M312.942078,132.422043L310.003113,132.422043L310.003113,133.022049L312.942078,133.022049L312.942078,132.422043z"/>
    <path transform="matrix(-1.000000 0.000000 0.000000 1.000000 0.000000 0.000000)" style="stroke:none;fill:#ff8000;fill-rule:evenodd" d="M312.942078,131.822037L310.003113,131.822037L310.003113,132.422043L312.942078,132.422043L312.942078,131.822037z"/>
    <path transform="matrix(-1.000000 0.000000 0.000000 1.000000 0.000000 0.000000)" style="stroke:none;fill:#d0d000;fill-rule:evenodd" d="M312.942078,131.222031L310.003113,131.222031L310.003113,131.822037L312.942078,131.822037L312.942078,131.222031z"/>
    <path transform="matrix(-1.000000 0.000000 0.000000 1.000000 0.000000 0.000000)" style="stroke:none;fill:#00e000;fill-rule:evenodd" d="M312.942078,130.62204L310.003113,130.62204L310.003113,131.222046L312.942078,131.222046L312.942078,130.62204z"/>
    <path transform="matrix(-1.000000 0.000000 0.000000 1.000000 0.000000 0.000000)" style="stroke:none;fill:#0000ff;fill-rule:evenodd" d="M312.942078,130.022034L310.003113,130.022034L310.003113,130.62204L312.942078,130.62204L312.942078,130.022034z"/>
    <path transform="matrix(-1.000000 0.000000 0.000000 1.000000 0.000000 0.000000)" style="stroke:none;fill:#fa9ed4;fill-rule:evenodd" d="M301.916626,135.422043L291.516541,135.422043L291.516541,136.022049L301.916626,136.022049L301.916626,135.422043z"/>
    <path transform="matrix(-1.000000 0.000000 0.000000 1.000000 0.000000 0.000000)" style="stroke:none;fill:#a00000;fill-rule:evenodd" d="M301.916626,134.822037L291.516541,134.822037L291.516541,135.422043L301.916626,135.422043L301.916626,134.822037z"/>
    <path transform="matrix(-1.000000 0.000000 0.000000 1.000000 0.000000 0.000000)" style="stroke:none;fill:#0000a0;fill-rule:evenodd" d="M301.916626,134.222031L291.516541,134.222031L291.516541,134.822037L301.916626,134.822037L301.916626,134.222031z"/>
    <path transform="matrix(-1.000000 0.000000 0.000000 1.000000 0.000000 0.000000)" style="stroke:none;fill:#b4b4b4;fill-rule:evenodd" d="M301.916626,133.62204L291.516541,133.62204L291.516541,134.222046L301.916626,134.222046L301.916626,133.62204z"/>
    <path transform="matrix(-1.000000 0.000000 0.000000 1.000000 0.000000 0.000000)" style="stroke:none;fill:#ff00ff;fill-rule:evenodd" d="M301.916626,133.022034L291.516541,133.022034L291.516541,133.62204L301.916626,133.62204L301.916626,133.022034z"/>
    <path transform="matrix(-1.000000 0.000000 0.000000 1.000000 0.000000 0.000000)" style="stroke:none;fill:#00e0e0;fill-rule:evenodd" d="M301.916626,132.422043L291.516541,132.422043L291.516541,133.022049L301.916626,133.022049L301.916626,132.422043z"/>
    <path transform="matrix(-1.000000 0.000000 0.000000 1.000000 0.000000 0.000000)" style="stroke:none;fill:#ff8000;fill-rule:evenodd" d="M301.916626,131.822037L291.516541,131.822037L291.516541,132.422043L301.916626,132.422043L301.916626,131.822037z"/>
    <path transform="matrix(-1.000000 0.000000 0.000000 1.000000 0.000000 0.000000)" style="stroke:none;fill:#d0d000;fill-rule:evenodd" d="M301.916626,131.222031L291.516541,131.222031L291.516541,131.822037L301.916626,131.822037L301.916626,131.222031z"/>
    <path transform="matrix(-1.000000 0.000000 0.000000 1.000000 0.000000 0.000000)" style="stroke:none;fill:#00e000;fill-rule:evenodd" d="M301.916626,130.62204L291.516541,130.62204L291.516541,131.222046L301.916626,131.222046L301.916626,130.62204z"/>
    <path transform="matrix(-1.000000 0.000000 0.000000 1.000000 0.000000 0.000000)" style="stroke:none;fill:#0000ff;fill-rule:evenodd" d="M301.916626,130.022034L291.516541,130.022034L291.516541,130.62204L301.916626,130.62204L301.916626,130.022034z"/>
    <path transform="matrix(-1.000000 0.000000 0.000000 1.000000 0.000000 0.000000)" style="stroke:none;fill:#fa9ed4;fill-rule:evenodd" d="M283.442078,135.422043L280.503113,135.422043L280.503113,136.022049L283.442078,136.022049L283.442078,135.422043z"/>
    <path transform="matrix(-1.000000 0.000000 0.000000 1.000000 0.000000 0.000000)" style="stroke:none;fill:#a00000;fill-rule:evenodd" d="M283.442078,134.822037L280.503113,134.822037L280.503113,135.422043L283.442078,135.422043L283.442078,134.822037z"/>
    <path transform="matrix(-1.000000 0.000000 0.000000 1.000000 0.000000 0.000000)" style="stroke:none;fill:#0000a0;fill-rule:evenodd" d="M283.442078,134.222031L280.503113,134.222031L280.503113,134.822037L283.442078,134.822037L283.442078,134.222031z"/>
    <path transform="matrix(-1.000000 0.000000 0.000000 1.000000 0.000000 0.000000)" style="stroke:none;fill:#b4b4b4;fill-rule:evenodd" d="M283.442078,133.62204L280.503113,133.62204L280.503113,134.222046L283.442078,134.222046L283.442078,133.62204z"/>
    <path transform="matrix(-1.000000 0.000000 0.000000 1.000000 0.000000 0.000000)" style="stroke:none;fill:#ff00ff;fill-rule:evenodd" d="M283.442078,133.022034L280.503113,133.022034L280.503113,133.62204L283.442078,133.62204L283.442078,133.022034z"/>
    <path transform="matrix(-1.000000 0.000000 0.000000 1.000000 0.000000 0.000000)" style="stroke:none;fill:#00e0e0;fill-rule:evenodd" d="M283.442078,132.422043L280.503113,132.422043L280.503113,133.022049L283.442078,133.022049L283.442078,132.422043z"/>
    <path transform="matrix(-1.000000 0.000000 0.000000 1.000000 0.000000 0.000000)" style="stroke:none;fill:#ff8000;fill-rule:evenodd" d="M283.442078,131.822037L280.503113,131.822037L280.503113,132.422043L283.442078,132.422043L283.442078,131.822037z"/>
    <path transform="matrix(-1.000000 0.000000 0.000000 1.000000 0.000000 0.000000)" style="stroke:none;fill:#d0d000;fill-rule:evenodd" d="M283.442078,131.222031L280.503113,131.222031L280.503113,131.822037L283.442078,131.822037L283.442078,131.222031z"/>
    <path transform="matrix(-1.000000 0.000000 0.000000 1.000000 0.000000 0.000000)" style="stroke:none;fill:#00e000;fill-rule:evenodd" d="M283.442078,130.62204L280.503113,130.62204L280.503113,131.222046L283.442078,131.222046L283.442078,130.62204z"/>
    <path transform="matrix(-1.000000 0.000000 0.000000 1.000000 0.000000 0.000000)" style="stroke:none;fill:#0000ff;fill-rule:evenodd" d="M283.442078,130.022034L280.503113,130.022034L280.503113,130.62204L283.442078,130.62204L283.442078,130.022034z"/>
    <path transform="matrix(-1.000000 0.000000 0.000000 1.000000 0.000000 0.000000)" style="stroke:none;fill:#fa9ed4;fill-rule:evenodd" d="M272.416626,135.422043L262.016541,135.422043L262.016541,136.022049L272.416626,136.022049L272.416626,135.422043z"/>
    <path transform="matrix(-1.000000 0.000000 0.000000 1.000000 0.000000 0.000000)" style="stroke:none;fill:#a00000;fill-rule:evenodd" d="M272.416626,134.822037L262.016541,134.822037L262.016541,135.422043L272.416626,135.422043L272.416626,134.822037z"/>
    <path transform="matrix(-1.000000 0.000000 0.000000 1.000000 0.000000 0.000000)" style="stroke:none;fill:#0000a0;fill-rule:evenodd" d="M272.416626,134.222031L262.016541,134.222031L262.016541,134.822037L272.416626,134.822037L272.416626,134.222031z"/>
    <path transform="matrix(-1.000000 0.000000 0.000000 1.000000 0.000000 0.000000)" style="stroke:none;fill:#b4b4b4;fill-rule:evenodd" d="M272.416626,133.62204L262.016541,133.62204L262.016541,134.222046L272.416626,134.222046L272.416626,133.62204z"/>
    <path transform="matrix(-1.000000 0.000000 0.000000 1.000000 0.000000 0.000000)" style="stroke:none;fill:#ff00ff;fill-rule:evenodd" d="M272.416626,133.022034L262.016541,133.022034L262.016541,133.62204L272.416626,133.62204L272.416626,133.022034z"/>
    <path transform="matrix(-1.000000 0.000000 0.000000 1.000000 0.000000 0.000000)" style="stroke:none;fill:#00e0e0;fill-rule:evenodd" d="M272.416626,132.422043L262.016541,132.422043L262.016541,133.022049L272.416626,133.022049L272.416626,132.422043z"/>
    <path transform="matrix(-1.000000 0.000000 0.000000 1.000000 0.000000 0.000000)" style="stroke:none;fill:#ff8000;fill-rule:evenodd" d="M272.416626,131.822037L262.016541,131.822037L262.016541,132.422043L272.416626,132.422043L272.416626,131.822037z"/>
    <path transform="matrix(-1.000000 0.000000 0.000000 1.000000 0.000000 0.000000)" style="stroke:none;fill:#d0d000;fill-rule:evenodd" d="M272.416626,131.222031L262.016541,131.222031L262.016541,131.822037L272.416626,131.822037L272.416626,131.222031z"/>
    <path transform="matrix(-1.000000 0.000000 0.000000 1.000000 0.000000 0.000000)" style="stroke:none;fill:#00e000;fill-rule:evenodd" d="M272.416626,130.62204L262.016541,130.62204L262.016541,131.222046L272.416626,131.222046L272.416626,130.62204z"/>
    <path transform="matrix(-1.000000 0.000000 0.000000 1.000000 0.000000 0.000000)" style="stroke:none;fill:#0000ff;fill-rule:evenodd" d="M272.416626,130.022034L262.016541,130.022034L262.016541,130.62204L272.416626,130.62204L272.416626,130.022034z"/>
    <path transform="matrix(-1.000000 0.000000 0.000000 1.000000 0.000000 0.000000)" style="stroke:none;fill:#fa9ed4;fill-rule:evenodd" d="M253.942108,135.422043L251.003113,135.422043L251.003113,136.022049L253.942108,136.022049L253.942108,135.422043z"/>
    <path transform="matrix(-1.000000 0.000000 0.000000 1.000000 0.000000 0.000000)" style="stroke:none;fill:#a00000;fill-rule:evenodd" d="M253.942108,134.822037L251.003113,134.822037L251.003113,135.422043L253.942108,135.422043L253.942108,134.822037z"/>
    <path transform="matrix(-1.000000 0.000000 0.000000 1.000000 0.000000 0.000000)" style="stroke:none;fill:#0000a0;fill-rule:evenodd" d="M253.942108,134.222031L251.003113,134.222031L251.003113,134.822037L253.942108,134.822037L253.942108,134.222031z"/>
    <path transform="matrix(-1.000000 0.000000 0.000000 1.000000 0.000000 0.000000)" style="stroke:none;fill:#b4b4b4;fill-rule:evenodd" d="M253.942108,133.62204L251.003113,133.62204L251.003113,134.222046L253.942108,134.222046L253.942108,133.62204z"/>
    <path transform="matrix(-1.000000 0.000000 0.000000 1.000000 0.000000 0.000000)" style="stroke:none;fill:#ff00ff;fill-rule:evenodd" d="M253.942108,133.022034L251.003113,133.022034L251.003113,133.62204L253.942108,133.62204L253.942108,133.022034z"/>
    <path transform="matrix(-1.000000 0.000000 0.000000 1.000000 0.000000 0.000000)" style="stroke:none;fill:#00e0e0;fill-rule:evenodd" d="M253.942108,132.422043L251.003113,132.422043L251.003113,133.022049L253.942108,133.022049L253.942108,132.422043z"/>
    <path transform="matrix(-1.000000 0.000000 0.000000 1.000000 0.000000 0.000000)" style="stroke:none;fill:#ff8000;fill-rule:evenodd" d="M253.942108,131.822037L251.003113,131.822037L251.003113,132.422043L253.942108,132.422043L253.942108,131.822037z"/>
    <path transform="matrix(-1.000000 0.000000 0.000000 1.000000 0.000000 0.000000)" style="stroke:none;fill:#d0d000;fill-rule:evenodd" d="M253.942108,131.222031L251.003113,131.222031L251.003113,131.822037L253.942108,131.822037L253.942108,131.222031z"/>
    <path transform="matrix(-1.000000 0.000000 0.000000 1.000000 0.000000 0.000000)" style="stroke:none;fill:#00e000;fill-rule:evenodd" d="M253.942108,130.62204L251.003113,130.62204L251.003113,131.222046L253.942108,131.222046L253.942108,130.62204z"/>
    <path transform="matrix(-1.000000 0.000000 0.000000 1.000000 0.000000 0.000000)" style="stroke:none;fill:#0000ff;fill-rule:evenodd" d="M253.942108,130.022034L251.003113,130.022034L251.003113,130.62204L253.942108,130.62204L253.942108,130.022034z"/>
    <path transform="matrix(-1.000000 0.000000 0.000000 1.000000 0.000000 0.000000)" style="stroke:none;fill:#fa9ed4;fill-rule:evenodd" d="M242.916626,135.422043L232.516571,135.422043L232.516571,136.022049L242.916626,136.022049L242.916626,135.422043z"/>
    <path transform="matrix(-1.000000 0.000000 0.000000 1.000000 0.000000 0.000000)" style="stroke:none;fill:#a00000;fill-rule:evenodd" d="M242.916626,134.822037L232.516571,134.822037L232.516571,135.422043L242.916626,135.422043L242.916626,134.822037z"/>
    <path transform="matrix(-1.000000 0.000000 0.000000 1.000000 0.000000 0.000000)" style="stroke:none;fill:#0000a0;fill-rule:evenodd" d="M242.916626,134.222031L232.516571,134.222031L232.516571,134.822037L242.916626,134.822037L242.916626,134.222031z"/>
    <path transform="matrix(-1.000000 0.000000 0.000000 1.000000 0.000000 0.000000)" style="stroke:none;fill:#b4b4b4;fill-rule:evenodd" d="M242.916626,133.62204L232.516571,133.62204L232.516571,134.222046L242.916626,134.222046L242.916626,133.62204z"/>
    <path transform="matrix(-1.000000 0.000000 0.000000 1.000000 0.000000 0.000000)" style="stroke:none;fill:#ff00ff;fill-rule:evenodd" d="M242.916626,133.022034L232.516571,133.022034L232.516571,133.62204L242.916626,133.62204L242.916626,133.022034z"/>
    <path transform="matrix(-1.000000 0.000000 0.000000 1.000000 0.000000 0.000000)" style="stroke:none;fill:#00e0e0;fill-rule:evenodd" d="M242.916626,132.422043L232.516571,132.422043L232.516571,133.022049L242.916626,133.022049L242.916626,132.422043z"/>
    <path transform="matrix(-1.000000 0.000000 0.000000 1.000000 0.000000 0.000000)" style="stroke:none;fill:#ff8000;fill-rule:evenodd" d="M242.916626,131.822037L232.516571,131.822037L232.516571,132.422043L242.916626,132.422043L242.916626,131.822037z"/>
    <path transform="matrix(-1.000000 0.000000 0.000000 1.000000 0.000000 0.000000)" style="stroke:none;fill:#d0d000;fill-rule:evenodd" d="M242.916626,131.222031L232.516571,131.222031L232.516571,131.822037L242.916626,131.822037L242.916626,131.222031z"/>
    <path transform="matrix(-1.000000 0.000000 0.000000 1.000000 0.000000 0.000000)" style="stroke:none;fill:#00e000;fill-rule:evenodd" d="M242.916626,130.62204L232.516571,130.62204L232.516571,131.222046L242.916626,131.222046L242.916626,130.62204z"/>
    <path transform="matrix(-1.000000 0.000000 0.000000 1.000000 0.000000 0.000000)" style="stroke:none;fill:#0000ff;fill-rule:evenodd" d="M242.916626,130.022034L232.516571,130.022034L232.516571,130.62204L242.916626,130.62204L242.916626,130.022034z"/>
    <path transform="matrix(-1.000000 0.000000 0.000000 1.000000 0.000000 0.000000)" style="stroke:none;fill:#fa9ed4;fill-rule:evenodd" d="M224.442108,135.422043L221.503113,135.422043L221.503113,136.022049L224.442108,136.022049L224.442108,135.422043z"/>
    <path transform="matrix(-1.000000 0.000000 0.000000 1.000000 0.000000 0.000000)" style="stroke:none;fill:#a00000;fill-rule:evenodd" d="M224.442108,134.822037L221.503113,134.822037L221.503113,135.422043L224.442108,135.422043L224.442108,134.822037z"/>
    <path transform="matrix(-1.000000 0.000000 0.000000 1.000000 0.000000 0.000000)" style="stroke:none;fill:#0000a0;fill-rule:evenodd" d="M224.442108,134.222031L221.503113,134.222031L221.503113,134.822037L224.442108,134.822037L224.442108,134.222031z"/>
    <path transform="matrix(-1.000000 0.000000 0.000000 1.000000 0.000000 0.000000)" style="stroke:none;fill:#b4b4b4;fill-rule:evenodd" d="M224.442108,133.62204L221.503113,133.62204L221.503113,134.222046L224.442108,134.222046L224.442108,133.62204z"/>
    <path transform="matrix(-1.000000 0.000000 0.000000 1.000000 0.000000 0.000000)" style="stroke:none;fill:#ff00ff;fill-rule:evenodd" d="M224.442108,133.022034L221.503113,133.022034L221.503113,133.62204L224.442108,133.62204L224.442108,133.022034z"/>
    <path transform="matrix(-1.000000 0.000000 0.000000 1.000000 0.000000 0.000000)" style="stroke:none;fill:#00e0e0;fill-rule:evenodd" d="M224.442108,132.422043L221.503113,132.422043L221.503113,133.022049L224.442108,133.022049L224.442108,132.422043z"/>
    <path transform="matrix(-1.000000 0.000000 0.000000 1.000000 0.000000 0.000000)" style="stroke:none;fill:#ff8000;fill-rule:evenodd" d="M224.442108,131.822037L221.503113,131.822037L221.503113,132.422043L224.442108,132.422043L224.442108,131.822037z"/>
    <path transform="matrix(-1.000000 0.000000 0.000000 1.000000 0.000000 0.000000)" style="stroke:none;fill:#d0d000;fill-rule:evenodd" d="M224.442108,131.222031L221.503113,131.222031L221.503113,131.822037L224.442108,131.822037L224.442108,131.222031z"/>
    <path transform="matrix(-1.000000 0.000000 0.000000 1.000000 0.000000 0.000000)" style="stroke:none;fill:#00e000;fill-rule:evenodd" d="M224.442108,130.62204L221.503113,130.62204L221.503113,131.222046L224.442108,131.222046L224.442108,130.62204z"/>
    <path transform="matrix(-1.000000 0.000000 0.000000 1.000000 0.000000 0.000000)" style="stroke:none;fill:#0000ff;fill-rule:evenodd" d="M224.442108,130.022034L221.503113,130.022034L221.503113,130.62204L224.442108,130.62204L224.442108,130.022034z"/>
    <path transform="matrix(-1.000000 0.000000 0.000000 1.000000 0.000000 0.000000)" style="stroke:none;fill:#fa9ed4;fill-rule:evenodd" d="M213.416626,135.422043L203.016571,135.422043L203.016571,136.022049L213.416626,136.022049L213.416626,135.422043z"/>
    <path transform="matrix(-1.000000 0.000000 0.000000 1.000000 0.000000 0.000000)" style="stroke:none;fill:#a00000;fill-rule:evenodd" d="M213.416626,134.822037L203.016571,134.822037L203.016571,135.422043L213.416626,135.422043L213.416626,134.822037z"/>
    <path transform="matrix(-1.000000 0.000000 0.000000 1.000000 0.000000 0.000000)" style="stroke:none;fill:#0000a0;fill-rule:evenodd" d="M213.416626,134.222031L203.016571,134.222031L203.016571,134.822037L213.416626,134.822037L213.416626,134.222031z"/>
    <path transform="matrix(-1.000000 0.000000 0.000000 1.000000 0.000000 0.000000)" style="stroke:none;fill:#b4b4b4;fill-rule:evenodd" d="M213.416626,133.62204L203.016571,133.62204L203.016571,134.222046L213.416626,134.222046L213.416626,133.62204z"/>
    <path transform="matrix(-1.000000 0.000000 0.000000 1.000000 0.000000 0.000000)" style="stroke:none;fill:#ff00ff;fill-rule:evenodd" d="M213.416626,133.022034L203.016571,133.022034L203.016571,133.62204L213.416626,133.62204L213.416626,133.022034z"/>
    <path transform="matrix(-1.000000 0.000000 0.000000 1.000000 0.000000 0.000000)" style="stroke:none;fill:#00e0e0;fill-rule:evenodd" d="M213.416626,132.422043L203.016571,132.422043L203.016571,133.022049L213.416626,133.022049L213.416626,132.422043z"/>
    <path transform="matrix(-1.000000 0.000000 0.000000 1.000000 0.000000 0.000000)" style="stroke:none;fill:#ff8000;fill-rule:evenodd" d="M213.416626,131.822037L203.016571,131.822037L203.016571,132.422043L213.416626,132.422043L213.416626,131.822037z"/>
    <path transform="matrix(-1.000000 0.000000 0.000000 1.000000 0.000000 0.000000)" style="stroke:none;fill:#d0d000;fill-rule:evenodd" d="M213.416626,131.222031L203.016571,131.222031L203.016571,131.822037L213.416626,131.822037L213.416626,131.222031z"/>
    <path transform="matrix(-1.000000 0.000000 0.000000 1.000000 0.000000 0.000000)" style="stroke:none;fill:#00e000;fill-rule:evenodd" d="M213.416626,130.62204L203.016571,130.62204L203.016571,131.222046L213.416626,131.222046L213.416626,130.62204z"/>
    <path transform="matrix(-1.000000 0.000000 0.000000 1.000000 0.000000 0.000000)" style="stroke:none;fill:#0000ff;fill-rule:evenodd" d="M213.416626,130.022034L203.016571,130.022034L203.016571,130.62204L213.416626,130.62204L213.416626,130.022034z"/>
    <path transform="matrix(-1.000000 0.000000 0.000000 1.000000 0.000000 0.000000)" style="stroke:none;fill:#fa9ed4;fill-rule:evenodd" d="M194.941101,135.422043L192.002106,135.422043L192.002106,136.022049L194.941101,136.022049L194.941101,135.422043z"/>
    <path transform="matrix(-1.000000 0.000000 0.000000 1.000000 0.000000 0.000000)" style="stroke:none;fill:#a00000;fill-rule:evenodd" d="M194.941101,134.822037L192.002106,134.822037L192.002106,135.422043L194.941101,135.422043L194.941101,134.822037z"/>
    <path transform="matrix(-1.000000 0.000000 0.000000 1.000000 0.000000 0.000000)" style="stroke:none;fill:#0000a0;fill-rule:evenodd" d="M194.941101,134.222031L192.002106,134.222031L192.002106,134.822037L194.941101,134.822037L194.941101,134.222031z"/>
    <path transform="matrix(-1.000000 0.000000 0.000000 1.000000 0.000000 0.000000)" style="stroke:none;fill:#b4b4b4;fill-rule:evenodd" d="M194.941101,133.62204L192.002106,133.62204L192.002106,134.222046L194.941101,134.222046L194.941101,133.62204z"/>
    <path transform="matrix(-1.000000 0.000000 0.000000 1.000000 0.000000 0.000000)" style="stroke:none;fill:#ff00ff;fill-rule:evenodd" d="M194.941101,133.022034L192.002106,133.022034L192.002106,133.62204L194.941101,133.62204L194.941101,133.022034z"/>
    <path transform="matrix(-1.000000 0.000000 0.000000 1.000000 0.000000 0.000000)" style="stroke:none;fill:#00e0e0;fill-rule:evenodd" d="M194.941101,132.422043L192.002106,132.422043L192.002106,133.022049L194.941101,133.022049L194.941101,132.422043z"/>
    <path transform="matrix(-1.000000 0.000000 0.000000 1.000000 0.000000 0.000000)" style="stroke:none;fill:#ff8000;fill-rule:evenodd" d="M194.941101,131.822037L192.002106,131.822037L192.002106,132.422043L194.941101,132.422043L194.941101,131.822037z"/>
    <path transform="matrix(-1.000000 0.000000 0.000000 1.000000 0.000000 0.000000)" style="stroke:none;fill:#d0d000;fill-rule:evenodd" d="M194.941101,131.222031L192.002106,131.222031L192.002106,131.822037L194.941101,131.822037L194.941101,131.222031z"/>
    <path transform="matrix(-1.000000 0.000000 0.000000 1.000000 0.000000 0.000000)" style="stroke:none;fill:#00e000;fill-rule:evenodd" d="M194.941101,130.62204L192.002106,130.62204L192.002106,131.222046L194.941101,131.222046L194.941101,130.62204z"/>
    <path transform="matrix(-1.000000 0.000000 0.000000 1.000000 0.000000 0.000000)" style="stroke:none;fill:#0000ff;fill-rule:evenodd" d="M194.941101,130.022034L192.002106,130.022034L192.002106,130.62204L194.941101,130.62204L194.941101,130.022034z"/>
    <path transform="matrix(-1.000000 0.000000 0.000000 1.000000 0.000000 0.000000)" style="stroke:none;fill:#fa9ed4;fill-rule:evenodd" d="M183.916626,135.422043L173.516571,135.422043L173.516571,136.022049L183.916626,136.022049L183.916626,135.422043z"/>
    <path transform="matrix(-1.000000 0.000000 0.000000 1.000000 0.000000 0.000000)" style="stroke:none;fill:#a00000;fill-rule:evenodd" d="M183.916626,134.822037L173.516571,134.822037L173.516571,135.422043L183.916626,135.422043L183.916626,134.822037z"/>
    <path transform="matrix(-1.000000 0.000000 0.000000 1.000000 0.000000 0.000000)" style="stroke:none;fill:#0000a0;fill-rule:evenodd" d="M183.916626,134.222031L173.516571,134.222031L173.516571,134.822037L183.916626,134.822037L183.916626,134.222031z"/>
    <path transform="matrix(-1.000000 0.000000 0.000000 1.000000 0.000000 0.000000)" style="stroke:none;fill:#b4b4b4;fill-rule:evenodd" d="M183.916626,133.62204L173.516571,133.62204L173.516571,134.222046L183.916626,134.222046L183.916626,133.62204z"/>
    <path transform="matrix(-1.000000 0.000000 0.000000 1.000000 0.000000 0.000000)" style="stroke:none;fill:#ff00ff;fill-rule:evenodd" d="M183.916626,133.022034L173.516571,133.022034L173.516571,133.62204L183.916626,133.62204L183.916626,133.022034z"/>
    <path transform="matrix(-1.000000 0.000000 0.000000 1.000000 0.000000 0.000000)" style="stroke:none;fill:#00e0e0;fill-rule:evenodd" d="M183.916626,132.422043L173.516571,132.422043L173.516571,133.022049L183.916626,133.022049L183.916626,132.422043z"/>
    <path transform="matrix(-1.000000 0.000000 0.000000 1.000000 0.000000 0.000000)" style="stroke:none;fill:#ff8000;fill-rule:evenodd" d="M183.916626,131.822037L173.516571,131.822037L173.516571,132.422043L183.916626,132.422043L183.916626,131.822037z"/>
    <path transform="matrix(-1.000000 0.000000 0.000000 1.000000 0.000000 0.000000)" style="stroke:none;fill:#d0d000;fill-rule:evenodd" d="M183.916626,131.222031L173.516571,131.222031L173.516571,131.822037L183.916626,131.822037L183.916626,131.222031z"/>
    <path transform="matrix(-1.000000 0.000000 0.000000 1.000000 0.000000 0.000000)" style="stroke:none;fill:#00e000;fill-rule:evenodd" d="M183.916626,130.62204L173.516571,130.62204L173.516571,131.222046L183.916626,131.222046L183.916626,130.62204z"/>
    <path transform="matrix(-1.000000 0.000000 0.000000 1.000000 0.000000 0.000000)" style="stroke:none;fill:#0000ff;fill-rule:evenodd" d="M183.916626,130.022034L173.516571,130.022034L173.516571,130.62204L183.916626,130.62204L183.916626,130.022034z"/>
    <path transform="matrix(-1.000000 0.000000 0.000000 1.000000 0.000000 0.000000)" style="stroke:none;fill:#fa9ed4;fill-rule:evenodd" d="M165.441101,135.422043L162.502106,135.422043L162.502106,136.022049L165.441101,136.022049L165.441101,135.422043z"/>
    <path transform="matrix(-1.000000 0.000000 0.000000 1.000000 0.000000 0.000000)" style="stroke:none;fill:#a00000;fill-rule:evenodd" d="M165.441101,134.822037L162.502106,134.822037L162.502106,135.422043L165.441101,135.422043L165.441101,134.822037z"/>
    <path transform="matrix(-1.000000 0.000000 0.000000 1.000000 0.000000 0.000000)" style="stroke:none;fill:#0000a0;fill-rule:evenodd" d="M165.441101,134.222031L162.502106,134.222031L162.502106,134.822037L165.441101,134.822037L165.441101,134.222031z"/>
    <path transform="matrix(-1.000000 0.000000 0.000000 1.000000 0.000000 0.000000)" style="stroke:none;fill:#b4b4b4;fill-rule:evenodd" d="M165.441101,133.62204L162.502106,133.62204L162.502106,134.222046L165.441101,134.222046L165.441101,133.62204z"/>
    <path transform="matrix(-1.000000 0.000000 0.000000 1.000000 0.000000 0.000000)" style="stroke:none;fill:#ff00ff;fill-rule:evenodd" d="M165.441101,133.022034L162.502106,133.022034L162.502106,133.62204L165.441101,133.62204L165.441101,133.022034z"/>
    <path transform="matrix(-1.000000 0.000000 0.000000 1.000000 0.000000 0.000000)" style="stroke:none;fill:#00e0e0;fill-rule:evenodd" d="M165.441101,132.422043L162.502106,132.422043L162.502106,133.022049L165.441101,133.022049L165.441101,132.422043z"/>
    <path transform="matrix(-1.000000 0.000000 0.000000 1.000000 0.000000 0.000000)" style="stroke:none;fill:#ff8000;fill-rule:evenodd" d="M165.441101,131.822037L162.502106,131.822037L162.502106,132.422043L165.441101,132.422043L165.441101,131.822037z"/>
    <path transform="matrix(-1.000000 0.000000 0.000000 1.000000 0.000000 0.000000)" style="stroke:none;fill:#d0d000;fill-rule:evenodd" d="M165.441101,131.222031L162.502106,131.222031L162.502106,131.822037L165.441101,131.822037L165.441101,131.222031z"/>
    <path transform="matrix(-1.000000 0.000000 0.000000 1.000000 0.000000 0.000000)" style="stroke:none;fill:#00e000;fill-rule:evenodd" d="M165.441101,130.62204L162.502106,130.62204L162.502106,131.222046L165.441101,131.222046L165.441101,130.62204z"/>
    <path transform="matrix(-1.000000 0.000000 0.000000 1.000000 0.000000 0.000000)" style="stroke:none;fill:#0000ff;fill-rule:evenodd" d="M165.441101,130.022034L162.502106,130.022034L162.502106,130.62204L165.441101,130.62204L165.441101,130.022034z"/>
    <path transform="matrix(-1.000000 0.000000 0.000000 1.000000 0.000000 0.000000)" style="stroke:none;fill:#fa9ed4;fill-rule:evenodd" d="M154.416626,135.422043L144.016571,135.422043L144.016571,136.022049L154.416626,136.022049L154.416626,135.422043z"/>
    <path transform="matrix(-1.000000 0.000000 0.000000 1.000000 0.000000 0.000000)" style="stroke:none;fill:#a00000;fill-rule:evenodd" d="M154.416626,134.822037L144.016571,134.822037L144.016571,135.422043L154.416626,135.422043L154.416626,134.822037z"/>
    <path transform="matrix(-1.000000 0.000000 0.000000 1.000000 0.000000 0.000000)" style="stroke:none;fill:#0000a0;fill-rule:evenodd" d="M154.416626,134.222031L144.016571,134.222031L144.016571,134.822037L154.416626,134.822037L154.416626,134.222031z"/>
    <path transform="matrix(-1.000000 0.000000 0.000000 1.000000 0.000000 0.000000)" style="stroke:none;fill:#b4b4b4;fill-rule:evenodd" d="M154.416626,133.62204L144.016571,133.62204L144.016571,134.222046L154.416626,134.222046L154.416626,133.62204z"/>
    <path transform="matrix(-1.000000 0.000000 0.000000 1.000000 0.000000 0.000000)" style="stroke:none;fill:#ff00ff;fill-rule:evenodd" d="M154.416626,133.022034L144.016571,133.022034L144.016571,133.62204L154.416626,133.62204L154.416626,133.022034z"/>
    <path transform="matrix(-1.000000 0.000000 0.000000 1.000000 0.000000 0.000000)" style="stroke:none;fill:#00e0e0;fill-rule:evenodd" d="M154.416626,132.422043L144.016571,132.422043L144.016571,133.022049L154.416626,133.022049L154.416626,132.422043z"/>
    <path transform="matrix(-1.000000 0.000000 0.000000 1.000000 0.000000 0.000000)" style="stroke:none;fill:#ff8000;fill-rule:evenodd" d="M154.416626,131.822037L144.016571,131.822037L144.016571,132.422043L154.416626,132.422043L154.416626,131.822037z"/>
    <path transform="matrix(-1.000000 0.000000 0.000000 1.000000 0.000000 0.000000)" style="stroke:none;fill:#d0d000;fill-rule:evenodd" d="M154.416626,131.222031L144.016571,131.222031L144.016571,131.822037L154.416626,131.822037L154.416626,131.222031z"/>
    <path transform="matrix(-1.000000 0.000000 0.000000 1.000000 0.000000 0.000000)" style="stroke:none;fill:#00e000;fill-rule:evenodd" d="M154.416626,130.62204L144.016571,130.62204L144.016571,131.222046L154.416626,131.222046L154.416626,130.62204z"/>
    <path transform="matrix(-1.000000 0.000000 0.000000 1.000000 0.000000 0.000000)" style="stroke:none;fill:#0000ff;fill-rule:evenodd" d="M154.416626,130.022034L144.016571,130.022034L144.016571,130.62204L154.416626,130.62204L154.416626,130.022034z"/>
    <path transform="matrix(-1.000000 0.000000 0.000000 1.000000 0.000000 0.000000)" style="stroke:none;fill:#fa9ed4;fill-rule:evenodd" d="M135.941101,135.422043L133.002106,135.422043L133.002106,136.022049L135.941101,136.022049L135.941101,135.422043z"/>
    <path transform="matrix(-1.000000 0.000000 0.000000 1.000000 0.000000 0.000000)" style="stroke:none;fill:#a00000;fill-rule:evenodd" d="M135.941101,134.822037L133.002106,134.822037L133.002106,135.422043L135.941101,135.422043L135.941101,134.822037z"/>
    <path transform="matrix(-1.000000 0.000000 0.000000 1.000000 0.000000 0.000000)" style="stroke:none;fill:#0000a0;fill-rule:evenodd" d="M135.941101,134.222031L133.002106,134.222031L133.002106,134.822037L135.941101,134.822037L135.941101,134.222031z"/>
    <path transform="matrix(-1.000000 0.000000 0.000000 1.000000 0.000000 0.000000)" style="stroke:none;fill:#b4b4b4;fill-rule:evenodd" d="M135.941101,133.62204L133.002106,133.62204L133.002106,134.222046L135.941101,134.222046L135.941101,133.62204z"/>
    <path transform="matrix(-1.000000 0.000000 0.000000 1.000000 0.000000 0.000000)" style="stroke:none;fill:#ff00ff;fill-rule:evenodd" d="M135.941101,133.022034L133.002106,133.022034L133.002106,133.62204L135.941101,133.62204L135.941101,133.022034z"/>
    <path transform="matrix(-1.000000 0.000000 0.000000 1.000000 0.000000 0.000000)" style="stroke:none;fill:#00e0e0;fill-rule:evenodd" d="M135.941101,132.422043L133.002106,132.422043L133.002106,133.022049L135.941101,133.022049L135.941101,132.422043z"/>
    <path transform="matrix(-1.000000 0.000000 0.000000 1.000000 0.000000 0.000000)" style="stroke:none;fill:#ff8000;fill-rule:evenodd" d="M135.941101,131.822037L133.002106,131.822037L133.002106,132.422043L135.941101,132.422043L135.941101,131.822037z"/>
    <path transform="matrix(-1.000000 0.000000 0.000000 1.000000 0.000000 0.000000)" style="stroke:none;fill:#d0d000;fill-rule:evenodd" d="M135.941101,131.222031L133.002106,131.222031L133.002106,131.822037L135.941101,131.822037L135.941101,131.222031z"/>
    <path transform="matrix(-1.000000 0.000000 0.000000 1.000000 0.000000 0.000000)" style="stroke:none;fill:#00e000;fill-rule:evenodd" d="M135.941101,130.62204L133.002106,130.62204L133.002106,131.222046L135.941101,131.222046L135.941101,130.62204z"/>
    <path transform="matrix(-1.000000 0.000000 0.000000 1.000000 0.000000 0.000000)" style="stroke:none;fill:#0000ff;fill-rule:evenodd" d="M135.941101,130.022034L133.002106,130.022034L133.002106,130.62204L135.941101,130.62204L135.941101,130.022034z"/>
    <path transform="matrix(-1.000000 0.000000 0.000000 1.000000 0.000000 0.000000)" style="stroke:none;fill:#fa9ed4;fill-rule:evenodd" d="M124.916626,135.422043L114.516571,135.422043L114.516571,136.022049L124.916626,136.022049L124.916626,135.422043z"/>
    <path transform="matrix(-1.000000 0.000000 0.000000 1.000000 0.000000 0.000000)" style="stroke:none;fill:#a00000;fill-rule:evenodd" d="M124.916626,134.822037L114.516571,134.822037L114.516571,135.422043L124.916626,135.422043L124.916626,134.822037z"/>
    <path transform="matrix(-1.000000 0.000000 0.000000 1.000000 0.000000 0.000000)" style="stroke:none;fill:#0000a0;fill-rule:evenodd" d="M124.916626,134.222031L114.516571,134.222031L114.516571,134.822037L124.916626,134.822037L124.916626,134.222031z"/>
    <path transform="matrix(-1.000000 0.000000 0.000000 1.000000 0.000000 0.000000)" style="stroke:none;fill:#b4b4b4;fill-rule:evenodd" d="M124.916626,133.62204L114.516571,133.62204L114.516571,134.222046L124.916626,134.222046L124.916626,133.62204z"/>
    <path transform="matrix(-1.000000 0.000000 0.000000 1.000000 0.000000 0.000000)" style="stroke:none;fill:#ff00ff;fill-rule:evenodd" d="M124.916626,133.022034L114.516571,133.022034L114.516571,133.62204L124.916626,133.62204L124.916626,133.022034z"/>
    <path transform="matrix(-1.000000 0.000000 0.000000 1.000000 0.000000 0.000000)" style="stroke:none;fill:#00e0e0;fill-rule:evenodd" d="M124.916626,132.422043L114.516571,132.422043L114.516571,133.022049L124.916626,133.022049L124.916626,132.422043z"/>
    <path transform="matrix(-1.000000 0.000000 0.000000 1.000000 0.000000 0.000000)" style="stroke:none;fill:#ff8000;fill-rule:evenodd" d="M124.916626,131.822037L114.516571,131.822037L114.516571,132.422043L124.916626,132.422043L124.916626,131.822037z"/>
    <path transform="matrix(-1.000000 0.000000 0.000000 1.000000 0.000000 0.000000)" style="stroke:none;fill:#d0d000;fill-rule:evenodd" d="M124.916626,131.222031L114.516571,131.222031L114.516571,131.822037L124.916626,131.822037L124.916626,131.222031z"/>
    <path transform="matrix(-1.000000 0.000000 0.000000 1.000000 0.000000 0.000000)" style="stroke:none;fill:#00e000;fill-rule:evenodd" d="M124.916626,130.62204L114.516571,130.62204L114.516571,131.222046L124.916626,131.222046L124.916626,130.62204z"/>
    <path transform="matrix(-1.000000 0.000000 0.000000 1.000000 0.000000 0.000000)" style="stroke:none;fill:#0000ff;fill-rule:evenodd" d="M124.916626,130.022034L114.516571,130.022034L114.516571,130.62204L124.916626,130.62204L124.916626,130.022034z"/>
    <path transform="matrix(-1.000000 0.000000 0.000000 1.000000 0.000000 0.000000)" style="stroke:none;fill:#fa9ed4;fill-rule:evenodd" d="M106.441101,135.422043L103.502106,135.422043L103.502106,136.022049L106.441101,136.022049L106.441101,135.422043z"/>
    <path transform="matrix(-1.000000 0.000000 0.000000 1.000000 0.000000 0.000000)" style="stroke:none;fill:#a00000;fill-rule:evenodd" d="M106.441101,134.822037L103.502106,134.822037L103.502106,135.422043L106.441101,135.422043L106.441101,134.822037z"/>
    <path transform="matrix(-1.000000 0.000000 0.000000 1.000000 0.000000 0.000000)" style="stroke:none;fill:#0000a0;fill-rule:evenodd" d="M106.441101,134.222031L103.502106,134.222031L103.502106,134.822037L106.441101,134.822037L106.441101,134.222031z"/>
    <path transform="matrix(-1.000000 0.000000 0.000000 1.000000 0.000000 0.000000)" style="stroke:none;fill:#b4b4b4;fill-rule:evenodd" d="M106.441101,133.62204L103.502106,133.62204L103.502106,134.222046L106.441101,134.222046L106.441101,133.62204z"/>
    <path transform="matrix(-1.000000 0.000000 0.000000 1.000000 0.000000 0.000000)" style="stroke:none;fill:#ff00ff;fill-rule:evenodd" d="M106.441101,133.022034L103.502106,133.022034L103.502106,133.62204L106.441101,133.62204L106.441101,133.022034z"/>
    <path transform="matrix(-1.000000 0.000000 0.000000 1.000000 0.000000 0.000000)" style="stroke:none;fill:#00e0e0;fill-rule:evenodd" d="M106.441101,132.422043L103.502106,132.422043L103.502106,133.022049L106.441101,133.022049L106.441101,132.422043z"/>
    <path transform="matrix(-1.000000 0.000000 0.000000 1.000000 0.000000 0.000000)" style="stroke:none;fill:#ff8000;fill-rule:evenodd" d="M106.441101,131.822037L103.502106,131.822037L103.502106,132.422043L106.441101,132.422043L106.441101,131.822037z"/>
    <path transform="matrix(-1.000000 0.000000 0.000000 1.000000 0.000000 0.000000)" style="stroke:none;fill:#d0d000;fill-rule:evenodd" d="M106.441101,131.222031L103.502106,131.222031L103.502106,131.822037L106.441101,131.822037L106.441101,131.222031z"/>
    <path transform="matrix(-1.000000 0.000000 0.000000 1.000000 0.000000 0.000000)" style="stroke:none;fill:#00e000;fill-rule:evenodd" d="M106.441101,130.62204L103.502106,130.62204L103.502106,131.222046L106.441101,131.222046L106.441101,130.62204z"/>
    <path transform="matrix(-1.000000 0.000000 0.000000 1.000000 0.000000 0.000000)" style="stroke:none;fill:#0000ff;fill-rule:evenodd" d="M106.441101,130.022034L103.502106,130.022034L103.502106,130.62204L106.441101,130.62204L106.441101,130.022034z"/>
    <path transform="matrix(-1.000000 0.000000 0.000000 1.000000 0.000000 0.000000)" style="stroke:none;fill:#fa9ed4;fill-rule:evenodd" d="M95.416931,135.422043L85.016876,135.422043L85.016876,136.022049L95.416931,136.022049L95.416931,135.422043z"/>
    <path transform="matrix(-1.000000 0.000000 0.000000 1.000000 0.000000 0.000000)" style="stroke:none;fill:#a00000;fill-rule:evenodd" d="M95.416931,134.822037L85.016876,134.822037L85.016876,135.422043L95.416931,135.422043L95.416931,134.822037z"/>
    <path transform="matrix(-1.000000 0.000000 0.000000 1.000000 0.000000 0.000000)" style="stroke:none;fill:#0000a0;fill-rule:evenodd" d="M95.416931,134.222031L85.016876,134.222031L85.016876,134.822037L95.416931,134.822037L95.416931,134.222031z"/>
    <path transform="matrix(-1.000000 0.000000 0.000000 1.000000 0.000000 0.000000)" style="stroke:none;fill:#b4b4b4;fill-rule:evenodd" d="M95.416931,133.62204L85.016876,133.62204L85.016876,134.222046L95.416931,134.222046L95.416931,133.62204z"/>
    <path transform="matrix(-1.000000 0.000000 0.000000 1.000000 0.000000 0.000000)" style="stroke:none;fill:#ff00ff;fill-rule:evenodd" d="M95.416931,133.022034L85.016876,133.022034L85.016876,133.62204L95.416931,133.62204L95.416931,133.022034z"/>
    <path transform="matrix(-1.000000 0.000000 0.000000 1.000000 0.000000 0.000000)" style="stroke:none;fill:#00e0e0;fill-rule:evenodd" d="M95.416931,132.422043L85.016876,132.422043L85.016876,133.022049L95.416931,133.022049L95.416931,132.422043z"/>
    <path transform="matrix(-1.000000 0.000000 0.000000 1.000000 0.000000 0.000000)" style="stroke:none;fill:#ff8000;fill-rule:evenodd" d="M95.416931,131.822037L85.016876,131.822037L85.016876,132.422043L95.416931,132.422043L95.416931,131.822037z"/>
    <path transform="matrix(-1.000000 0.000000 0.000000 1.000000 0.000000 0.000000)" style="stroke:none;fill:#d0d000;fill-rule:evenodd" d="M95.416931,131.222031L85.016876,131.222031L85.016876,131.822037L95.416931,131.822037L95.416931,131.222031z"/>
    <path transform="matrix(-1.000000 0.000000 0.000000 1.000000 0.000000 0.000000)" style="stroke:none;fill:#00e000;fill-rule:evenodd" d="M95.416931,130.62204L85.016876,130.62204L85.016876,131.222046L95.416931,131.222046L95.416931,130.62204z"/>
    <path transform="matrix(-1.000000 0.000000 0.000000 1.000000 0.000000 0.000000)" style="stroke:none;fill:#0000ff;fill-rule:evenodd" d="M95.416931,130.022034L85.016876,130.022034L85.016876,130.62204L95.416931,130.62204L95.416931,130.022034z"/>
</svg>
