<?xml version="1.0" encoding="UTF-8"?>
<svg xmlns="http://www.w3.org/2000/svg" width="605.339mm" height="150.453mm" viewBox="-613.253052 1.038864 605.338745 150.453308">
    <path transform="matrix(-1.019700 0.000000 0.000000 1.019700 -264.373901 128.406799)" style="stroke:#ff0000;stroke-width:0.05mm;fill:none" d="M128.699463,-120.243958L127.400391,-117.993958L124.802368,-117.993958L123.503304,-120.243958L124.802368,-122.494019L127.400391,-122.494019L128.699463,-120.243958z"/>
    <path transform="matrix(-1.019700 0.000000 0.000000 1.019700 -267.619904 128.406799)" style="stroke:#ff0000;stroke-width:0.05mm;fill:none" d="M-36.051819,-120.243958L-37.350891,-117.993958L-39.948914,-117.993958L-41.247925,-120.243958L-39.948914,-122.494019L-37.350891,-122.494019L-36.051819,-120.243958z"/>
    <path transform="matrix(-1.019700 0.000000 0.000000 1.019700 -270.864899 128.406799)" style="stroke:#ff0000;stroke-width:0.05mm;fill:none" d="M-200.803101,-120.243958L-202.102112,-117.993958L-204.700195,-117.993958L-205.999207,-120.243958L-204.700195,-122.494019L-202.102112,-122.494019L-200.803101,-120.243958z"/>
    <path transform="matrix(-1.019700 0.000000 0.000000 1.019700 -271.349915 126.899796)" style="stroke:#ff0000;stroke-width:0.05mm;fill:none" d="M-225.400452,-43.7146L-226.699402,-41.464539L-229.297546,-41.464539L-230.596619,-43.7146L-229.297546,-45.964539L-226.699402,-45.964539L-225.400452,-43.7146z"/>
    <path transform="matrix(-1.019700 0.000000 0.000000 1.019700 -271.736908 125.694794)" style="stroke:#ff0000;stroke-width:0.05mm;fill:none" d="M-245.060425,17.4534L-246.359436,19.7034L-248.95752,19.7034L-250.256531,17.4534L-248.95752,15.2034L-246.359436,15.2034L-245.060425,17.4534z"/>
    <path transform="matrix(-1.019700 0.000000 0.000000 1.019700 -267.909912 125.694794)" style="stroke:#ff0000;stroke-width:0.05mm;fill:none" d="M-50.804199,17.4534L-52.103271,19.7034L-54.701294,19.7034L-56.000427,17.4534L-54.701294,15.2034L-52.103271,15.2034L-50.804199,17.4534z"/>
    <path transform="matrix(-1.019700 0.000000 0.000000 1.019700 -264.083893 125.694794)" style="stroke:#ff0000;stroke-width:0.05mm;fill:none" d="M143.451904,17.4534L142.152893,19.7034L139.55481,19.7034L138.255737,17.4534L139.55481,15.2034L142.152893,15.2034L143.451904,17.4534z"/>
    <path transform="matrix(-1.019700 0.000000 0.000000 1.019700 -260.256897 125.694794)" style="stroke:#ff0000;stroke-width:0.05mm;fill:none" d="M337.708069,17.4534L336.409027,19.7034L333.810944,19.7034L332.511932,17.4534L333.810944,15.2034L336.409027,15.2034L337.708069,17.4534z"/>
    <path transform="matrix(-1.019700 0.000000 0.000000 1.019700 -260.643890 126.899796)" style="stroke:#ff0000;stroke-width:0.05mm;fill:none" d="M318.048065,-43.7146L316.749023,-41.464539L314.15097,-41.464539L312.851929,-43.7146L314.15097,-45.964539L316.749023,-45.964539L318.048065,-43.7146z"/>
    <path transform="matrix(-1.019700 0.000000 0.000000 1.019700 -261.128906 128.406799)" style="stroke:#ff0000;stroke-width:0.05mm;fill:none" d="M293.450745,-120.243958L292.151733,-117.993958L289.55365,-117.993958L288.254578,-120.243958L289.55365,-122.494019L292.151733,-122.494019L293.450745,-120.243958z"/>
    <path transform="matrix(-1.000000 0.000000 0.000000 1.000000 -266.857910 126.038803)" style="stroke:#ff0000;stroke-width:0.05mm;fill:none" d="M346.248718,21.523132L318.618408,-63.188782L299.132599,-122.930183C298.72995,-124.164673,297.578918,-124.999939,296.280457,-124.999939L-208.828918,-124.999939C-210.12738,-124.999939,-211.278503,-124.164673,-211.681152,-122.930183L-231.166931,-63.188782L-258.79718,21.523132C-259.429626,23.462128,-257.98468,25.453369,-255.945129,25.453369L343.396606,25.453369C345.436127,25.453369,346.881165,23.462128,346.248718,21.523132z"/>
    <path transform="matrix(-1.000000 0.000000 0.000000 1.000000 -266.857910 126.038803)" style="stroke:#ff0000;stroke-width:0.05mm;fill:none" d="M222.725739,0.110565L218.725769,0.110565L218.725769,-5.889465L222.725739,-5.889465L222.725739,0.110565z"/>
    <path transform="matrix(-1.000000 0.000000 0.000000 1.000000 -266.857910 126.038803)" style="stroke:#ff0000;stroke-width:0.05mm;fill:none" d="M252.225769,-5.889465L252.225769,0.110565L248.225769,0.110565L248.225769,-5.889465L252.225769,-5.889465z"/>
    <path transform="matrix(-1.000000 0.000000 0.000000 1.000000 -266.857910 126.038803)" style="stroke:#ff0000;stroke-width:0.05mm;fill:none" d="M267.975708,-4.389404L270.175751,-4.389404L270.175751,-1.389435L267.975708,-1.389435L267.975708,0.110565L261.975739,0.110565L261.975739,-1.389435L259.775757,-1.389435L259.775757,-4.389404L261.975739,-4.389404L261.975739,-5.889465L267.975708,-5.889465L267.975708,-4.389404z"/>
    <path transform="matrix(-1.000000 0.000000 0.000000 1.000000 -266.857910 126.038803)" style="stroke:#ff0000;stroke-width:0.05mm;fill:none" d="M230.275726,-1.389435L230.275726,-4.389404L232.475739,-4.389404L232.475739,-5.889465L238.475769,-5.889465L238.475769,-4.389404L240.675751,-4.389404L240.675751,-1.389435L238.475769,-1.389435L238.475769,0.110565L232.475739,0.110565L232.475739,-1.389435L230.275726,-1.389435z"/>
    <path transform="matrix(-1.000000 0.000000 0.000000 1.000000 -266.857910 126.038803)" style="stroke:#ff0000;stroke-width:0.05mm;fill:none" d="M171.275757,-1.389435L171.275757,-4.389404L173.475769,-4.389404L173.475769,-5.889465L179.475769,-5.889465L179.475769,-4.389404L181.67572,-4.389404L181.67572,-1.389435L179.475769,-1.389435L179.475769,0.110565L173.475769,0.110565L173.475769,-1.389435L171.275757,-1.389435z"/>
    <path transform="matrix(-1.000000 0.000000 0.000000 1.000000 -266.857910 126.038803)" style="stroke:#ff0000;stroke-width:0.05mm;fill:none" d="M208.975739,-4.389404L211.175751,-4.389404L211.175751,-1.389435L208.975739,-1.389435L208.975739,0.110565L202.975769,0.110565L202.975769,-1.389435L200.775787,-1.389435L200.775787,-4.389404L202.975769,-4.389404L202.975769,-5.889465L208.975739,-5.889465L208.975739,-4.389404z"/>
    <path transform="matrix(-1.000000 0.000000 0.000000 1.000000 -266.857910 126.038803)" style="stroke:#ff0000;stroke-width:0.05mm;fill:none" d="M193.225769,-5.889465L193.225769,0.110565L189.225739,0.110565L189.225739,-5.889465L193.225769,-5.889465z"/>
    <path transform="matrix(-1.000000 0.000000 0.000000 1.000000 -266.857910 126.038803)" style="stroke:#ff0000;stroke-width:0.05mm;fill:none" d="M163.725769,0.110565L159.725769,0.110565L159.725769,-5.889465L163.725769,-5.889465L163.725769,0.110565z"/>
    <path transform="matrix(-1.000000 0.000000 0.000000 1.000000 -266.857910 126.038803)" style="stroke:#ff0000;stroke-width:0.05mm;fill:none" d="M45.725708,0.110565L41.725769,0.110565L41.725769,-5.889465L45.725708,-5.889465L45.725708,0.110565z"/>
    <path transform="matrix(-1.000000 0.000000 0.000000 1.000000 -266.857910 126.038803)" style="stroke:#ff0000;stroke-width:0.05mm;fill:none" d="M75.225769,-5.889465L75.225769,0.110565L71.225769,0.110565L71.225769,-5.889465L75.225769,-5.889465z"/>
    <path transform="matrix(-1.000000 0.000000 0.000000 1.000000 -266.857910 126.038803)" style="stroke:#ff0000;stroke-width:0.05mm;fill:none" d="M90.975769,-4.389404L93.175781,-4.389404L93.175781,-1.389435L90.975769,-1.389435L90.975769,0.110565L84.975708,0.110565L84.975708,-1.389435L82.775757,-1.389435L82.775757,-4.389404L84.975708,-4.389404L84.975708,-5.889465L90.975769,-5.889465L90.975769,-4.389404z"/>
    <path transform="matrix(-1.000000 0.000000 0.000000 1.000000 -266.857910 126.038803)" style="stroke:#ff0000;stroke-width:0.05mm;fill:none" d="M53.275757,-1.389435L53.275757,-4.389404L55.475708,-4.389404L55.475708,-5.889465L61.475769,-5.889465L61.475769,-4.389404L63.67572,-4.389404L63.67572,-1.389435L61.475769,-1.389435L61.475769,0.110565L55.475708,0.110565L55.475708,-1.389435L53.275757,-1.389435z"/>
    <path transform="matrix(-1.000000 0.000000 0.000000 1.000000 -266.857910 126.038803)" style="stroke:#ff0000;stroke-width:0.05mm;fill:none" d="M112.275757,-1.389435L112.275757,-4.389404L114.475769,-4.389404L114.475769,-5.889465L120.475769,-5.889465L120.475769,-4.389404L122.675781,-4.389404L122.675781,-1.389435L120.475769,-1.389435L120.475769,0.110565L114.475769,0.110565L114.475769,-1.389435L112.275757,-1.389435z"/>
    <path transform="matrix(-1.000000 0.000000 0.000000 1.000000 -266.857910 126.038803)" style="stroke:#ff0000;stroke-width:0.05mm;fill:none" d="M149.975769,-4.389404L152.175781,-4.389404L152.175781,-1.389435L149.975769,-1.389435L149.975769,0.110565L143.975769,0.110565L143.975769,-1.389435L141.775757,-1.389435L141.775757,-4.389404L143.975769,-4.389404L143.975769,-5.889465L149.975769,-5.889465L149.975769,-4.389404z"/>
    <path transform="matrix(-1.000000 0.000000 0.000000 1.000000 -266.857910 126.038803)" style="stroke:#ff0000;stroke-width:0.05mm;fill:none" d="M134.225769,-5.889465L134.225769,0.110565L130.225708,0.110565L130.225708,-5.889465L134.225769,-5.889465z"/>
    <path transform="matrix(-1.000000 0.000000 0.000000 1.000000 -266.857910 126.038803)" style="stroke:#ff0000;stroke-width:0.05mm;fill:none" d="M104.725708,0.110565L100.725769,0.110565L100.725769,-5.889465L104.725708,-5.889465L104.725708,0.110565z"/>
    <path transform="matrix(-1.000000 0.000000 0.000000 1.000000 -266.857910 126.038803)" style="stroke:#ff0000;stroke-width:0.05mm;fill:none" d="M-131.274231,0.110565L-135.274231,0.110565L-135.274231,-5.889465L-131.274231,-5.889465L-131.274231,0.110565z"/>
    <path transform="matrix(-1.000000 0.000000 0.000000 1.000000 -266.857910 126.038803)" style="stroke:#ff0000;stroke-width:0.05mm;fill:none" d="M-101.774231,-5.889465L-101.774231,0.110565L-105.774231,0.110565L-105.774231,-5.889465L-101.774231,-5.889465z"/>
    <path transform="matrix(-1.000000 0.000000 0.000000 1.000000 -266.857910 126.038803)" style="stroke:#ff0000;stroke-width:0.05mm;fill:none" d="M-86.024231,-4.389404L-83.82428,-4.389404L-83.82428,-1.389435L-86.024231,-1.389435L-86.024231,0.110565L-92.024292,0.110565L-92.024292,-1.389435L-94.224243,-1.389435L-94.224243,-4.389404L-92.024292,-4.389404L-92.024292,-5.889465L-86.024231,-5.889465L-86.024231,-4.389404z"/>
    <path transform="matrix(-1.000000 0.000000 0.000000 1.000000 -266.857910 126.038803)" style="stroke:#ff0000;stroke-width:0.05mm;fill:none" d="M-123.724243,-1.389435L-123.724243,-4.389404L-121.52417,-4.389404L-121.52417,-5.889465L-115.524292,-5.889465L-115.524292,-4.389404L-113.32428,-4.389404L-113.32428,-1.389435L-115.524292,-1.389435L-115.524292,0.110565L-121.52417,0.110565L-121.52417,-1.389435L-123.724243,-1.389435z"/>
    <path transform="matrix(-1.000000 0.000000 0.000000 1.000000 -266.857910 126.038803)" style="stroke:#ff0000;stroke-width:0.05mm;fill:none" d="M-182.724243,-1.389435L-182.724243,-4.389404L-180.524231,-4.389404L-180.524231,-5.889465L-174.524231,-5.889465L-174.524231,-4.389404L-172.324219,-4.389404L-172.324219,-1.389435L-174.524231,-1.389435L-174.524231,0.110565L-180.524231,0.110565L-180.524231,-1.389435L-182.724243,-1.389435z"/>
    <path transform="matrix(-1.000000 0.000000 0.000000 1.000000 -266.857910 126.038803)" style="stroke:#ff0000;stroke-width:0.05mm;fill:none" d="M-145.024231,-4.389404L-142.82428,-4.389404L-142.82428,-1.389435L-145.024231,-1.389435L-145.024231,0.110565L-151.024292,0.110565L-151.024292,-1.389435L-153.224243,-1.389435L-153.224243,-4.389404L-151.024292,-4.389404L-151.024292,-5.889465L-145.024231,-5.889465L-145.024231,-4.389404z"/>
    <path transform="matrix(-1.000000 0.000000 0.000000 1.000000 -266.857910 126.038803)" style="stroke:#ff0000;stroke-width:0.05mm;fill:none" d="M-160.774231,-5.889465L-160.774231,0.110565L-164.774292,0.110565L-164.774292,-5.889465L-160.774231,-5.889465z"/>
    <path transform="matrix(-1.000000 0.000000 0.000000 1.000000 -266.857910 126.038803)" style="stroke:#ff0000;stroke-width:0.05mm;fill:none" d="M54.362549,-120.243958L52.919128,-117.744019L50.03241,-117.744019L48.588989,-120.243958L50.03241,-122.744019L52.919128,-122.744019L54.362549,-120.243958z"/>
    <path transform="matrix(-1.000000 0.000000 0.000000 1.000000 -266.857910 126.038803)" style="stroke:#ff0000;stroke-width:0.05mm;fill:none" d="M33.088989,-120.243958L34.53241,-122.744019L37.419128,-122.744019L38.862549,-120.243958L37.419128,-117.744019L34.53241,-117.744019L33.088989,-120.243958z"/>
    <path transform="matrix(-1.000000 0.000000 0.000000 1.000000 -266.857910 126.038803)" style="stroke:#ff0000;stroke-width:0.05mm;fill:none" d="M-230.46405,-28.049744L-227.713989,-26.462036L-227.713989,-23.286621L-230.46405,-21.698914L-233.213989,-23.286621L-233.213989,-26.462036L-230.46405,-28.049744z"/>
    <path transform="matrix(-1.000000 0.000000 0.000000 1.000000 -266.857910 126.038803)" style="stroke:#ff0000;stroke-width:0.05mm;fill:none" d="M-210.705994,-88.247864L-207.955933,-86.660217L-207.955933,-83.484741L-210.705994,-81.897034L-213.455933,-83.484741L-213.455933,-86.660217L-210.705994,-88.247864z"/>
    <path transform="matrix(-1.000000 0.000000 0.000000 1.000000 -266.857910 126.038803)" style="stroke:#ff0000;stroke-width:0.05mm;fill:none" d="M317.915527,-28.049744L320.665527,-26.462036L320.665527,-23.286621L317.915527,-21.698914L315.165527,-23.286621L315.165527,-26.462036L317.915527,-28.049744z"/>
    <path transform="matrix(-1.000000 0.000000 0.000000 1.000000 -266.857910 126.038803)" style="stroke:#ff0000;stroke-width:0.05mm;fill:none" d="M298.157501,-88.247864L300.907471,-86.660217L300.907471,-83.484741L298.157501,-81.897034L295.407501,-83.484741L295.407501,-86.660217L298.157501,-88.247864z"/>
    <path transform="matrix(-1.000000 0.000000 0.000000 1.000000 -266.857910 126.038803)" style="stroke:#ff0000;stroke-width:0.05mm;fill:none" d="M-13.274231,0.110565L-17.274231,0.110565L-17.274231,-5.889465L-13.274231,-5.889465L-13.274231,0.110565z"/>
    <path transform="matrix(-1.000000 0.000000 0.000000 1.000000 -266.857910 126.038803)" style="stroke:#ff0000;stroke-width:0.05mm;fill:none" d="M16.225769,-5.889465L16.225769,0.110565L12.225769,0.110565L12.225769,-5.889465L16.225769,-5.889465z"/>
    <path transform="matrix(-1.000000 0.000000 0.000000 1.000000 -266.857910 126.038803)" style="stroke:#ff0000;stroke-width:0.05mm;fill:none" d="M31.975769,-4.389404L34.17572,-4.389404L34.17572,-1.389435L31.975769,-1.389435L31.975769,0.110565L25.975769,0.110565L25.975769,-1.389435L23.775757,-1.389435L23.775757,-4.389404L25.975769,-4.389404L25.975769,-5.889465L31.975769,-5.889465L31.975769,-4.389404z"/>
    <path transform="matrix(-1.000000 0.000000 0.000000 1.000000 -266.857910 126.038803)" style="stroke:#ff0000;stroke-width:0.05mm;fill:none" d="M-5.724243,-1.389435L-5.724243,-4.389404L-3.524231,-4.389404L-3.524231,-5.889465L2.475708,-5.889465L2.475708,-4.389404L4.67572,-4.389404L4.67572,-1.389435L2.475708,-1.389435L2.475708,0.110565L-3.524231,0.110565L-3.524231,-1.389435L-5.724243,-1.389435z"/>
    <path transform="matrix(-1.000000 0.000000 0.000000 1.000000 -266.857910 126.038803)" style="stroke:#ff0000;stroke-width:0.05mm;fill:none" d="M-64.724304,-1.389435L-64.724304,-4.389404L-62.524231,-4.389404L-62.524231,-5.889465L-56.524292,-5.889465L-56.524292,-4.389404L-54.324219,-4.389404L-54.324219,-1.389435L-56.524292,-1.389435L-56.524292,0.110565L-62.524231,0.110565L-62.524231,-1.389435L-64.724304,-1.389435z"/>
    <path transform="matrix(-1.000000 0.000000 0.000000 1.000000 -266.857910 126.038803)" style="stroke:#ff0000;stroke-width:0.05mm;fill:none" d="M-27.024292,-4.389404L-24.824219,-4.389404L-24.824219,-1.389435L-27.024292,-1.389435L-27.024292,0.110565L-33.024231,0.110565L-33.024231,-1.389435L-35.224182,-1.389435L-35.224182,-4.389404L-33.024231,-4.389404L-33.024231,-5.889465L-27.024292,-5.889465L-27.024292,-4.389404z"/>
    <path transform="matrix(-1.000000 0.000000 0.000000 1.000000 -266.857910 126.038803)" style="stroke:#ff0000;stroke-width:0.05mm;fill:none" d="M-42.774231,-5.889465L-42.774231,0.110565L-46.774231,0.110565L-46.774231,-5.889465L-42.774231,-5.889465z"/>
    <path transform="matrix(-1.000000 0.000000 0.000000 1.000000 -266.857910 126.038803)" style="stroke:#ff0000;stroke-width:0.05mm;fill:none" d="M-72.274231,0.110565L-76.274231,0.110565L-76.274231,-5.889465L-72.274231,-5.889465L-72.274231,0.110565z"/>
    <rect transform="matrix(-1.000000 0.000000 0.000000 1.000000 -531.833374 47.374298)" style="stroke:#000000;stroke-width:0.05mm;fill:none" x="-14.097026" y="-22.224998" width="28.194052" height="44.449997"/>
    <rect transform="matrix(-1.000000 0.000000 0.000000 1.000000 -531.833374 92.923798)" style="stroke:#000000;stroke-width:0.05mm;fill:none" x="-14.097026" y="-22.225000" width="28.194052" height="44.450001"/>
    <rect transform="matrix(-1.000000 0.000000 0.000000 1.000000 -502.333923 47.374435)" style="stroke:#000000;stroke-width:0.05mm;fill:none" x="-14.097026" y="-22.224998" width="28.194052" height="44.449997"/>
    <rect transform="matrix(-1.000000 0.000000 0.000000 1.000000 -502.333923 92.923935)" style="stroke:#000000;stroke-width:0.05mm;fill:none" x="-14.097026" y="-22.225000" width="28.194052" height="44.450001"/>
    <rect transform="matrix(-1.000000 0.000000 0.000000 1.000000 -472.833984 47.374435)" style="stroke:#000000;stroke-width:0.05mm;fill:none" x="-14.097026" y="-22.224998" width="28.194052" height="44.449997"/>
    <rect transform="matrix(-1.000000 0.000000 0.000000 1.000000 -472.833984 92.923935)" style="stroke:#000000;stroke-width:0.05mm;fill:none" x="-14.097026" y="-22.225000" width="28.194052" height="44.450001"/>
    <rect transform="matrix(-1.000000 0.000000 0.000000 1.000000 -443.333984 47.374435)" style="stroke:#000000;stroke-width:0.05mm;fill:none" x="-14.097026" y="-22.224998" width="28.194052" height="44.449997"/>
    <rect transform="matrix(-1.000000 0.000000 0.000000 1.000000 -443.333984 92.923935)" style="stroke:#000000;stroke-width:0.05mm;fill:none" x="-14.097026" y="-22.225000" width="28.194052" height="44.450001"/>
    <rect transform="matrix(-1.000000 0.000000 0.000000 1.000000 -413.833984 47.374435)" style="stroke:#000000;stroke-width:0.05mm;fill:none" x="-14.097026" y="-22.224998" width="28.194052" height="44.449997"/>
    <rect transform="matrix(-1.000000 0.000000 0.000000 1.000000 -413.833984 92.923935)" style="stroke:#000000;stroke-width:0.05mm;fill:none" x="-14.097026" y="-22.225000" width="28.194052" height="44.450001"/>
    <rect transform="matrix(-1.000000 0.000000 0.000000 1.000000 -384.333862 47.374435)" style="stroke:#000000;stroke-width:0.05mm;fill:none" x="-14.097026" y="-22.224998" width="28.194052" height="44.449997"/>
    <rect transform="matrix(-1.000000 0.000000 0.000000 1.000000 -384.333862 92.923935)" style="stroke:#000000;stroke-width:0.05mm;fill:none" x="-14.097026" y="-22.225000" width="28.194052" height="44.450001"/>
    <rect transform="matrix(-1.000000 0.000000 0.000000 1.000000 -354.833862 47.374435)" style="stroke:#000000;stroke-width:0.05mm;fill:none" x="-14.097026" y="-22.224998" width="28.194052" height="44.449997"/>
    <rect transform="matrix(-1.000000 0.000000 0.000000 1.000000 -354.833862 92.923935)" style="stroke:#000000;stroke-width:0.05mm;fill:none" x="-14.097026" y="-22.225000" width="28.194052" height="44.450001"/>
    <rect transform="matrix(-1.000000 0.000000 0.000000 1.000000 -325.333862 47.374435)" style="stroke:#000000;stroke-width:0.05mm;fill:none" x="-14.097026" y="-22.224998" width="28.194052" height="44.449997"/>
    <rect transform="matrix(-1.000000 0.000000 0.000000 1.000000 -325.333862 92.923935)" style="stroke:#000000;stroke-width:0.05mm;fill:none" x="-14.097026" y="-22.225000" width="28.194052" height="44.450001"/>
    <rect transform="matrix(-1.000000 0.000000 0.000000 1.000000 -295.833862 47.374435)" style="stroke:#000000;stroke-width:0.05mm;fill:none" x="-14.097026" y="-22.224998" width="28.194052" height="44.449997"/>
    <rect transform="matrix(-1.000000 0.000000 0.000000 1.000000 -295.833862 92.923935)" style="stroke:#000000;stroke-width:0.05mm;fill:none" x="-14.097026" y="-22.225000" width="28.194052" height="44.450001"/>
    <rect transform="matrix(-1.000000 0.000000 0.000000 1.000000 -266.333862 47.374435)" style="stroke:#000000;stroke-width:0.05mm;fill:none" x="-14.097026" y="-22.224998" width="28.194052" height="44.449997"/>
    <rect transform="matrix(-1.000000 0.000000 0.000000 1.000000 -266.333862 92.923935)" style="stroke:#000000;stroke-width:0.05mm;fill:none" x="-14.097026" y="-22.225000" width="28.194052" height="44.450001"/>
    <rect transform="matrix(-1.000000 0.000000 0.000000 1.000000 -236.833862 47.374435)" style="stroke:#000000;stroke-width:0.05mm;fill:none" x="-14.097026" y="-22.224998" width="28.194052" height="44.449997"/>
    <rect transform="matrix(-1.000000 0.000000 0.000000 1.000000 -236.833862 92.923935)" style="stroke:#000000;stroke-width:0.05mm;fill:none" x="-14.097026" y="-22.225000" width="28.194052" height="44.450001"/>
    <rect transform="matrix(-1.000000 0.000000 0.000000 1.000000 -207.333862 47.374435)" style="stroke:#000000;stroke-width:0.05mm;fill:none" x="-14.097026" y="-22.224998" width="28.194052" height="44.449997"/>
    <rect transform="matrix(-1.000000 0.000000 0.000000 1.000000 -207.333862 92.923935)" style="stroke:#000000;stroke-width:0.05mm;fill:none" x="-14.097026" y="-22.225000" width="28.194052" height="44.450001"/>
    <rect transform="matrix(-1.000000 0.000000 0.000000 1.000000 -177.833862 47.374435)" style="stroke:#000000;stroke-width:0.05mm;fill:none" x="-14.097026" y="-22.224998" width="28.194052" height="44.449997"/>
    <rect transform="matrix(-1.000000 0.000000 0.000000 1.000000 -177.833862 92.923935)" style="stroke:#000000;stroke-width:0.05mm;fill:none" x="-14.097026" y="-22.225000" width="28.194052" height="44.450001"/>
    <rect transform="matrix(-1.000000 0.000000 0.000000 1.000000 -148.333862 47.374435)" style="stroke:#000000;stroke-width:0.05mm;fill:none" x="-14.097026" y="-22.224998" width="28.194052" height="44.449997"/>
    <rect transform="matrix(-1.000000 0.000000 0.000000 1.000000 -148.333862 92.923935)" style="stroke:#000000;stroke-width:0.05mm;fill:none" x="-14.097026" y="-22.225000" width="28.194052" height="44.450001"/>
    <rect transform="matrix(-1.000000 0.000000 0.000000 1.000000 -118.833862 47.374435)" style="stroke:#000000;stroke-width:0.05mm;fill:none" x="-14.097026" y="-22.224998" width="28.194052" height="44.449997"/>
    <rect transform="matrix(-1.000000 0.000000 0.000000 1.000000 -118.833862 92.923935)" style="stroke:#000000;stroke-width:0.05mm;fill:none" x="-14.097026" y="-22.225000" width="28.194052" height="44.450001"/>
    <rect transform="matrix(-1.000000 0.000000 0.000000 1.000000 -89.333862 47.374435)" style="stroke:#000000;stroke-width:0.05mm;fill:none" x="-14.097026" y="-22.224998" width="28.194052" height="44.449997"/>
    <rect transform="matrix(-1.000000 0.000000 0.000000 1.000000 -89.333862 92.923935)" style="stroke:#000000;stroke-width:0.05mm;fill:none" x="-14.097026" y="-22.225000" width="28.194052" height="44.450001"/>
</svg>
